ISO-10303-21;
HEADER;
/* Generated by software containing ST-Developer
 * from STEP Tools, Inc. (www.steptools.com) 
 */

FILE_DESCRIPTION(
/* description */ (''),
/* implementation_level */ '2;1');

FILE_NAME(
/* name */ 'BannerBeasts-H-1.step',
/* time_stamp */ '2025-10-30T23:44:47Z',
/* author */ (''),
/* organization */ (''),
/* preprocessor_version */ 'ST-DEVELOPER v20.1',
/* originating_system */ 'Autodesk Translation Framework v14.17.0.0',
/* authorisation */ '');

FILE_SCHEMA (('AUTOMOTIVE_DESIGN { 1 0 10303 214 3 1 1 }'));
ENDSEC;

DATA;
#10=MECHANICAL_DESIGN_GEOMETRIC_PRESENTATION_REPRESENTATION('',(#21),#1246);
#11=ITEM_DEFINED_TRANSFORMATION($,$,#741,#772);
#12=ITEM_DEFINED_TRANSFORMATION($,$,#740,#773);
#13=(
REPRESENTATION_RELATIONSHIP($,$,#1261,#1260)
REPRESENTATION_RELATIONSHIP_WITH_TRANSFORMATION(#11)
SHAPE_REPRESENTATION_RELATIONSHIP()
);
#14=(
REPRESENTATION_RELATIONSHIP($,$,#1260,#1259)
REPRESENTATION_RELATIONSHIP_WITH_TRANSFORMATION(#12)
SHAPE_REPRESENTATION_RELATIONSHIP()
);
#15=CONTEXT_DEPENDENT_SHAPE_REPRESENTATION(#13,#1257);
#16=CONTEXT_DEPENDENT_SHAPE_REPRESENTATION(#14,#1258);
#17=NEXT_ASSEMBLY_USAGE_OCCURRENCE('Dragons:1','Dragons:1','Dragons:1',
#1264,#1265,'Dragons:1');
#18=NEXT_ASSEMBLY_USAGE_OCCURRENCE('Tiles:1','Tiles:1','Tiles:1',#1263,
#1264,'Tiles:1');
#19=SHAPE_REPRESENTATION_RELATIONSHIP('SRR','None',#1261,#20);
#20=ADVANCED_BREP_SHAPE_REPRESENTATION('',(#22),#1245);
#21=STYLED_ITEM('',(#1278),#22);
#22=MANIFOLD_SOLID_BREP('1x1',#726);
#23=FACE_BOUND('',#107,.T.);
#24=FACE_BOUND('',#118,.T.);
#25=FACE_BOUND('',#120,.T.);
#26=B_SPLINE_CURVE_WITH_KNOTS('',3,(#1007,#1008,#1009,#1010),
 .UNSPECIFIED.,.F.,.F.,(4,4),(0.,0.284019164025332),.UNSPECIFIED.);
#27=B_SPLINE_CURVE_WITH_KNOTS('',3,(#1022,#1023,#1024,#1025),
 .UNSPECIFIED.,.F.,.F.,(4,4),(0.,0.256365033326135),.UNSPECIFIED.);
#28=B_SPLINE_CURVE_WITH_KNOTS('',3,(#1036,#1037,#1038,#1039),
 .UNSPECIFIED.,.F.,.F.,(4,4),(0.,0.277319400255915),.UNSPECIFIED.);
#29=B_SPLINE_CURVE_WITH_KNOTS('',3,(#1050,#1051,#1052,#1053),
 .UNSPECIFIED.,.F.,.F.,(4,4),(0.,0.623978338472253),.UNSPECIFIED.);
#30=B_SPLINE_CURVE_WITH_KNOTS('',3,(#1092,#1093,#1094,#1095),
 .UNSPECIFIED.,.F.,.F.,(4,4),(0.,0.285882651203689),.UNSPECIFIED.);
#31=B_SPLINE_CURVE_WITH_KNOTS('',3,(#1106,#1107,#1108,#1109),
 .UNSPECIFIED.,.F.,.F.,(4,4),(0.,0.228102130959491),.UNSPECIFIED.);
#32=B_SPLINE_CURVE_WITH_KNOTS('',3,(#1120,#1121,#1122,#1123),
 .UNSPECIFIED.,.F.,.F.,(4,4),(0.,0.241629460758826),.UNSPECIFIED.);
#33=B_SPLINE_CURVE_WITH_KNOTS('',3,(#1134,#1135,#1136,#1137),
 .UNSPECIFIED.,.F.,.F.,(4,4),(0.,0.67048084168292),.UNSPECIFIED.);
#34=(
BOUNDED_SURFACE()
B_SPLINE_SURFACE(3,1,((#997,#998),(#999,#1000),(#1001,#1002),(#1003,#1004)),
 .UNSPECIFIED.,.F.,.F.,.F.)
B_SPLINE_SURFACE_WITH_KNOTS((4,4),(2,2),(0.,1.),(0.003,0.008),
 .UNSPECIFIED.)
GEOMETRIC_REPRESENTATION_ITEM()
RATIONAL_B_SPLINE_SURFACE(((1.,1.),(1.,1.),(1.,1.),(1.,1.)))
REPRESENTATION_ITEM('')
SURFACE()
);
#35=(
BOUNDED_SURFACE()
B_SPLINE_SURFACE(3,1,((#1013,#1014),(#1015,#1016),(#1017,#1018),(#1019,
#1020)),.UNSPECIFIED.,.F.,.F.,.F.)
B_SPLINE_SURFACE_WITH_KNOTS((4,4),(2,2),(0.,1.),(0.003,0.008),
 .UNSPECIFIED.)
GEOMETRIC_REPRESENTATION_ITEM()
RATIONAL_B_SPLINE_SURFACE(((1.,1.),(1.,1.),(1.,1.),(1.,1.)))
REPRESENTATION_ITEM('')
SURFACE()
);
#36=(
BOUNDED_SURFACE()
B_SPLINE_SURFACE(3,1,((#1027,#1028),(#1029,#1030),(#1031,#1032),(#1033,
#1034)),.UNSPECIFIED.,.F.,.F.,.F.)
B_SPLINE_SURFACE_WITH_KNOTS((4,4),(2,2),(0.,1.),(0.003,0.008),
 .UNSPECIFIED.)
GEOMETRIC_REPRESENTATION_ITEM()
RATIONAL_B_SPLINE_SURFACE(((1.,1.),(1.,1.),(1.,1.),(1.,1.)))
REPRESENTATION_ITEM('')
SURFACE()
);
#37=(
BOUNDED_SURFACE()
B_SPLINE_SURFACE(3,1,((#1041,#1042),(#1043,#1044),(#1045,#1046),(#1047,
#1048)),.UNSPECIFIED.,.F.,.F.,.F.)
B_SPLINE_SURFACE_WITH_KNOTS((4,4),(2,2),(0.,1.),(0.003,0.008),
 .UNSPECIFIED.)
GEOMETRIC_REPRESENTATION_ITEM()
RATIONAL_B_SPLINE_SURFACE(((1.,1.),(1.,1.),(1.,1.),(1.,1.)))
REPRESENTATION_ITEM('')
SURFACE()
);
#38=(
BOUNDED_SURFACE()
B_SPLINE_SURFACE(3,1,((#1083,#1084),(#1085,#1086),(#1087,#1088),(#1089,
#1090)),.UNSPECIFIED.,.F.,.F.,.F.)
B_SPLINE_SURFACE_WITH_KNOTS((4,4),(2,2),(0.,1.),(0.003,0.008),
 .UNSPECIFIED.)
GEOMETRIC_REPRESENTATION_ITEM()
RATIONAL_B_SPLINE_SURFACE(((1.,1.),(1.,1.),(1.,1.),(1.,1.)))
REPRESENTATION_ITEM('')
SURFACE()
);
#39=(
BOUNDED_SURFACE()
B_SPLINE_SURFACE(3,1,((#1097,#1098),(#1099,#1100),(#1101,#1102),(#1103,
#1104)),.UNSPECIFIED.,.F.,.F.,.F.)
B_SPLINE_SURFACE_WITH_KNOTS((4,4),(2,2),(0.,1.),(0.003,0.008),
 .UNSPECIFIED.)
GEOMETRIC_REPRESENTATION_ITEM()
RATIONAL_B_SPLINE_SURFACE(((1.,1.),(1.,1.),(1.,1.),(1.,1.)))
REPRESENTATION_ITEM('')
SURFACE()
);
#40=(
BOUNDED_SURFACE()
B_SPLINE_SURFACE(3,1,((#1111,#1112),(#1113,#1114),(#1115,#1116),(#1117,
#1118)),.UNSPECIFIED.,.F.,.F.,.F.)
B_SPLINE_SURFACE_WITH_KNOTS((4,4),(2,2),(0.,1.),(0.003,0.008),
 .UNSPECIFIED.)
GEOMETRIC_REPRESENTATION_ITEM()
RATIONAL_B_SPLINE_SURFACE(((1.,1.),(1.,1.),(1.,1.),(1.,1.)))
REPRESENTATION_ITEM('')
SURFACE()
);
#41=(
BOUNDED_SURFACE()
B_SPLINE_SURFACE(3,1,((#1125,#1126),(#1127,#1128),(#1129,#1130),(#1131,
#1132)),.UNSPECIFIED.,.F.,.F.,.F.)
B_SPLINE_SURFACE_WITH_KNOTS((4,4),(2,2),(0.,1.),(0.003,0.008),
 .UNSPECIFIED.)
GEOMETRIC_REPRESENTATION_ITEM()
RATIONAL_B_SPLINE_SURFACE(((1.,1.),(1.,1.),(1.,1.),(1.,1.)))
REPRESENTATION_ITEM('')
SURFACE()
);
#42=FACE_OUTER_BOUND('',#80,.T.);
#43=FACE_OUTER_BOUND('',#81,.T.);
#44=FACE_OUTER_BOUND('',#82,.T.);
#45=FACE_OUTER_BOUND('',#83,.T.);
#46=FACE_OUTER_BOUND('',#84,.T.);
#47=FACE_OUTER_BOUND('',#85,.T.);
#48=FACE_OUTER_BOUND('',#86,.T.);
#49=FACE_OUTER_BOUND('',#87,.T.);
#50=FACE_OUTER_BOUND('',#88,.T.);
#51=FACE_OUTER_BOUND('',#89,.T.);
#52=FACE_OUTER_BOUND('',#90,.T.);
#53=FACE_OUTER_BOUND('',#91,.T.);
#54=FACE_OUTER_BOUND('',#92,.T.);
#55=FACE_OUTER_BOUND('',#93,.T.);
#56=FACE_OUTER_BOUND('',#94,.T.);
#57=FACE_OUTER_BOUND('',#95,.T.);
#58=FACE_OUTER_BOUND('',#96,.T.);
#59=FACE_OUTER_BOUND('',#97,.T.);
#60=FACE_OUTER_BOUND('',#98,.T.);
#61=FACE_OUTER_BOUND('',#99,.T.);
#62=FACE_OUTER_BOUND('',#100,.T.);
#63=FACE_OUTER_BOUND('',#101,.T.);
#64=FACE_OUTER_BOUND('',#102,.T.);
#65=FACE_OUTER_BOUND('',#103,.T.);
#66=FACE_OUTER_BOUND('',#104,.T.);
#67=FACE_OUTER_BOUND('',#105,.T.);
#68=FACE_OUTER_BOUND('',#106,.T.);
#69=FACE_OUTER_BOUND('',#108,.T.);
#70=FACE_OUTER_BOUND('',#109,.T.);
#71=FACE_OUTER_BOUND('',#110,.T.);
#72=FACE_OUTER_BOUND('',#111,.T.);
#73=FACE_OUTER_BOUND('',#112,.T.);
#74=FACE_OUTER_BOUND('',#113,.T.);
#75=FACE_OUTER_BOUND('',#114,.T.);
#76=FACE_OUTER_BOUND('',#115,.T.);
#77=FACE_OUTER_BOUND('',#116,.T.);
#78=FACE_OUTER_BOUND('',#117,.T.);
#79=FACE_OUTER_BOUND('',#119,.T.);
#80=EDGE_LOOP('',(#460,#461,#462,#463,#464,#465,#466,#467,#468,#469,#470,
#471,#472,#473,#474,#475,#476,#477,#478,#479,#480));
#81=EDGE_LOOP('',(#481,#482,#483,#484));
#82=EDGE_LOOP('',(#485,#486,#487,#488));
#83=EDGE_LOOP('',(#489,#490,#491,#492));
#84=EDGE_LOOP('',(#493,#494,#495,#496));
#85=EDGE_LOOP('',(#497,#498,#499,#500));
#86=EDGE_LOOP('',(#501,#502,#503,#504));
#87=EDGE_LOOP('',(#505,#506,#507,#508));
#88=EDGE_LOOP('',(#509,#510,#511,#512));
#89=EDGE_LOOP('',(#513,#514,#515,#516));
#90=EDGE_LOOP('',(#517,#518,#519,#520));
#91=EDGE_LOOP('',(#521,#522,#523,#524));
#92=EDGE_LOOP('',(#525,#526,#527,#528));
#93=EDGE_LOOP('',(#529,#530,#531,#532));
#94=EDGE_LOOP('',(#533,#534,#535,#536));
#95=EDGE_LOOP('',(#537,#538,#539,#540));
#96=EDGE_LOOP('',(#541,#542,#543,#544));
#97=EDGE_LOOP('',(#545,#546,#547,#548));
#98=EDGE_LOOP('',(#549,#550,#551,#552));
#99=EDGE_LOOP('',(#553,#554,#555,#556));
#100=EDGE_LOOP('',(#557,#558,#559,#560));
#101=EDGE_LOOP('',(#561,#562,#563,#564));
#102=EDGE_LOOP('',(#565,#566,#567,#568));
#103=EDGE_LOOP('',(#569,#570,#571,#572));
#104=EDGE_LOOP('',(#573,#574,#575,#576));
#105=EDGE_LOOP('',(#577,#578,#579,#580));
#106=EDGE_LOOP('',(#581,#582,#583,#584));
#107=EDGE_LOOP('',(#585,#586,#587,#588));
#108=EDGE_LOOP('',(#589,#590,#591,#592));
#109=EDGE_LOOP('',(#593,#594,#595,#596));
#110=EDGE_LOOP('',(#597,#598,#599,#600));
#111=EDGE_LOOP('',(#601,#602,#603,#604));
#112=EDGE_LOOP('',(#605,#606,#607,#608));
#113=EDGE_LOOP('',(#609,#610,#611,#612));
#114=EDGE_LOOP('',(#613,#614,#615,#616));
#115=EDGE_LOOP('',(#617,#618,#619,#620));
#116=EDGE_LOOP('',(#621,#622,#623,#624));
#117=EDGE_LOOP('',(#625,#626,#627,#628));
#118=EDGE_LOOP('',(#629,#630,#631,#632));
#119=EDGE_LOOP('',(#633,#634,#635,#636));
#120=EDGE_LOOP('',(#637,#638,#639,#640,#641,#642,#643,#644,#645,#646,#647,
#648,#649,#650,#651,#652,#653,#654,#655,#656,#657));
#121=(
BOUNDED_CURVE()
B_SPLINE_CURVE(3,(#947,#948,#949,#950),.UNSPECIFIED.,.F.,.F.)
B_SPLINE_CURVE_WITH_KNOTS((4,4),(0.,1.),.UNSPECIFIED.)
CURVE()
GEOMETRIC_REPRESENTATION_ITEM()
RATIONAL_B_SPLINE_CURVE((1.,1.,1.,1.))
REPRESENTATION_ITEM('')
);
#122=(
BOUNDED_CURVE()
B_SPLINE_CURVE(3,(#952,#953,#954,#955),.UNSPECIFIED.,.F.,.F.)
B_SPLINE_CURVE_WITH_KNOTS((4,4),(0.,1.),.UNSPECIFIED.)
CURVE()
GEOMETRIC_REPRESENTATION_ITEM()
RATIONAL_B_SPLINE_CURVE((1.,1.,1.,1.))
REPRESENTATION_ITEM('')
);
#123=(
BOUNDED_CURVE()
B_SPLINE_CURVE(3,(#957,#958,#959,#960),.UNSPECIFIED.,.F.,.F.)
B_SPLINE_CURVE_WITH_KNOTS((4,4),(0.,1.),.UNSPECIFIED.)
CURVE()
GEOMETRIC_REPRESENTATION_ITEM()
RATIONAL_B_SPLINE_CURVE((1.,1.,1.,1.))
REPRESENTATION_ITEM('')
);
#124=(
BOUNDED_CURVE()
B_SPLINE_CURVE(3,(#962,#963,#964,#965),.UNSPECIFIED.,.F.,.F.)
B_SPLINE_CURVE_WITH_KNOTS((4,4),(0.,1.),.UNSPECIFIED.)
CURVE()
GEOMETRIC_REPRESENTATION_ITEM()
RATIONAL_B_SPLINE_CURVE((1.,1.,1.,1.))
REPRESENTATION_ITEM('')
);
#125=(
BOUNDED_CURVE()
B_SPLINE_CURVE(3,(#967,#968,#969,#970),.UNSPECIFIED.,.F.,.F.)
B_SPLINE_CURVE_WITH_KNOTS((4,4),(0.,1.),.UNSPECIFIED.)
CURVE()
GEOMETRIC_REPRESENTATION_ITEM()
RATIONAL_B_SPLINE_CURVE((1.,1.,1.,1.))
REPRESENTATION_ITEM('')
);
#126=(
BOUNDED_CURVE()
B_SPLINE_CURVE(3,(#972,#973,#974,#975),.UNSPECIFIED.,.F.,.F.)
B_SPLINE_CURVE_WITH_KNOTS((4,4),(0.,1.),.UNSPECIFIED.)
CURVE()
GEOMETRIC_REPRESENTATION_ITEM()
RATIONAL_B_SPLINE_CURVE((1.,1.,1.,1.))
REPRESENTATION_ITEM('')
);
#127=(
BOUNDED_CURVE()
B_SPLINE_CURVE(3,(#977,#978,#979,#980),.UNSPECIFIED.,.F.,.F.)
B_SPLINE_CURVE_WITH_KNOTS((4,4),(0.,1.),.UNSPECIFIED.)
CURVE()
GEOMETRIC_REPRESENTATION_ITEM()
RATIONAL_B_SPLINE_CURVE((1.,1.,1.,1.))
REPRESENTATION_ITEM('')
);
#128=(
BOUNDED_CURVE()
B_SPLINE_CURVE(3,(#982,#983,#984,#985),.UNSPECIFIED.,.F.,.F.)
B_SPLINE_CURVE_WITH_KNOTS((4,4),(0.,1.),.UNSPECIFIED.)
CURVE()
GEOMETRIC_REPRESENTATION_ITEM()
RATIONAL_B_SPLINE_CURVE((1.,1.,1.,1.))
REPRESENTATION_ITEM('')
);
#129=LINE('',#933,#212);
#130=LINE('',#935,#213);
#131=LINE('',#937,#214);
#132=LINE('',#939,#215);
#133=LINE('',#941,#216);
#134=LINE('',#943,#217);
#135=LINE('',#945,#218);
#136=LINE('',#987,#219);
#137=LINE('',#989,#220);
#138=LINE('',#991,#221);
#139=LINE('',#993,#222);
#140=LINE('',#995,#223);
#141=LINE('',#996,#224);
#142=LINE('',#1011,#225);
#143=LINE('',#1012,#226);
#144=LINE('',#1026,#227);
#145=LINE('',#1040,#228);
#146=LINE('',#1054,#229);
#147=LINE('',#1057,#230);
#148=LINE('',#1058,#231);
#149=LINE('',#1061,#232);
#150=LINE('',#1062,#233);
#151=LINE('',#1065,#234);
#152=LINE('',#1066,#235);
#153=LINE('',#1069,#236);
#154=LINE('',#1070,#237);
#155=LINE('',#1073,#238);
#156=LINE('',#1074,#239);
#157=LINE('',#1077,#240);
#158=LINE('',#1078,#241);
#159=LINE('',#1081,#242);
#160=LINE('',#1082,#243);
#161=LINE('',#1096,#244);
#162=LINE('',#1110,#245);
#163=LINE('',#1124,#246);
#164=LINE('',#1138,#247);
#165=LINE('',#1141,#248);
#166=LINE('',#1142,#249);
#167=LINE('',#1145,#250);
#168=LINE('',#1146,#251);
#169=LINE('',#1149,#252);
#170=LINE('',#1150,#253);
#171=LINE('',#1153,#254);
#172=LINE('',#1154,#255);
#173=LINE('',#1157,#256);
#174=LINE('',#1158,#257);
#175=LINE('',#1160,#258);
#176=LINE('',#1164,#259);
#177=LINE('',#1166,#260);
#178=LINE('',#1168,#261);
#179=LINE('',#1169,#262);
#180=LINE('',#1172,#263);
#181=LINE('',#1174,#264);
#182=LINE('',#1175,#265);
#183=LINE('',#1178,#266);
#184=LINE('',#1180,#267);
#185=LINE('',#1181,#268);
#186=LINE('',#1183,#269);
#187=LINE('',#1184,#270);
#188=LINE('',#1188,#271);
#189=LINE('',#1190,#272);
#190=LINE('',#1192,#273);
#191=LINE('',#1193,#274);
#192=LINE('',#1196,#275);
#193=LINE('',#1198,#276);
#194=LINE('',#1199,#277);
#195=LINE('',#1202,#278);
#196=LINE('',#1203,#279);
#197=LINE('',#1207,#280);
#198=LINE('',#1209,#281);
#199=LINE('',#1211,#282);
#200=LINE('',#1212,#283);
#201=LINE('',#1215,#284);
#202=LINE('',#1217,#285);
#203=LINE('',#1218,#286);
#204=LINE('',#1221,#287);
#205=LINE('',#1222,#288);
#206=LINE('',#1225,#289);
#207=LINE('',#1226,#290);
#208=LINE('',#1228,#291);
#209=LINE('',#1231,#292);
#210=LINE('',#1232,#293);
#211=LINE('',#1234,#294);
#212=VECTOR('',#782,10.);
#213=VECTOR('',#783,10.);
#214=VECTOR('',#784,10.);
#215=VECTOR('',#785,10.);
#216=VECTOR('',#786,10.);
#217=VECTOR('',#787,10.);
#218=VECTOR('',#788,10.);
#219=VECTOR('',#789,10.);
#220=VECTOR('',#790,10.);
#221=VECTOR('',#791,10.);
#222=VECTOR('',#792,10.);
#223=VECTOR('',#793,10.);
#224=VECTOR('',#794,10.);
#225=VECTOR('',#795,10.);
#226=VECTOR('',#796,10.);
#227=VECTOR('',#797,10.);
#228=VECTOR('',#798,10.);
#229=VECTOR('',#799,10.);
#230=VECTOR('',#802,10.);
#231=VECTOR('',#803,10.);
#232=VECTOR('',#806,10.);
#233=VECTOR('',#807,10.);
#234=VECTOR('',#810,10.);
#235=VECTOR('',#811,10.);
#236=VECTOR('',#814,10.);
#237=VECTOR('',#815,10.);
#238=VECTOR('',#818,10.);
#239=VECTOR('',#819,10.);
#240=VECTOR('',#822,10.);
#241=VECTOR('',#823,10.);
#242=VECTOR('',#826,10.);
#243=VECTOR('',#827,10.);
#244=VECTOR('',#828,10.);
#245=VECTOR('',#829,10.);
#246=VECTOR('',#830,10.);
#247=VECTOR('',#831,10.);
#248=VECTOR('',#834,10.);
#249=VECTOR('',#835,10.);
#250=VECTOR('',#838,10.);
#251=VECTOR('',#839,10.);
#252=VECTOR('',#842,10.);
#253=VECTOR('',#843,10.);
#254=VECTOR('',#846,10.);
#255=VECTOR('',#847,10.);
#256=VECTOR('',#850,10.);
#257=VECTOR('',#851,10.);
#258=VECTOR('',#854,10.);
#259=VECTOR('',#857,10.);
#260=VECTOR('',#858,10.);
#261=VECTOR('',#859,10.);
#262=VECTOR('',#860,10.);
#263=VECTOR('',#863,10.);
#264=VECTOR('',#864,10.);
#265=VECTOR('',#865,10.);
#266=VECTOR('',#868,10.);
#267=VECTOR('',#869,10.);
#268=VECTOR('',#870,10.);
#269=VECTOR('',#873,10.);
#270=VECTOR('',#874,10.);
#271=VECTOR('',#877,10.);
#272=VECTOR('',#878,10.);
#273=VECTOR('',#879,10.);
#274=VECTOR('',#880,10.);
#275=VECTOR('',#883,10.);
#276=VECTOR('',#884,10.);
#277=VECTOR('',#885,10.);
#278=VECTOR('',#888,10.);
#279=VECTOR('',#889,10.);
#280=VECTOR('',#892,10.);
#281=VECTOR('',#893,10.);
#282=VECTOR('',#894,10.);
#283=VECTOR('',#895,10.);
#284=VECTOR('',#898,10.);
#285=VECTOR('',#899,10.);
#286=VECTOR('',#900,10.);
#287=VECTOR('',#903,10.);
#288=VECTOR('',#904,10.);
#289=VECTOR('',#907,10.);
#290=VECTOR('',#908,10.);
#291=VECTOR('',#911,10.);
#292=VECTOR('',#914,10.);
#293=VECTOR('',#915,10.);
#294=VECTOR('',#918,10.);
#295=VERTEX_POINT('',#931);
#296=VERTEX_POINT('',#932);
#297=VERTEX_POINT('',#934);
#298=VERTEX_POINT('',#936);
#299=VERTEX_POINT('',#938);
#300=VERTEX_POINT('',#940);
#301=VERTEX_POINT('',#942);
#302=VERTEX_POINT('',#944);
#303=VERTEX_POINT('',#946);
#304=VERTEX_POINT('',#951);
#305=VERTEX_POINT('',#956);
#306=VERTEX_POINT('',#961);
#307=VERTEX_POINT('',#966);
#308=VERTEX_POINT('',#971);
#309=VERTEX_POINT('',#976);
#310=VERTEX_POINT('',#981);
#311=VERTEX_POINT('',#986);
#312=VERTEX_POINT('',#988);
#313=VERTEX_POINT('',#990);
#314=VERTEX_POINT('',#992);
#315=VERTEX_POINT('',#994);
#316=VERTEX_POINT('',#1005);
#317=VERTEX_POINT('',#1006);
#318=VERTEX_POINT('',#1021);
#319=VERTEX_POINT('',#1035);
#320=VERTEX_POINT('',#1049);
#321=VERTEX_POINT('',#1056);
#322=VERTEX_POINT('',#1060);
#323=VERTEX_POINT('',#1064);
#324=VERTEX_POINT('',#1068);
#325=VERTEX_POINT('',#1072);
#326=VERTEX_POINT('',#1076);
#327=VERTEX_POINT('',#1080);
#328=VERTEX_POINT('',#1091);
#329=VERTEX_POINT('',#1105);
#330=VERTEX_POINT('',#1119);
#331=VERTEX_POINT('',#1133);
#332=VERTEX_POINT('',#1140);
#333=VERTEX_POINT('',#1144);
#334=VERTEX_POINT('',#1148);
#335=VERTEX_POINT('',#1152);
#336=VERTEX_POINT('',#1156);
#337=VERTEX_POINT('',#1162);
#338=VERTEX_POINT('',#1163);
#339=VERTEX_POINT('',#1165);
#340=VERTEX_POINT('',#1167);
#341=VERTEX_POINT('',#1171);
#342=VERTEX_POINT('',#1173);
#343=VERTEX_POINT('',#1177);
#344=VERTEX_POINT('',#1179);
#345=VERTEX_POINT('',#1186);
#346=VERTEX_POINT('',#1187);
#347=VERTEX_POINT('',#1189);
#348=VERTEX_POINT('',#1191);
#349=VERTEX_POINT('',#1195);
#350=VERTEX_POINT('',#1197);
#351=VERTEX_POINT('',#1201);
#352=VERTEX_POINT('',#1205);
#353=VERTEX_POINT('',#1206);
#354=VERTEX_POINT('',#1208);
#355=VERTEX_POINT('',#1210);
#356=VERTEX_POINT('',#1214);
#357=VERTEX_POINT('',#1216);
#358=VERTEX_POINT('',#1220);
#359=VERTEX_POINT('',#1224);
#360=VERTEX_POINT('',#1230);
#361=EDGE_CURVE('',#295,#296,#129,.T.);
#362=EDGE_CURVE('',#297,#295,#130,.T.);
#363=EDGE_CURVE('',#298,#297,#131,.T.);
#364=EDGE_CURVE('',#299,#298,#132,.T.);
#365=EDGE_CURVE('',#300,#299,#133,.T.);
#366=EDGE_CURVE('',#301,#300,#134,.T.);
#367=EDGE_CURVE('',#302,#301,#135,.T.);
#368=EDGE_CURVE('',#303,#302,#121,.T.);
#369=EDGE_CURVE('',#304,#303,#122,.T.);
#370=EDGE_CURVE('',#305,#304,#123,.T.);
#371=EDGE_CURVE('',#306,#305,#124,.T.);
#372=EDGE_CURVE('',#307,#306,#125,.T.);
#373=EDGE_CURVE('',#308,#307,#126,.T.);
#374=EDGE_CURVE('',#309,#308,#127,.T.);
#375=EDGE_CURVE('',#310,#309,#128,.T.);
#376=EDGE_CURVE('',#311,#310,#136,.T.);
#377=EDGE_CURVE('',#312,#311,#137,.T.);
#378=EDGE_CURVE('',#313,#312,#138,.T.);
#379=EDGE_CURVE('',#314,#313,#139,.T.);
#380=EDGE_CURVE('',#315,#314,#140,.T.);
#381=EDGE_CURVE('',#296,#315,#141,.T.);
#382=EDGE_CURVE('',#316,#317,#26,.T.);
#383=EDGE_CURVE('',#316,#306,#142,.T.);
#384=EDGE_CURVE('',#317,#305,#143,.T.);
#385=EDGE_CURVE('',#317,#318,#27,.T.);
#386=EDGE_CURVE('',#318,#304,#144,.T.);
#387=EDGE_CURVE('',#318,#319,#28,.T.);
#388=EDGE_CURVE('',#319,#303,#145,.T.);
#389=EDGE_CURVE('',#319,#320,#29,.T.);
#390=EDGE_CURVE('',#320,#302,#146,.T.);
#391=EDGE_CURVE('',#320,#321,#147,.T.);
#392=EDGE_CURVE('',#321,#301,#148,.T.);
#393=EDGE_CURVE('',#321,#322,#149,.T.);
#394=EDGE_CURVE('',#322,#300,#150,.T.);
#395=EDGE_CURVE('',#322,#323,#151,.T.);
#396=EDGE_CURVE('',#323,#299,#152,.T.);
#397=EDGE_CURVE('',#323,#324,#153,.T.);
#398=EDGE_CURVE('',#324,#298,#154,.T.);
#399=EDGE_CURVE('',#324,#325,#155,.T.);
#400=EDGE_CURVE('',#325,#297,#156,.T.);
#401=EDGE_CURVE('',#325,#326,#157,.T.);
#402=EDGE_CURVE('',#326,#295,#158,.T.);
#403=EDGE_CURVE('',#326,#327,#159,.T.);
#404=EDGE_CURVE('',#327,#296,#160,.T.);
#405=EDGE_CURVE('',#328,#316,#30,.T.);
#406=EDGE_CURVE('',#328,#307,#161,.T.);
#407=EDGE_CURVE('',#329,#328,#31,.T.);
#408=EDGE_CURVE('',#329,#308,#162,.T.);
#409=EDGE_CURVE('',#330,#329,#32,.T.);
#410=EDGE_CURVE('',#330,#309,#163,.T.);
#411=EDGE_CURVE('',#331,#330,#33,.T.);
#412=EDGE_CURVE('',#331,#310,#164,.T.);
#413=EDGE_CURVE('',#332,#331,#165,.T.);
#414=EDGE_CURVE('',#332,#311,#166,.T.);
#415=EDGE_CURVE('',#333,#332,#167,.T.);
#416=EDGE_CURVE('',#333,#312,#168,.T.);
#417=EDGE_CURVE('',#334,#333,#169,.T.);
#418=EDGE_CURVE('',#334,#313,#170,.T.);
#419=EDGE_CURVE('',#335,#334,#171,.T.);
#420=EDGE_CURVE('',#335,#314,#172,.T.);
#421=EDGE_CURVE('',#336,#335,#173,.T.);
#422=EDGE_CURVE('',#336,#315,#174,.T.);
#423=EDGE_CURVE('',#327,#336,#175,.T.);
#424=EDGE_CURVE('',#337,#338,#176,.T.);
#425=EDGE_CURVE('',#337,#339,#177,.T.);
#426=EDGE_CURVE('',#339,#340,#178,.T.);
#427=EDGE_CURVE('',#338,#340,#179,.T.);
#428=EDGE_CURVE('',#341,#337,#180,.T.);
#429=EDGE_CURVE('',#341,#342,#181,.T.);
#430=EDGE_CURVE('',#342,#339,#182,.T.);
#431=EDGE_CURVE('',#343,#341,#183,.T.);
#432=EDGE_CURVE('',#343,#344,#184,.T.);
#433=EDGE_CURVE('',#344,#342,#185,.T.);
#434=EDGE_CURVE('',#338,#343,#186,.T.);
#435=EDGE_CURVE('',#340,#344,#187,.T.);
#436=EDGE_CURVE('',#345,#346,#188,.T.);
#437=EDGE_CURVE('',#347,#345,#189,.T.);
#438=EDGE_CURVE('',#348,#347,#190,.T.);
#439=EDGE_CURVE('',#346,#348,#191,.T.);
#440=EDGE_CURVE('',#347,#349,#192,.T.);
#441=EDGE_CURVE('',#350,#349,#193,.F.);
#442=EDGE_CURVE('',#348,#350,#194,.F.);
#443=EDGE_CURVE('',#345,#351,#195,.T.);
#444=EDGE_CURVE('',#349,#351,#196,.F.);
#445=EDGE_CURVE('',#352,#353,#197,.T.);
#446=EDGE_CURVE('',#354,#352,#198,.T.);
#447=EDGE_CURVE('',#355,#354,#199,.T.);
#448=EDGE_CURVE('',#353,#355,#200,.T.);
#449=EDGE_CURVE('',#354,#356,#201,.T.);
#450=EDGE_CURVE('',#357,#356,#202,.T.);
#451=EDGE_CURVE('',#355,#357,#203,.T.);
#452=EDGE_CURVE('',#352,#358,#204,.T.);
#453=EDGE_CURVE('',#356,#358,#205,.T.);
#454=EDGE_CURVE('',#359,#357,#206,.T.);
#455=EDGE_CURVE('',#353,#359,#207,.T.);
#456=EDGE_CURVE('',#358,#359,#208,.T.);
#457=EDGE_CURVE('',#346,#360,#209,.T.);
#458=EDGE_CURVE('',#351,#360,#210,.F.);
#459=EDGE_CURVE('',#360,#350,#211,.F.);
#460=ORIENTED_EDGE('',*,*,#361,.F.);
#461=ORIENTED_EDGE('',*,*,#362,.F.);
#462=ORIENTED_EDGE('',*,*,#363,.F.);
#463=ORIENTED_EDGE('',*,*,#364,.F.);
#464=ORIENTED_EDGE('',*,*,#365,.F.);
#465=ORIENTED_EDGE('',*,*,#366,.F.);
#466=ORIENTED_EDGE('',*,*,#367,.F.);
#467=ORIENTED_EDGE('',*,*,#368,.F.);
#468=ORIENTED_EDGE('',*,*,#369,.F.);
#469=ORIENTED_EDGE('',*,*,#370,.F.);
#470=ORIENTED_EDGE('',*,*,#371,.F.);
#471=ORIENTED_EDGE('',*,*,#372,.F.);
#472=ORIENTED_EDGE('',*,*,#373,.F.);
#473=ORIENTED_EDGE('',*,*,#374,.F.);
#474=ORIENTED_EDGE('',*,*,#375,.F.);
#475=ORIENTED_EDGE('',*,*,#376,.F.);
#476=ORIENTED_EDGE('',*,*,#377,.F.);
#477=ORIENTED_EDGE('',*,*,#378,.F.);
#478=ORIENTED_EDGE('',*,*,#379,.F.);
#479=ORIENTED_EDGE('',*,*,#380,.F.);
#480=ORIENTED_EDGE('',*,*,#381,.F.);
#481=ORIENTED_EDGE('',*,*,#382,.F.);
#482=ORIENTED_EDGE('',*,*,#383,.T.);
#483=ORIENTED_EDGE('',*,*,#371,.T.);
#484=ORIENTED_EDGE('',*,*,#384,.F.);
#485=ORIENTED_EDGE('',*,*,#385,.F.);
#486=ORIENTED_EDGE('',*,*,#384,.T.);
#487=ORIENTED_EDGE('',*,*,#370,.T.);
#488=ORIENTED_EDGE('',*,*,#386,.F.);
#489=ORIENTED_EDGE('',*,*,#387,.F.);
#490=ORIENTED_EDGE('',*,*,#386,.T.);
#491=ORIENTED_EDGE('',*,*,#369,.T.);
#492=ORIENTED_EDGE('',*,*,#388,.F.);
#493=ORIENTED_EDGE('',*,*,#389,.F.);
#494=ORIENTED_EDGE('',*,*,#388,.T.);
#495=ORIENTED_EDGE('',*,*,#368,.T.);
#496=ORIENTED_EDGE('',*,*,#390,.F.);
#497=ORIENTED_EDGE('',*,*,#391,.F.);
#498=ORIENTED_EDGE('',*,*,#390,.T.);
#499=ORIENTED_EDGE('',*,*,#367,.T.);
#500=ORIENTED_EDGE('',*,*,#392,.F.);
#501=ORIENTED_EDGE('',*,*,#393,.F.);
#502=ORIENTED_EDGE('',*,*,#392,.T.);
#503=ORIENTED_EDGE('',*,*,#366,.T.);
#504=ORIENTED_EDGE('',*,*,#394,.F.);
#505=ORIENTED_EDGE('',*,*,#395,.F.);
#506=ORIENTED_EDGE('',*,*,#394,.T.);
#507=ORIENTED_EDGE('',*,*,#365,.T.);
#508=ORIENTED_EDGE('',*,*,#396,.F.);
#509=ORIENTED_EDGE('',*,*,#397,.F.);
#510=ORIENTED_EDGE('',*,*,#396,.T.);
#511=ORIENTED_EDGE('',*,*,#364,.T.);
#512=ORIENTED_EDGE('',*,*,#398,.F.);
#513=ORIENTED_EDGE('',*,*,#399,.F.);
#514=ORIENTED_EDGE('',*,*,#398,.T.);
#515=ORIENTED_EDGE('',*,*,#363,.T.);
#516=ORIENTED_EDGE('',*,*,#400,.F.);
#517=ORIENTED_EDGE('',*,*,#401,.F.);
#518=ORIENTED_EDGE('',*,*,#400,.T.);
#519=ORIENTED_EDGE('',*,*,#362,.T.);
#520=ORIENTED_EDGE('',*,*,#402,.F.);
#521=ORIENTED_EDGE('',*,*,#403,.F.);
#522=ORIENTED_EDGE('',*,*,#402,.T.);
#523=ORIENTED_EDGE('',*,*,#361,.T.);
#524=ORIENTED_EDGE('',*,*,#404,.F.);
#525=ORIENTED_EDGE('',*,*,#405,.F.);
#526=ORIENTED_EDGE('',*,*,#406,.T.);
#527=ORIENTED_EDGE('',*,*,#372,.T.);
#528=ORIENTED_EDGE('',*,*,#383,.F.);
#529=ORIENTED_EDGE('',*,*,#407,.F.);
#530=ORIENTED_EDGE('',*,*,#408,.T.);
#531=ORIENTED_EDGE('',*,*,#373,.T.);
#532=ORIENTED_EDGE('',*,*,#406,.F.);
#533=ORIENTED_EDGE('',*,*,#409,.F.);
#534=ORIENTED_EDGE('',*,*,#410,.T.);
#535=ORIENTED_EDGE('',*,*,#374,.T.);
#536=ORIENTED_EDGE('',*,*,#408,.F.);
#537=ORIENTED_EDGE('',*,*,#411,.F.);
#538=ORIENTED_EDGE('',*,*,#412,.T.);
#539=ORIENTED_EDGE('',*,*,#375,.T.);
#540=ORIENTED_EDGE('',*,*,#410,.F.);
#541=ORIENTED_EDGE('',*,*,#413,.F.);
#542=ORIENTED_EDGE('',*,*,#414,.T.);
#543=ORIENTED_EDGE('',*,*,#376,.T.);
#544=ORIENTED_EDGE('',*,*,#412,.F.);
#545=ORIENTED_EDGE('',*,*,#415,.F.);
#546=ORIENTED_EDGE('',*,*,#416,.T.);
#547=ORIENTED_EDGE('',*,*,#377,.T.);
#548=ORIENTED_EDGE('',*,*,#414,.F.);
#549=ORIENTED_EDGE('',*,*,#417,.F.);
#550=ORIENTED_EDGE('',*,*,#418,.T.);
#551=ORIENTED_EDGE('',*,*,#378,.T.);
#552=ORIENTED_EDGE('',*,*,#416,.F.);
#553=ORIENTED_EDGE('',*,*,#419,.F.);
#554=ORIENTED_EDGE('',*,*,#420,.T.);
#555=ORIENTED_EDGE('',*,*,#379,.T.);
#556=ORIENTED_EDGE('',*,*,#418,.F.);
#557=ORIENTED_EDGE('',*,*,#421,.F.);
#558=ORIENTED_EDGE('',*,*,#422,.T.);
#559=ORIENTED_EDGE('',*,*,#380,.T.);
#560=ORIENTED_EDGE('',*,*,#420,.F.);
#561=ORIENTED_EDGE('',*,*,#423,.F.);
#562=ORIENTED_EDGE('',*,*,#404,.T.);
#563=ORIENTED_EDGE('',*,*,#381,.T.);
#564=ORIENTED_EDGE('',*,*,#422,.F.);
#565=ORIENTED_EDGE('',*,*,#424,.F.);
#566=ORIENTED_EDGE('',*,*,#425,.T.);
#567=ORIENTED_EDGE('',*,*,#426,.T.);
#568=ORIENTED_EDGE('',*,*,#427,.F.);
#569=ORIENTED_EDGE('',*,*,#428,.F.);
#570=ORIENTED_EDGE('',*,*,#429,.T.);
#571=ORIENTED_EDGE('',*,*,#430,.T.);
#572=ORIENTED_EDGE('',*,*,#425,.F.);
#573=ORIENTED_EDGE('',*,*,#431,.F.);
#574=ORIENTED_EDGE('',*,*,#432,.T.);
#575=ORIENTED_EDGE('',*,*,#433,.T.);
#576=ORIENTED_EDGE('',*,*,#429,.F.);
#577=ORIENTED_EDGE('',*,*,#434,.F.);
#578=ORIENTED_EDGE('',*,*,#427,.T.);
#579=ORIENTED_EDGE('',*,*,#435,.T.);
#580=ORIENTED_EDGE('',*,*,#432,.F.);
#581=ORIENTED_EDGE('',*,*,#436,.F.);
#582=ORIENTED_EDGE('',*,*,#437,.F.);
#583=ORIENTED_EDGE('',*,*,#438,.F.);
#584=ORIENTED_EDGE('',*,*,#439,.F.);
#585=ORIENTED_EDGE('',*,*,#435,.F.);
#586=ORIENTED_EDGE('',*,*,#426,.F.);
#587=ORIENTED_EDGE('',*,*,#430,.F.);
#588=ORIENTED_EDGE('',*,*,#433,.F.);
#589=ORIENTED_EDGE('',*,*,#438,.T.);
#590=ORIENTED_EDGE('',*,*,#440,.T.);
#591=ORIENTED_EDGE('',*,*,#441,.F.);
#592=ORIENTED_EDGE('',*,*,#442,.F.);
#593=ORIENTED_EDGE('',*,*,#437,.T.);
#594=ORIENTED_EDGE('',*,*,#443,.T.);
#595=ORIENTED_EDGE('',*,*,#444,.F.);
#596=ORIENTED_EDGE('',*,*,#440,.F.);
#597=ORIENTED_EDGE('',*,*,#445,.F.);
#598=ORIENTED_EDGE('',*,*,#446,.F.);
#599=ORIENTED_EDGE('',*,*,#447,.F.);
#600=ORIENTED_EDGE('',*,*,#448,.F.);
#601=ORIENTED_EDGE('',*,*,#447,.T.);
#602=ORIENTED_EDGE('',*,*,#449,.T.);
#603=ORIENTED_EDGE('',*,*,#450,.F.);
#604=ORIENTED_EDGE('',*,*,#451,.F.);
#605=ORIENTED_EDGE('',*,*,#446,.T.);
#606=ORIENTED_EDGE('',*,*,#452,.T.);
#607=ORIENTED_EDGE('',*,*,#453,.F.);
#608=ORIENTED_EDGE('',*,*,#449,.F.);
#609=ORIENTED_EDGE('',*,*,#448,.T.);
#610=ORIENTED_EDGE('',*,*,#451,.T.);
#611=ORIENTED_EDGE('',*,*,#454,.F.);
#612=ORIENTED_EDGE('',*,*,#455,.F.);
#613=ORIENTED_EDGE('',*,*,#445,.T.);
#614=ORIENTED_EDGE('',*,*,#455,.T.);
#615=ORIENTED_EDGE('',*,*,#456,.F.);
#616=ORIENTED_EDGE('',*,*,#452,.F.);
#617=ORIENTED_EDGE('',*,*,#436,.T.);
#618=ORIENTED_EDGE('',*,*,#457,.T.);
#619=ORIENTED_EDGE('',*,*,#458,.F.);
#620=ORIENTED_EDGE('',*,*,#443,.F.);
#621=ORIENTED_EDGE('',*,*,#439,.T.);
#622=ORIENTED_EDGE('',*,*,#442,.T.);
#623=ORIENTED_EDGE('',*,*,#459,.F.);
#624=ORIENTED_EDGE('',*,*,#457,.F.);
#625=ORIENTED_EDGE('',*,*,#459,.T.);
#626=ORIENTED_EDGE('',*,*,#441,.T.);
#627=ORIENTED_EDGE('',*,*,#444,.T.);
#628=ORIENTED_EDGE('',*,*,#458,.T.);
#629=ORIENTED_EDGE('',*,*,#456,.T.);
#630=ORIENTED_EDGE('',*,*,#454,.T.);
#631=ORIENTED_EDGE('',*,*,#450,.T.);
#632=ORIENTED_EDGE('',*,*,#453,.T.);
#633=ORIENTED_EDGE('',*,*,#424,.T.);
#634=ORIENTED_EDGE('',*,*,#434,.T.);
#635=ORIENTED_EDGE('',*,*,#431,.T.);
#636=ORIENTED_EDGE('',*,*,#428,.T.);
#637=ORIENTED_EDGE('',*,*,#423,.T.);
#638=ORIENTED_EDGE('',*,*,#421,.T.);
#639=ORIENTED_EDGE('',*,*,#419,.T.);
#640=ORIENTED_EDGE('',*,*,#417,.T.);
#641=ORIENTED_EDGE('',*,*,#415,.T.);
#642=ORIENTED_EDGE('',*,*,#413,.T.);
#643=ORIENTED_EDGE('',*,*,#411,.T.);
#644=ORIENTED_EDGE('',*,*,#409,.T.);
#645=ORIENTED_EDGE('',*,*,#407,.T.);
#646=ORIENTED_EDGE('',*,*,#405,.T.);
#647=ORIENTED_EDGE('',*,*,#382,.T.);
#648=ORIENTED_EDGE('',*,*,#385,.T.);
#649=ORIENTED_EDGE('',*,*,#387,.T.);
#650=ORIENTED_EDGE('',*,*,#389,.T.);
#651=ORIENTED_EDGE('',*,*,#391,.T.);
#652=ORIENTED_EDGE('',*,*,#393,.T.);
#653=ORIENTED_EDGE('',*,*,#395,.T.);
#654=ORIENTED_EDGE('',*,*,#397,.T.);
#655=ORIENTED_EDGE('',*,*,#399,.T.);
#656=ORIENTED_EDGE('',*,*,#401,.T.);
#657=ORIENTED_EDGE('',*,*,#403,.T.);
#658=PLANE('',#742);
#659=PLANE('',#743);
#660=PLANE('',#744);
#661=PLANE('',#745);
#662=PLANE('',#746);
#663=PLANE('',#747);
#664=PLANE('',#748);
#665=PLANE('',#749);
#666=PLANE('',#750);
#667=PLANE('',#751);
#668=PLANE('',#752);
#669=PLANE('',#753);
#670=PLANE('',#754);
#671=PLANE('',#755);
#672=PLANE('',#756);
#673=PLANE('',#757);
#674=PLANE('',#758);
#675=PLANE('',#759);
#676=PLANE('',#760);
#677=PLANE('',#761);
#678=PLANE('',#762);
#679=PLANE('',#763);
#680=PLANE('',#764);
#681=PLANE('',#765);
#682=PLANE('',#766);
#683=PLANE('',#767);
#684=PLANE('',#768);
#685=PLANE('',#769);
#686=PLANE('',#770);
#687=PLANE('',#771);
#688=ADVANCED_FACE('',(#42),#658,.F.);
#689=ADVANCED_FACE('',(#43),#34,.F.);
#690=ADVANCED_FACE('',(#44),#35,.F.);
#691=ADVANCED_FACE('',(#45),#36,.F.);
#692=ADVANCED_FACE('',(#46),#37,.F.);
#693=ADVANCED_FACE('',(#47),#659,.F.);
#694=ADVANCED_FACE('',(#48),#660,.F.);
#695=ADVANCED_FACE('',(#49),#661,.F.);
#696=ADVANCED_FACE('',(#50),#662,.F.);
#697=ADVANCED_FACE('',(#51),#663,.F.);
#698=ADVANCED_FACE('',(#52),#664,.F.);
#699=ADVANCED_FACE('',(#53),#665,.F.);
#700=ADVANCED_FACE('',(#54),#38,.F.);
#701=ADVANCED_FACE('',(#55),#39,.F.);
#702=ADVANCED_FACE('',(#56),#40,.F.);
#703=ADVANCED_FACE('',(#57),#41,.F.);
#704=ADVANCED_FACE('',(#58),#666,.F.);
#705=ADVANCED_FACE('',(#59),#667,.F.);
#706=ADVANCED_FACE('',(#60),#668,.F.);
#707=ADVANCED_FACE('',(#61),#669,.F.);
#708=ADVANCED_FACE('',(#62),#670,.F.);
#709=ADVANCED_FACE('',(#63),#671,.F.);
#710=ADVANCED_FACE('',(#64),#672,.F.);
#711=ADVANCED_FACE('',(#65),#673,.F.);
#712=ADVANCED_FACE('',(#66),#674,.F.);
#713=ADVANCED_FACE('',(#67),#675,.F.);
#714=ADVANCED_FACE('',(#68,#23),#676,.F.);
#715=ADVANCED_FACE('',(#69),#677,.T.);
#716=ADVANCED_FACE('',(#70),#678,.T.);
#717=ADVANCED_FACE('',(#71),#679,.T.);
#718=ADVANCED_FACE('',(#72),#680,.T.);
#719=ADVANCED_FACE('',(#73),#681,.T.);
#720=ADVANCED_FACE('',(#74),#682,.T.);
#721=ADVANCED_FACE('',(#75),#683,.T.);
#722=ADVANCED_FACE('',(#76),#684,.T.);
#723=ADVANCED_FACE('',(#77),#685,.T.);
#724=ADVANCED_FACE('',(#78,#24),#686,.T.);
#725=ADVANCED_FACE('',(#79,#25),#687,.F.);
#726=CLOSED_SHELL('',(#688,#689,#690,#691,#692,#693,#694,#695,#696,#697,
#698,#699,#700,#701,#702,#703,#704,#705,#706,#707,#708,#709,#710,#711,#712,
#713,#714,#715,#716,#717,#718,#719,#720,#721,#722,#723,#724,#725));
#727=DERIVED_UNIT_ELEMENT(#729,1.);
#728=DERIVED_UNIT_ELEMENT(#1248,-3.);
#729=(
MASS_UNIT()
NAMED_UNIT(*)
SI_UNIT(.KILO.,.GRAM.)
);
#730=DERIVED_UNIT((#727,#728));
#731=MEASURE_REPRESENTATION_ITEM('density measure',
POSITIVE_RATIO_MEASURE(7850.),#730);
#732=PROPERTY_DEFINITION_REPRESENTATION(#737,#734);
#733=PROPERTY_DEFINITION_REPRESENTATION(#738,#735);
#734=REPRESENTATION('material name',(#736),#1245);
#735=REPRESENTATION('density',(#731),#1245);
#736=DESCRIPTIVE_REPRESENTATION_ITEM('Steel','Steel');
#737=PROPERTY_DEFINITION('material property','material name',#1265);
#738=PROPERTY_DEFINITION('material property','density of part',#1265);
#739=AXIS2_PLACEMENT_3D('',#927,#774,#775);
#740=AXIS2_PLACEMENT_3D('',#928,#776,#777);
#741=AXIS2_PLACEMENT_3D('',#929,#778,#779);
#742=AXIS2_PLACEMENT_3D('',#930,#780,#781);
#743=AXIS2_PLACEMENT_3D('',#1055,#800,#801);
#744=AXIS2_PLACEMENT_3D('',#1059,#804,#805);
#745=AXIS2_PLACEMENT_3D('',#1063,#808,#809);
#746=AXIS2_PLACEMENT_3D('',#1067,#812,#813);
#747=AXIS2_PLACEMENT_3D('',#1071,#816,#817);
#748=AXIS2_PLACEMENT_3D('',#1075,#820,#821);
#749=AXIS2_PLACEMENT_3D('',#1079,#824,#825);
#750=AXIS2_PLACEMENT_3D('',#1139,#832,#833);
#751=AXIS2_PLACEMENT_3D('',#1143,#836,#837);
#752=AXIS2_PLACEMENT_3D('',#1147,#840,#841);
#753=AXIS2_PLACEMENT_3D('',#1151,#844,#845);
#754=AXIS2_PLACEMENT_3D('',#1155,#848,#849);
#755=AXIS2_PLACEMENT_3D('',#1159,#852,#853);
#756=AXIS2_PLACEMENT_3D('',#1161,#855,#856);
#757=AXIS2_PLACEMENT_3D('',#1170,#861,#862);
#758=AXIS2_PLACEMENT_3D('',#1176,#866,#867);
#759=AXIS2_PLACEMENT_3D('',#1182,#871,#872);
#760=AXIS2_PLACEMENT_3D('',#1185,#875,#876);
#761=AXIS2_PLACEMENT_3D('',#1194,#881,#882);
#762=AXIS2_PLACEMENT_3D('',#1200,#886,#887);
#763=AXIS2_PLACEMENT_3D('',#1204,#890,#891);
#764=AXIS2_PLACEMENT_3D('',#1213,#896,#897);
#765=AXIS2_PLACEMENT_3D('',#1219,#901,#902);
#766=AXIS2_PLACEMENT_3D('',#1223,#905,#906);
#767=AXIS2_PLACEMENT_3D('',#1227,#909,#910);
#768=AXIS2_PLACEMENT_3D('',#1229,#912,#913);
#769=AXIS2_PLACEMENT_3D('',#1233,#916,#917);
#770=AXIS2_PLACEMENT_3D('',#1235,#919,#920);
#771=AXIS2_PLACEMENT_3D('',#1236,#921,#922);
#772=AXIS2_PLACEMENT_3D('',#1237,#923,#924);
#773=AXIS2_PLACEMENT_3D('',#1238,#925,#926);
#774=DIRECTION('axis',(0.,0.,1.));
#775=DIRECTION('refdir',(1.,0.,0.));
#776=DIRECTION('axis',(0.,0.,1.));
#777=DIRECTION('refdir',(1.,0.,0.));
#778=DIRECTION('axis',(0.,0.,1.));
#779=DIRECTION('refdir',(1.,0.,0.));
#780=DIRECTION('center_axis',(0.,0.,1.));
#781=DIRECTION('ref_axis',(1.,0.,0.));
#782=DIRECTION('',(1.,0.,0.));
#783=DIRECTION('',(0.999999999832918,1.82801578050875E-5,0.));
#784=DIRECTION('',(0.,1.,0.));
#785=DIRECTION('',(-1.,0.,0.));
#786=DIRECTION('',(0.,1.,0.));
#787=DIRECTION('',(0.912916854603063,0.408145582582551,0.));
#788=DIRECTION('',(0.488743938582247,-0.872427282069464,0.));
#789=DIRECTION('',(0.488742708630636,0.872427971101563,0.));
#790=DIRECTION('',(0.912922273594499,-0.408133461474369,0.));
#791=DIRECTION('',(0.,-1.,0.));
#792=DIRECTION('',(-1.,-3.02172063390093E-16,0.));
#793=DIRECTION('',(0.,-1.,0.));
#794=DIRECTION('',(0.999999999832953,-1.82782465724076E-5,0.));
#795=DIRECTION('',(0.,0.,1.));
#796=DIRECTION('',(0.,0.,1.));
#797=DIRECTION('',(0.,0.,1.));
#798=DIRECTION('',(0.,0.,1.));
#799=DIRECTION('',(0.,0.,1.));
#800=DIRECTION('center_axis',(-0.872427282069464,-0.488743938582247,0.));
#801=DIRECTION('ref_axis',(0.488743938582247,-0.872427282069464,0.));
#802=DIRECTION('',(0.488743938582247,-0.872427282069464,0.));
#803=DIRECTION('',(0.,0.,1.));
#804=DIRECTION('center_axis',(0.408145582582552,-0.912916854603063,0.));
#805=DIRECTION('ref_axis',(0.912916854603063,0.408145582582551,0.));
#806=DIRECTION('',(0.912916854603063,0.408145582582551,0.));
#807=DIRECTION('',(0.,0.,1.));
#808=DIRECTION('center_axis',(1.,0.,0.));
#809=DIRECTION('ref_axis',(0.,1.,0.));
#810=DIRECTION('',(0.,1.,0.));
#811=DIRECTION('',(0.,0.,1.));
#812=DIRECTION('center_axis',(0.,1.,0.));
#813=DIRECTION('ref_axis',(-1.,0.,0.));
#814=DIRECTION('',(-1.,0.,0.));
#815=DIRECTION('',(0.,0.,1.));
#816=DIRECTION('center_axis',(1.,0.,0.));
#817=DIRECTION('ref_axis',(0.,1.,0.));
#818=DIRECTION('',(0.,1.,0.));
#819=DIRECTION('',(0.,0.,1.));
#820=DIRECTION('center_axis',(1.82801578050875E-5,-0.999999999832918,0.));
#821=DIRECTION('ref_axis',(0.999999999832918,1.82801578050875E-5,0.));
#822=DIRECTION('',(0.999999999832918,1.82801578050875E-5,0.));
#823=DIRECTION('',(0.,0.,1.));
#824=DIRECTION('center_axis',(0.,-1.,0.));
#825=DIRECTION('ref_axis',(1.,0.,0.));
#826=DIRECTION('',(1.,0.,0.));
#827=DIRECTION('',(0.,0.,1.));
#828=DIRECTION('',(0.,0.,1.));
#829=DIRECTION('',(0.,0.,1.));
#830=DIRECTION('',(0.,0.,1.));
#831=DIRECTION('',(0.,0.,1.));
#832=DIRECTION('center_axis',(0.872427971101563,-0.488742708630636,0.));
#833=DIRECTION('ref_axis',(0.488742708630636,0.872427971101563,0.));
#834=DIRECTION('',(0.488742708630636,0.872427971101563,0.));
#835=DIRECTION('',(0.,0.,1.));
#836=DIRECTION('center_axis',(-0.408133461474369,-0.912922273594499,0.));
#837=DIRECTION('ref_axis',(0.912922273594499,-0.408133461474369,0.));
#838=DIRECTION('',(0.912922273594499,-0.408133461474369,0.));
#839=DIRECTION('',(0.,0.,1.));
#840=DIRECTION('center_axis',(-1.,0.,0.));
#841=DIRECTION('ref_axis',(0.,-1.,0.));
#842=DIRECTION('',(0.,-1.,0.));
#843=DIRECTION('',(0.,0.,1.));
#844=DIRECTION('center_axis',(-3.02172063390093E-16,1.,0.));
#845=DIRECTION('ref_axis',(-1.,-3.02172063390093E-16,0.));
#846=DIRECTION('',(-1.,-3.02172063390093E-16,0.));
#847=DIRECTION('',(0.,0.,1.));
#848=DIRECTION('center_axis',(-1.,0.,0.));
#849=DIRECTION('ref_axis',(0.,-1.,0.));
#850=DIRECTION('',(0.,-1.,0.));
#851=DIRECTION('',(0.,0.,1.));
#852=DIRECTION('center_axis',(-1.82782465724076E-5,-0.999999999832953,0.));
#853=DIRECTION('ref_axis',(0.999999999832953,-1.82782465724076E-5,0.));
#854=DIRECTION('',(0.999999999832953,-1.82782465724076E-5,0.));
#855=DIRECTION('center_axis',(0.,1.,0.));
#856=DIRECTION('ref_axis',(-1.,0.,0.));
#857=DIRECTION('',(-1.,0.,0.));
#858=DIRECTION('',(0.,0.,1.));
#859=DIRECTION('',(-1.,0.,0.));
#860=DIRECTION('',(0.,0.,1.));
#861=DIRECTION('center_axis',(-1.,0.,0.));
#862=DIRECTION('ref_axis',(0.,-1.,0.));
#863=DIRECTION('',(0.,-1.,0.));
#864=DIRECTION('',(0.,0.,1.));
#865=DIRECTION('',(0.,-1.,0.));
#866=DIRECTION('center_axis',(0.,-1.,0.));
#867=DIRECTION('ref_axis',(1.,0.,0.));
#868=DIRECTION('',(1.,0.,0.));
#869=DIRECTION('',(0.,0.,1.));
#870=DIRECTION('',(1.,0.,0.));
#871=DIRECTION('center_axis',(1.,0.,0.));
#872=DIRECTION('ref_axis',(0.,1.,0.));
#873=DIRECTION('',(0.,1.,0.));
#874=DIRECTION('',(0.,1.,0.));
#875=DIRECTION('center_axis',(0.,0.,1.));
#876=DIRECTION('ref_axis',(1.,0.,0.));
#877=DIRECTION('',(-1.,0.,0.));
#878=DIRECTION('',(0.,1.,0.));
#879=DIRECTION('',(1.,0.,0.));
#880=DIRECTION('',(0.,-1.,0.));
#881=DIRECTION('center_axis',(0.,-1.,0.));
#882=DIRECTION('ref_axis',(1.,0.,0.));
#883=DIRECTION('',(0.,0.,1.));
#884=DIRECTION('',(-1.,0.,0.));
#885=DIRECTION('',(0.,0.,-1.));
#886=DIRECTION('center_axis',(1.,0.,0.));
#887=DIRECTION('ref_axis',(0.,1.,0.));
#888=DIRECTION('',(0.,0.,1.));
#889=DIRECTION('',(0.,-1.,0.));
#890=DIRECTION('center_axis',(0.,0.,1.));
#891=DIRECTION('ref_axis',(1.,0.,0.));
#892=DIRECTION('',(0.,1.,0.));
#893=DIRECTION('',(-1.,0.,0.));
#894=DIRECTION('',(0.,-1.,0.));
#895=DIRECTION('',(1.,0.,0.));
#896=DIRECTION('center_axis',(-1.,0.,0.));
#897=DIRECTION('ref_axis',(0.,-1.,0.));
#898=DIRECTION('',(0.,0.,1.));
#899=DIRECTION('',(0.,-1.,0.));
#900=DIRECTION('',(0.,0.,1.));
#901=DIRECTION('center_axis',(0.,1.,0.));
#902=DIRECTION('ref_axis',(-1.,0.,0.));
#903=DIRECTION('',(0.,0.,1.));
#904=DIRECTION('',(-1.,0.,0.));
#905=DIRECTION('center_axis',(0.,-1.,0.));
#906=DIRECTION('ref_axis',(1.,0.,0.));
#907=DIRECTION('',(1.,0.,0.));
#908=DIRECTION('',(0.,0.,1.));
#909=DIRECTION('center_axis',(1.,0.,0.));
#910=DIRECTION('ref_axis',(0.,1.,0.));
#911=DIRECTION('',(0.,1.,0.));
#912=DIRECTION('center_axis',(0.,1.,0.));
#913=DIRECTION('ref_axis',(-1.,0.,0.));
#914=DIRECTION('',(0.,0.,1.));
#915=DIRECTION('',(1.,0.,0.));
#916=DIRECTION('center_axis',(-1.,0.,0.));
#917=DIRECTION('ref_axis',(0.,-1.,0.));
#918=DIRECTION('',(0.,1.,0.));
#919=DIRECTION('center_axis',(0.,0.,1.));
#920=DIRECTION('ref_axis',(1.,0.,0.));
#921=DIRECTION('center_axis',(0.,0.,1.));
#922=DIRECTION('ref_axis',(1.,0.,0.));
#923=DIRECTION('',(0.,0.,1.));
#924=DIRECTION('',(1.,0.,0.));
#925=DIRECTION('',(0.,0.,1.));
#926=DIRECTION('',(1.,0.,0.));
#927=CARTESIAN_POINT('',(0.,0.,0.));
#928=CARTESIAN_POINT('',(0.,0.,0.));
#929=CARTESIAN_POINT('',(0.,0.,0.));
#930=CARTESIAN_POINT('Origin',(25.0001903532032,23.7153122389068,0.05));
#931=CARTESIAN_POINT('',(24.4212073536571,25.0000116774701,0.05));
#932=CARTESIAN_POINT('',(25.5788406432769,25.000049393167,0.05));
#933=CARTESIAN_POINT('',(28.919601093539,25.,0.05));
#934=CARTESIAN_POINT('',(21.0807481351578,25.,0.05));
#935=CARTESIAN_POINT('',(21.0807481351578,25.,0.05));
#936=CARTESIAN_POINT('',(21.0807481351578,24.2841017564138,0.05));
#937=CARTESIAN_POINT('',(21.0807481351578,24.2841017564138,0.05));
#938=CARTESIAN_POINT('',(24.7548899241371,24.2841017564138,0.05));
#939=CARTESIAN_POINT('',(24.7548899241371,24.2841017564138,0.05));
#940=CARTESIAN_POINT('',(24.7548899241371,17.2235038797061,0.05));
#941=CARTESIAN_POINT('',(24.7548899241371,17.2235038797061,0.05));
#942=CARTESIAN_POINT('',(23.5019504137917,16.6633414467176,0.05));
#943=CARTESIAN_POINT('',(23.5019504137917,16.6633414467176,0.05));
#944=CARTESIAN_POINT('',(20.2677154201352,22.4365789691607,0.05));
#945=CARTESIAN_POINT('',(20.2677154201352,22.4365789691607,0.05));
#946=CARTESIAN_POINT('',(21.1945719746832,28.4495209534963,0.05));
#947=CARTESIAN_POINT('Ctrl Pts',(21.1945719746832,28.4495209534963,0.05));
#948=CARTESIAN_POINT('Ctrl Pts',(20.0148478506092,26.854596755902,0.05));
#949=CARTESIAN_POINT('Ctrl Pts',(19.9680800485694,24.713367887338,0.05));
#950=CARTESIAN_POINT('Ctrl Pts',(20.2677154201352,22.4365789691607,0.05));
#951=CARTESIAN_POINT('',(20.3746916908109,30.5687710632881,0.05));
#952=CARTESIAN_POINT('Ctrl Pts',(20.3746916908109,30.5687710632881,0.05));
#953=CARTESIAN_POINT('Ctrl Pts',(20.8801305356705,29.7981043805679,0.05));
#954=CARTESIAN_POINT('Ctrl Pts',(20.8039305704915,29.1517568618059,0.05));
#955=CARTESIAN_POINT('Ctrl Pts',(21.1945719746832,28.4495209534963,0.05));
#956=CARTESIAN_POINT('',(22.4297633556608,29.7425916418433,0.05));
#957=CARTESIAN_POINT('Ctrl Pts',(22.4297633556608,29.7425916418433,0.05));
#958=CARTESIAN_POINT('Ctrl Pts',(21.8253809857451,30.3422422622641,0.05));
#959=CARTESIAN_POINT('Ctrl Pts',(21.1987946558082,30.7672826841474,0.05));
#960=CARTESIAN_POINT('Ctrl Pts',(20.3746916908109,30.5687710632881,0.05));
#961=CARTESIAN_POINT('',(25.0001692839546,30.7380355990845,0.05));
#962=CARTESIAN_POINT('Ctrl Pts',(25.0001692839546,30.7380355990845,0.05));
#963=CARTESIAN_POINT('Ctrl Pts',(23.8914804466648,30.7108787702241,0.05));
#964=CARTESIAN_POINT('Ctrl Pts',(23.0971904683196,30.3007693074644,0.05));
#965=CARTESIAN_POINT('Ctrl Pts',(22.4297633556608,29.7425916418433,0.05));
#966=CARTESIAN_POINT('',(27.5706271914724,29.7425920203328,0.05));
#967=CARTESIAN_POINT('Ctrl Pts',(27.5706271914724,29.7425920203328,0.05));
#968=CARTESIAN_POINT('Ctrl Pts',(26.9031892287814,30.3007697174946,0.05));
#969=CARTESIAN_POINT('Ctrl Pts',(26.1088886527303,30.710882324477,0.05));
#970=CARTESIAN_POINT('Ctrl Pts',(25.0001692839546,30.7380355990845,0.05));
#971=CARTESIAN_POINT('',(29.6256989824855,30.5687714417775,0.05));
#972=CARTESIAN_POINT('Ctrl Pts',(29.6256989824855,30.5687714417775,0.05));
#973=CARTESIAN_POINT('Ctrl Pts',(28.8015850412929,30.7672830310961,0.05));
#974=CARTESIAN_POINT('Ctrl Pts',(28.1749886183027,30.342242577672,0.05));
#975=CARTESIAN_POINT('Ctrl Pts',(27.5706271914724,29.7425920203328,0.05));
#976=CARTESIAN_POINT('',(28.805797881691,28.449521458149,0.05));
#977=CARTESIAN_POINT('Ctrl Pts',(28.805797881691,28.449521458149,0.05));
#978=CARTESIAN_POINT('Ctrl Pts',(29.1964394120458,29.1517573664586,0.05));
#979=CARTESIAN_POINT('Ctrl Pts',(29.1202499814911,29.7981048852205,0.05));
#980=CARTESIAN_POINT('Ctrl Pts',(29.6256989824855,30.5687714417775,0.05));
#981=CARTESIAN_POINT('',(29.732665160108,22.4365794738134,0.05));
#982=CARTESIAN_POINT('Ctrl Pts',(29.732665160108,22.4365794738134,0.05));
#983=CARTESIAN_POINT('Ctrl Pts',(30.0323006578369,24.7133683919907,0.05));
#984=CARTESIAN_POINT('Ctrl Pts',(29.9855223842545,26.8545970082283,0.05));
#985=CARTESIAN_POINT('Ctrl Pts',(28.805797881691,28.449521458149,0.05));
#986=CARTESIAN_POINT('',(26.4984411426468,16.6633424560229,0.05));
#987=CARTESIAN_POINT('',(26.4984411426468,16.6633424560229,0.05));
#988=CARTESIAN_POINT('',(25.245459241478,17.2235038797061,0.05));
#989=CARTESIAN_POINT('',(25.245459241478,17.2235038797061,0.05));
#990=CARTESIAN_POINT('',(25.245459241478,24.2841017564138,0.05));
#991=CARTESIAN_POINT('',(25.245459241478,24.2841017564138,0.05));
#992=CARTESIAN_POINT('',(28.919601093539,24.2841017564138,0.05));
#993=CARTESIAN_POINT('',(28.919601093539,24.2841017564138,0.05));
#994=CARTESIAN_POINT('',(28.919601093539,25.,0.05));
#995=CARTESIAN_POINT('',(28.919601093539,25.,0.05));
#996=CARTESIAN_POINT('',(25.578855497448,25.0000610629718,0.05));
#997=CARTESIAN_POINT('Ctrl Pts',(25.0001692839546,30.7380355990845,0.));
#998=CARTESIAN_POINT('Ctrl Pts',(25.0001692839546,30.7380355990845,0.05));
#999=CARTESIAN_POINT('Ctrl Pts',(23.8914804466648,30.7108787702241,0.));
#1000=CARTESIAN_POINT('Ctrl Pts',(23.8914804466648,30.7108787702241,0.05));
#1001=CARTESIAN_POINT('Ctrl Pts',(23.0971904683196,30.3007693074644,0.));
#1002=CARTESIAN_POINT('Ctrl Pts',(23.0971904683196,30.3007693074644,0.05));
#1003=CARTESIAN_POINT('Ctrl Pts',(22.4297633556608,29.7425916418433,0.));
#1004=CARTESIAN_POINT('Ctrl Pts',(22.4297633556608,29.7425916418433,0.05));
#1005=CARTESIAN_POINT('',(25.0001692839546,30.7380355990845,0.));
#1006=CARTESIAN_POINT('',(22.4297633556608,29.7425916418433,0.));
#1007=CARTESIAN_POINT('Ctrl Pts',(25.0001692839546,30.7380355990845,0.));
#1008=CARTESIAN_POINT('Ctrl Pts',(23.8914804466648,30.7108787702241,0.));
#1009=CARTESIAN_POINT('Ctrl Pts',(23.0971904683196,30.3007693074644,0.));
#1010=CARTESIAN_POINT('Ctrl Pts',(22.4297633556608,29.7425916418433,0.));
#1011=CARTESIAN_POINT('',(25.0001692839546,30.7380355990845,-0.03));
#1012=CARTESIAN_POINT('',(22.4297633556608,29.7425916418433,-0.03));
#1013=CARTESIAN_POINT('Ctrl Pts',(22.4297633556608,29.7425916418433,0.));
#1014=CARTESIAN_POINT('Ctrl Pts',(22.4297633556608,29.7425916418433,0.05));
#1015=CARTESIAN_POINT('Ctrl Pts',(21.8253809857451,30.3422422622641,0.));
#1016=CARTESIAN_POINT('Ctrl Pts',(21.8253809857451,30.3422422622641,0.05));
#1017=CARTESIAN_POINT('Ctrl Pts',(21.1987946558082,30.7672826841474,0.));
#1018=CARTESIAN_POINT('Ctrl Pts',(21.1987946558082,30.7672826841474,0.05));
#1019=CARTESIAN_POINT('Ctrl Pts',(20.3746916908109,30.5687710632881,0.));
#1020=CARTESIAN_POINT('Ctrl Pts',(20.3746916908109,30.5687710632881,0.05));
#1021=CARTESIAN_POINT('',(20.3746916908109,30.5687710632881,0.));
#1022=CARTESIAN_POINT('Ctrl Pts',(22.4297633556608,29.7425916418433,0.));
#1023=CARTESIAN_POINT('Ctrl Pts',(21.8253809857451,30.3422422622641,0.));
#1024=CARTESIAN_POINT('Ctrl Pts',(21.1987946558082,30.7672826841474,0.));
#1025=CARTESIAN_POINT('Ctrl Pts',(20.3746916908109,30.5687710632881,0.));
#1026=CARTESIAN_POINT('',(20.3746916908109,30.5687710632881,-0.03));
#1027=CARTESIAN_POINT('Ctrl Pts',(20.3746916908109,30.5687710632881,0.));
#1028=CARTESIAN_POINT('Ctrl Pts',(20.3746916908109,30.5687710632881,0.05));
#1029=CARTESIAN_POINT('Ctrl Pts',(20.8801305356705,29.7981043805679,0.));
#1030=CARTESIAN_POINT('Ctrl Pts',(20.8801305356705,29.7981043805679,0.05));
#1031=CARTESIAN_POINT('Ctrl Pts',(20.8039305704915,29.1517568618059,0.));
#1032=CARTESIAN_POINT('Ctrl Pts',(20.8039305704915,29.1517568618059,0.05));
#1033=CARTESIAN_POINT('Ctrl Pts',(21.1945719746832,28.4495209534963,0.));
#1034=CARTESIAN_POINT('Ctrl Pts',(21.1945719746832,28.4495209534963,0.05));
#1035=CARTESIAN_POINT('',(21.1945719746832,28.4495209534963,0.));
#1036=CARTESIAN_POINT('Ctrl Pts',(20.3746916908109,30.5687710632881,0.));
#1037=CARTESIAN_POINT('Ctrl Pts',(20.8801305356705,29.7981043805679,0.));
#1038=CARTESIAN_POINT('Ctrl Pts',(20.8039305704915,29.1517568618059,0.));
#1039=CARTESIAN_POINT('Ctrl Pts',(21.1945719746832,28.4495209534963,0.));
#1040=CARTESIAN_POINT('',(21.1945719746832,28.4495209534963,-0.03));
#1041=CARTESIAN_POINT('Ctrl Pts',(21.1945719746832,28.4495209534963,0.));
#1042=CARTESIAN_POINT('Ctrl Pts',(21.1945719746832,28.4495209534963,0.05));
#1043=CARTESIAN_POINT('Ctrl Pts',(20.0148478506092,26.854596755902,0.));
#1044=CARTESIAN_POINT('Ctrl Pts',(20.0148478506092,26.854596755902,0.05));
#1045=CARTESIAN_POINT('Ctrl Pts',(19.9680800485694,24.713367887338,0.));
#1046=CARTESIAN_POINT('Ctrl Pts',(19.9680800485694,24.713367887338,0.05));
#1047=CARTESIAN_POINT('Ctrl Pts',(20.2677154201352,22.4365789691607,0.));
#1048=CARTESIAN_POINT('Ctrl Pts',(20.2677154201352,22.4365789691607,0.05));
#1049=CARTESIAN_POINT('',(20.2677154201352,22.4365789691607,0.));
#1050=CARTESIAN_POINT('Ctrl Pts',(21.1945719746832,28.4495209534963,0.));
#1051=CARTESIAN_POINT('Ctrl Pts',(20.0148478506092,26.854596755902,0.));
#1052=CARTESIAN_POINT('Ctrl Pts',(19.9680800485694,24.713367887338,0.));
#1053=CARTESIAN_POINT('Ctrl Pts',(20.2677154201352,22.4365789691607,0.));
#1054=CARTESIAN_POINT('',(20.2677154201352,22.4365789691607,-0.03));
#1055=CARTESIAN_POINT('Origin',(20.2677154201352,22.4365789691607,-0.03));
#1056=CARTESIAN_POINT('',(23.5019504137917,16.6633414467176,0.));
#1057=CARTESIAN_POINT('',(20.2864042457785,22.4032186754079,0.));
#1058=CARTESIAN_POINT('',(23.5019504137917,16.6633414467176,-0.03));
#1059=CARTESIAN_POINT('Origin',(23.5019504137917,16.6633414467176,-0.03));
#1060=CARTESIAN_POINT('',(24.7548899241371,17.2235038797061,0.));
#1061=CARTESIAN_POINT('',(25.6793324634021,17.6368023491668,2.16840434497101E-18));
#1062=CARTESIAN_POINT('',(24.7548899241371,17.2235038797061,-0.03));
#1063=CARTESIAN_POINT('Origin',(24.7548899241371,17.2235038797061,-0.03));
#1064=CARTESIAN_POINT('',(24.7548899241371,24.2841017564138,0.));
#1065=CARTESIAN_POINT('',(24.7548899241371,21.111751939853,0.));
#1066=CARTESIAN_POINT('',(24.7548899241371,24.2841017564138,-0.03));
#1067=CARTESIAN_POINT('Origin',(24.7548899241371,24.2841017564138,-0.03));
#1068=CARTESIAN_POINT('',(21.0807481351578,24.2841017564138,0.));
#1069=CARTESIAN_POINT('',(24.8774449620686,24.2841017564138,0.));
#1070=CARTESIAN_POINT('',(21.0807481351578,24.2841017564138,-0.03));
#1071=CARTESIAN_POINT('Origin',(21.0807481351578,24.2841017564138,-0.03));
#1072=CARTESIAN_POINT('',(21.0807481351578,25.,0.));
#1073=CARTESIAN_POINT('',(21.0807481351578,24.6420508782069,0.));
#1074=CARTESIAN_POINT('',(21.0807481351578,25.,-0.03));
#1075=CARTESIAN_POINT('Origin',(21.0807481351578,25.,-0.03));
#1076=CARTESIAN_POINT('',(24.4212073536571,25.0000116774701,-8.29356191597057E-19));
#1077=CARTESIAN_POINT('',(23.040374066924,25.0000358222713,-4.33680868994202E-18));
#1078=CARTESIAN_POINT('',(24.4212222279167,25.,-0.03));
#1079=CARTESIAN_POINT('Origin',(24.4212222279167,25.,-0.03));
#1080=CARTESIAN_POINT('',(25.5788406432769,25.000049393167,6.69796280359372E-19));
#1081=CARTESIAN_POINT('',(24.7106111139584,25.,0.));
#1082=CARTESIAN_POINT('',(25.578855497448,25.0000610629718,-0.03));
#1083=CARTESIAN_POINT('Ctrl Pts',(27.5706271914724,29.7425920203328,0.));
#1084=CARTESIAN_POINT('Ctrl Pts',(27.5706271914724,29.7425920203328,0.05));
#1085=CARTESIAN_POINT('Ctrl Pts',(26.9031892287814,30.3007697174946,0.));
#1086=CARTESIAN_POINT('Ctrl Pts',(26.9031892287814,30.3007697174946,0.05));
#1087=CARTESIAN_POINT('Ctrl Pts',(26.1088886527303,30.710882324477,0.));
#1088=CARTESIAN_POINT('Ctrl Pts',(26.1088886527303,30.710882324477,0.05));
#1089=CARTESIAN_POINT('Ctrl Pts',(25.0001692839546,30.7380355990845,0.));
#1090=CARTESIAN_POINT('Ctrl Pts',(25.0001692839546,30.7380355990845,0.05));
#1091=CARTESIAN_POINT('',(27.5706271914724,29.7425920203328,0.));
#1092=CARTESIAN_POINT('Ctrl Pts',(27.5706271914724,29.7425920203328,0.));
#1093=CARTESIAN_POINT('Ctrl Pts',(26.9031892287814,30.3007697174946,0.));
#1094=CARTESIAN_POINT('Ctrl Pts',(26.1088886527303,30.710882324477,0.));
#1095=CARTESIAN_POINT('Ctrl Pts',(25.0001692839546,30.7380355990845,0.));
#1096=CARTESIAN_POINT('',(27.5706271914724,29.7425920203328,-0.03));
#1097=CARTESIAN_POINT('Ctrl Pts',(29.6256989824855,30.5687714417775,0.));
#1098=CARTESIAN_POINT('Ctrl Pts',(29.6256989824855,30.5687714417775,0.05));
#1099=CARTESIAN_POINT('Ctrl Pts',(28.8015850412929,30.7672830310961,0.));
#1100=CARTESIAN_POINT('Ctrl Pts',(28.8015850412929,30.7672830310961,0.05));
#1101=CARTESIAN_POINT('Ctrl Pts',(28.1749886183027,30.342242577672,0.));
#1102=CARTESIAN_POINT('Ctrl Pts',(28.1749886183027,30.342242577672,0.05));
#1103=CARTESIAN_POINT('Ctrl Pts',(27.5706271914724,29.7425920203328,0.));
#1104=CARTESIAN_POINT('Ctrl Pts',(27.5706271914724,29.7425920203328,0.05));
#1105=CARTESIAN_POINT('',(29.6256989824855,30.5687714417775,0.));
#1106=CARTESIAN_POINT('Ctrl Pts',(29.6256989824855,30.5687714417775,0.));
#1107=CARTESIAN_POINT('Ctrl Pts',(28.8015850412929,30.7672830310961,0.));
#1108=CARTESIAN_POINT('Ctrl Pts',(28.1749886183027,30.342242577672,0.));
#1109=CARTESIAN_POINT('Ctrl Pts',(27.5706271914724,29.7425920203328,0.));
#1110=CARTESIAN_POINT('',(29.6256989824855,30.5687714417775,-0.03));
#1111=CARTESIAN_POINT('Ctrl Pts',(28.805797881691,28.449521458149,0.));
#1112=CARTESIAN_POINT('Ctrl Pts',(28.805797881691,28.449521458149,0.05));
#1113=CARTESIAN_POINT('Ctrl Pts',(29.1964394120458,29.1517573664586,0.));
#1114=CARTESIAN_POINT('Ctrl Pts',(29.1964394120458,29.1517573664586,0.05));
#1115=CARTESIAN_POINT('Ctrl Pts',(29.1202499814911,29.7981048852205,0.));
#1116=CARTESIAN_POINT('Ctrl Pts',(29.1202499814911,29.7981048852205,0.05));
#1117=CARTESIAN_POINT('Ctrl Pts',(29.6256989824855,30.5687714417775,0.));
#1118=CARTESIAN_POINT('Ctrl Pts',(29.6256989824855,30.5687714417775,0.05));
#1119=CARTESIAN_POINT('',(28.805797881691,28.449521458149,0.));
#1120=CARTESIAN_POINT('Ctrl Pts',(28.805797881691,28.449521458149,0.));
#1121=CARTESIAN_POINT('Ctrl Pts',(29.1964394120458,29.1517573664586,0.));
#1122=CARTESIAN_POINT('Ctrl Pts',(29.1202499814911,29.7981048852205,0.));
#1123=CARTESIAN_POINT('Ctrl Pts',(29.6256989824855,30.5687714417775,0.));
#1124=CARTESIAN_POINT('',(28.805797881691,28.449521458149,-0.03));
#1125=CARTESIAN_POINT('Ctrl Pts',(29.732665160108,22.4365794738134,0.));
#1126=CARTESIAN_POINT('Ctrl Pts',(29.732665160108,22.4365794738134,0.05));
#1127=CARTESIAN_POINT('Ctrl Pts',(30.0323006578369,24.7133683919907,0.));
#1128=CARTESIAN_POINT('Ctrl Pts',(30.0323006578369,24.7133683919907,0.05));
#1129=CARTESIAN_POINT('Ctrl Pts',(29.9855223842545,26.8545970082283,0.));
#1130=CARTESIAN_POINT('Ctrl Pts',(29.9855223842545,26.8545970082283,0.05));
#1131=CARTESIAN_POINT('Ctrl Pts',(28.805797881691,28.449521458149,0.));
#1132=CARTESIAN_POINT('Ctrl Pts',(28.805797881691,28.449521458149,0.05));
#1133=CARTESIAN_POINT('',(29.732665160108,22.4365794738134,0.));
#1134=CARTESIAN_POINT('Ctrl Pts',(29.732665160108,22.4365794738134,0.));
#1135=CARTESIAN_POINT('Ctrl Pts',(30.0323006578369,24.7133683919907,0.));
#1136=CARTESIAN_POINT('Ctrl Pts',(29.9855223842545,26.8545970082283,0.));
#1137=CARTESIAN_POINT('Ctrl Pts',(28.805797881691,28.449521458149,0.));
#1138=CARTESIAN_POINT('',(29.732665160108,22.4365794738134,-0.03));
#1139=CARTESIAN_POINT('Origin',(26.4984411426468,16.6633424560229,-0.03));
#1140=CARTESIAN_POINT('',(26.4984411426468,16.6633424560229,0.));
#1141=CARTESIAN_POINT('',(28.0968206646685,19.5165226238759,0.));
#1142=CARTESIAN_POINT('',(26.4984411426468,16.6633424560229,-0.03));
#1143=CARTESIAN_POINT('Origin',(25.245459241478,17.2235038797061,-0.03));
#1144=CARTESIAN_POINT('',(25.245459241478,17.2235038797061,0.));
#1145=CARTESIAN_POINT('',(23.6944346585456,17.9169090579712,0.));
#1146=CARTESIAN_POINT('',(25.245459241478,17.2235038797061,-0.03));
#1147=CARTESIAN_POINT('Origin',(25.245459241478,24.2841017564138,-0.03));
#1148=CARTESIAN_POINT('',(25.245459241478,24.2841017564138,0.));
#1149=CARTESIAN_POINT('',(25.245459241478,24.6420508782069,0.));
#1150=CARTESIAN_POINT('',(25.245459241478,24.2841017564138,-0.03));
#1151=CARTESIAN_POINT('Origin',(28.919601093539,24.2841017564138,-0.03));
#1152=CARTESIAN_POINT('',(28.919601093539,24.2841017564138,0.));
#1153=CARTESIAN_POINT('',(26.9598005467695,24.2841017564138,0.));
#1154=CARTESIAN_POINT('',(28.919601093539,24.2841017564138,-0.03));
#1155=CARTESIAN_POINT('Origin',(28.919601093539,25.,-0.03));
#1156=CARTESIAN_POINT('',(28.919601093539,25.,0.));
#1157=CARTESIAN_POINT('',(28.919601093539,25.,0.));
#1158=CARTESIAN_POINT('',(28.919601093539,25.,-0.03));
#1159=CARTESIAN_POINT('Origin',(25.578855497448,25.0000610629718,-0.03));
#1160=CARTESIAN_POINT('',(25.2894277493788,25.0000663532035,-2.16840434497101E-18));
#1161=CARTESIAN_POINT('Origin',(48.,2.,0.));
#1162=CARTESIAN_POINT('',(48.,2.,0.));
#1163=CARTESIAN_POINT('',(2.,2.,0.));
#1164=CARTESIAN_POINT('',(36.5,2.,0.));
#1165=CARTESIAN_POINT('',(48.,2.,0.001));
#1166=CARTESIAN_POINT('',(48.,2.,0.));
#1167=CARTESIAN_POINT('',(2.,2.,0.001));
#1168=CARTESIAN_POINT('',(2.,2.,0.001));
#1169=CARTESIAN_POINT('',(2.,2.,0.));
#1170=CARTESIAN_POINT('Origin',(48.,48.,0.));
#1171=CARTESIAN_POINT('',(48.,48.,0.));
#1172=CARTESIAN_POINT('',(48.,36.5,0.));
#1173=CARTESIAN_POINT('',(48.,48.,0.001));
#1174=CARTESIAN_POINT('',(48.,48.,0.));
#1175=CARTESIAN_POINT('',(48.,2.,0.001));
#1176=CARTESIAN_POINT('Origin',(2.,48.,0.));
#1177=CARTESIAN_POINT('',(2.,48.,0.));
#1178=CARTESIAN_POINT('',(13.5,48.,0.));
#1179=CARTESIAN_POINT('',(2.,48.,0.001));
#1180=CARTESIAN_POINT('',(2.,48.,0.));
#1181=CARTESIAN_POINT('',(48.,48.,0.001));
#1182=CARTESIAN_POINT('Origin',(2.,2.,0.));
#1183=CARTESIAN_POINT('',(2.,13.5,0.));
#1184=CARTESIAN_POINT('',(2.,48.,0.001));
#1185=CARTESIAN_POINT('Origin',(25.,25.,0.001));
#1186=CARTESIAN_POINT('',(49.5,49.5,0.001));
#1187=CARTESIAN_POINT('',(0.499999999999998,49.5,0.001));
#1188=CARTESIAN_POINT('',(37.5,49.5,0.001));
#1189=CARTESIAN_POINT('',(49.5,0.5,0.001));
#1190=CARTESIAN_POINT('',(49.5,12.5,0.001));
#1191=CARTESIAN_POINT('',(0.5,0.499999999999998,0.001));
#1192=CARTESIAN_POINT('',(12.5,0.5,0.001));
#1193=CARTESIAN_POINT('',(0.5,37.5,0.001));
#1194=CARTESIAN_POINT('Origin',(0.,0.5,0.));
#1195=CARTESIAN_POINT('',(49.5,0.499999999999999,3.));
#1196=CARTESIAN_POINT('',(49.5,0.5,0.));
#1197=CARTESIAN_POINT('',(0.499999999999999,0.499999999999999,3.));
#1198=CARTESIAN_POINT('',(12.5,0.499999999999998,3.));
#1199=CARTESIAN_POINT('',(0.5,0.499999999999998,0.));
#1200=CARTESIAN_POINT('Origin',(49.5,0.,0.));
#1201=CARTESIAN_POINT('',(49.5,49.5,3.));
#1202=CARTESIAN_POINT('',(49.5,49.5,0.));
#1203=CARTESIAN_POINT('',(49.5,12.5,3.));
#1204=CARTESIAN_POINT('Origin',(25.,25.,2.));
#1205=CARTESIAN_POINT('',(2.,2.,2.));
#1206=CARTESIAN_POINT('',(2.,48.,2.));
#1207=CARTESIAN_POINT('',(2.,13.5,2.));
#1208=CARTESIAN_POINT('',(48.,2.,2.));
#1209=CARTESIAN_POINT('',(36.5,2.,2.));
#1210=CARTESIAN_POINT('',(48.,48.,2.));
#1211=CARTESIAN_POINT('',(48.,36.5,2.));
#1212=CARTESIAN_POINT('',(13.5,48.,2.));
#1213=CARTESIAN_POINT('Origin',(48.,48.,0.));
#1214=CARTESIAN_POINT('',(48.,2.,3.));
#1215=CARTESIAN_POINT('',(48.,2.,0.));
#1216=CARTESIAN_POINT('',(48.,48.,3.));
#1217=CARTESIAN_POINT('',(48.,2.,3.));
#1218=CARTESIAN_POINT('',(48.,48.,0.));
#1219=CARTESIAN_POINT('Origin',(48.,2.,0.));
#1220=CARTESIAN_POINT('',(2.,2.,3.));
#1221=CARTESIAN_POINT('',(2.,2.,0.));
#1222=CARTESIAN_POINT('',(2.,2.,3.));
#1223=CARTESIAN_POINT('Origin',(2.,48.,0.));
#1224=CARTESIAN_POINT('',(2.,48.,3.));
#1225=CARTESIAN_POINT('',(48.,48.,3.));
#1226=CARTESIAN_POINT('',(2.,48.,0.));
#1227=CARTESIAN_POINT('Origin',(2.,2.,0.));
#1228=CARTESIAN_POINT('',(2.,48.,3.));
#1229=CARTESIAN_POINT('Origin',(50.,49.5,0.));
#1230=CARTESIAN_POINT('',(0.499999999999999,49.5,3.));
#1231=CARTESIAN_POINT('',(0.499999999999998,49.5,0.));
#1232=CARTESIAN_POINT('',(37.5,49.5,3.));
#1233=CARTESIAN_POINT('Origin',(0.5,50.,0.));
#1234=CARTESIAN_POINT('',(0.499999999999998,37.5,3.));
#1235=CARTESIAN_POINT('Origin',(25.,25.,3.));
#1236=CARTESIAN_POINT('Origin',(25.,25.,0.));
#1237=CARTESIAN_POINT('',(0.,0.,0.));
#1238=CARTESIAN_POINT('',(0.,0.,0.));
#1239=UNCERTAINTY_MEASURE_WITH_UNIT(LENGTH_MEASURE(0.01),#1247,
'DISTANCE_ACCURACY_VALUE',
'Maximum model space distance between geometric entities at asserted c
onnectivities');
#1240=UNCERTAINTY_MEASURE_WITH_UNIT(LENGTH_MEASURE(0.01),#1247,
'DISTANCE_ACCURACY_VALUE',
'Maximum model space distance between geometric entities at asserted c
onnectivities');
#1241=UNCERTAINTY_MEASURE_WITH_UNIT(LENGTH_MEASURE(0.01),#1247,
'DISTANCE_ACCURACY_VALUE',
'Maximum model space distance between geometric entities at asserted c
onnectivities');
#1242=UNCERTAINTY_MEASURE_WITH_UNIT(LENGTH_MEASURE(0.01),#1247,
'DISTANCE_ACCURACY_VALUE',
'Maximum model space distance between geometric entities at asserted c
onnectivities');
#1243=(
GEOMETRIC_REPRESENTATION_CONTEXT(3)
GLOBAL_UNCERTAINTY_ASSIGNED_CONTEXT((#1239))
GLOBAL_UNIT_ASSIGNED_CONTEXT((#1247,#1249,#1250))
REPRESENTATION_CONTEXT('','3D')
);
#1244=(
GEOMETRIC_REPRESENTATION_CONTEXT(3)
GLOBAL_UNCERTAINTY_ASSIGNED_CONTEXT((#1240))
GLOBAL_UNIT_ASSIGNED_CONTEXT((#1247,#1249,#1250))
REPRESENTATION_CONTEXT('','3D')
);
#1245=(
GEOMETRIC_REPRESENTATION_CONTEXT(3)
GLOBAL_UNCERTAINTY_ASSIGNED_CONTEXT((#1241))
GLOBAL_UNIT_ASSIGNED_CONTEXT((#1247,#1249,#1250))
REPRESENTATION_CONTEXT('','3D')
);
#1246=(
GEOMETRIC_REPRESENTATION_CONTEXT(3)
GLOBAL_UNCERTAINTY_ASSIGNED_CONTEXT((#1242))
GLOBAL_UNIT_ASSIGNED_CONTEXT((#1247,#1249,#1250))
REPRESENTATION_CONTEXT('','3D')
);
#1247=(
LENGTH_UNIT()
NAMED_UNIT(*)
SI_UNIT(.MILLI.,.METRE.)
);
#1248=(
LENGTH_UNIT()
NAMED_UNIT(*)
SI_UNIT($,.METRE.)
);
#1249=(
NAMED_UNIT(*)
PLANE_ANGLE_UNIT()
SI_UNIT($,.RADIAN.)
);
#1250=(
NAMED_UNIT(*)
SI_UNIT($,.STERADIAN.)
SOLID_ANGLE_UNIT()
);
#1251=SHAPE_DEFINITION_REPRESENTATION(#1254,#1259);
#1252=SHAPE_DEFINITION_REPRESENTATION(#1255,#1260);
#1253=SHAPE_DEFINITION_REPRESENTATION(#1256,#1261);
#1254=PRODUCT_DEFINITION_SHAPE('',$,#1263);
#1255=PRODUCT_DEFINITION_SHAPE('',$,#1264);
#1256=PRODUCT_DEFINITION_SHAPE('',$,#1265);
#1257=PRODUCT_DEFINITION_SHAPE($,$,#17);
#1258=PRODUCT_DEFINITION_SHAPE($,$,#18);
#1259=SHAPE_REPRESENTATION('',(#739,#773),#1243);
#1260=SHAPE_REPRESENTATION('',(#740,#772),#1244);
#1261=SHAPE_REPRESENTATION('',(#741),#1245);
#1262=PRODUCT_DEFINITION_CONTEXT('part definition',#1273,'design');
#1263=PRODUCT_DEFINITION('2025-10-27-20-00-05-451','BannerBeasts',#1266,
#1262);
#1264=PRODUCT_DEFINITION('2025-10-28-21-28-58-216','Tiles',#1267,#1262);
#1265=PRODUCT_DEFINITION('Dragons','Dragons',#1268,#1262);
#1266=PRODUCT_DEFINITION_FORMATION('',$,#1275);
#1267=PRODUCT_DEFINITION_FORMATION('',$,#1276);
#1268=PRODUCT_DEFINITION_FORMATION('',$,#1277);
#1269=PRODUCT_RELATED_PRODUCT_CATEGORY('BannerBeasts','BannerBeasts',(#1275));
#1270=PRODUCT_RELATED_PRODUCT_CATEGORY('Tiles','Tiles',(#1276));
#1271=PRODUCT_RELATED_PRODUCT_CATEGORY('Dragons','Dragons',(#1277));
#1272=APPLICATION_PROTOCOL_DEFINITION('international standard',
'automotive_design',2009,#1273);
#1273=APPLICATION_CONTEXT(
'Core Data for Automotive Mechanical Design Process');
#1274=PRODUCT_CONTEXT('part definition',#1273,'mechanical');
#1275=PRODUCT('2025-10-27-20-00-05-451','BannerBeasts',$,(#1274));
#1276=PRODUCT('2025-10-28-21-28-58-216','Tiles',$,(#1274));
#1277=PRODUCT('Dragons','Dragons',$,(#1274));
#1278=PRESENTATION_STYLE_ASSIGNMENT((#1279));
#1279=SURFACE_STYLE_USAGE(.BOTH.,#1280);
#1280=SURFACE_SIDE_STYLE('',(#1281));
#1281=SURFACE_STYLE_FILL_AREA(#1282);
#1282=FILL_AREA_STYLE('Steel - Satin',(#1283));
#1283=FILL_AREA_STYLE_COLOUR('Steel - Satin',#1284);
#1284=COLOUR_RGB('Steel - Satin',0.627450980392157,0.627450980392157,0.627450980392157);
ENDSEC;
END-ISO-10303-21;
