ISO-10303-21;
HEADER;
/* Generated by software containing ST-Developer
 * from STEP Tools, Inc. (www.steptools.com) 
 */

FILE_DESCRIPTION(
/* description */ (''),
/* implementation_level */ '2;1');

FILE_NAME(
/* name */ 'BannerBeasts-U-W.step',
/* time_stamp */ '2025-10-28T22:41:03Z',
/* author */ (''),
/* organization */ (''),
/* preprocessor_version */ 'ST-DEVELOPER v20.1',
/* originating_system */ 'Autodesk Translation Framework v14.17.0.0',
/* authorisation */ '');

FILE_SCHEMA (('AUTOMOTIVE_DESIGN { 1 0 10303 214 3 1 1 }'));
ENDSEC;

DATA;
#10=MECHANICAL_DESIGN_GEOMETRIC_PRESENTATION_REPRESENTATION('',(#21),#1451);
#11=ITEM_DEFINED_TRANSFORMATION($,$,#874,#928);
#12=ITEM_DEFINED_TRANSFORMATION($,$,#873,#929);
#13=(
REPRESENTATION_RELATIONSHIP($,$,#1466,#1465)
REPRESENTATION_RELATIONSHIP_WITH_TRANSFORMATION(#11)
SHAPE_REPRESENTATION_RELATIONSHIP()
);
#14=(
REPRESENTATION_RELATIONSHIP($,$,#1465,#1464)
REPRESENTATION_RELATIONSHIP_WITH_TRANSFORMATION(#12)
SHAPE_REPRESENTATION_RELATIONSHIP()
);
#15=CONTEXT_DEPENDENT_SHAPE_REPRESENTATION(#13,#1462);
#16=CONTEXT_DEPENDENT_SHAPE_REPRESENTATION(#14,#1463);
#17=NEXT_ASSEMBLY_USAGE_OCCURRENCE('Undead:1','Undead:1','Undead:1',#1469,
#1470,'Undead:1');
#18=NEXT_ASSEMBLY_USAGE_OCCURRENCE('Tiles:1','Tiles:1','Tiles:1',#1468,
#1469,'Tiles:1');
#19=SHAPE_REPRESENTATION_RELATIONSHIP('SRR','None',#1466,#20);
#20=ADVANCED_BREP_SHAPE_REPRESENTATION('',(#22),#1450);
#21=STYLED_ITEM('',(#1483),#22);
#22=MANIFOLD_SOLID_BREP('Wide',#859);
#23=FACE_BOUND('',#139,.T.);
#24=FACE_BOUND('',#142,.T.);
#25=FACE_BOUND('',#158,.T.);
#26=PLANE('',#878);
#27=PLANE('',#891);
#28=PLANE('',#895);
#29=PLANE('',#896);
#30=PLANE('',#897);
#31=PLANE('',#898);
#32=PLANE('',#899);
#33=PLANE('',#900);
#34=PLANE('',#901);
#35=PLANE('',#902);
#36=PLANE('',#903);
#37=PLANE('',#904);
#38=PLANE('',#905);
#39=PLANE('',#906);
#40=PLANE('',#907);
#41=PLANE('',#908);
#42=PLANE('',#912);
#43=PLANE('',#913);
#44=PLANE('',#914);
#45=PLANE('',#915);
#46=PLANE('',#916);
#47=PLANE('',#917);
#48=PLANE('',#918);
#49=PLANE('',#919);
#50=PLANE('',#920);
#51=PLANE('',#921);
#52=PLANE('',#922);
#53=PLANE('',#923);
#54=PLANE('',#924);
#55=PLANE('',#925);
#56=PLANE('',#926);
#57=PLANE('',#927);
#58=(
BOUNDED_CURVE()
B_SPLINE_CURVE(3,(#1170,#1171,#1172,#1173),.UNSPECIFIED.,.F.,.F.)
B_SPLINE_CURVE_WITH_KNOTS((4,4),(0.,1.),.UNSPECIFIED.)
CURVE()
GEOMETRIC_REPRESENTATION_ITEM()
RATIONAL_B_SPLINE_CURVE((1.,1.,1.,1.))
REPRESENTATION_ITEM('')
);
#59=(
BOUNDED_CURVE()
B_SPLINE_CURVE(3,(#1225,#1226,#1227,#1228),.UNSPECIFIED.,.F.,.F.)
B_SPLINE_CURVE_WITH_KNOTS((4,4),(0.,1.),.UNSPECIFIED.)
CURVE()
GEOMETRIC_REPRESENTATION_ITEM()
RATIONAL_B_SPLINE_CURVE((1.,1.,1.,1.))
REPRESENTATION_ITEM('')
);
#60=(
BOUNDED_CURVE()
B_SPLINE_CURVE(3,(#1250,#1251,#1252,#1253),.UNSPECIFIED.,.F.,.F.)
B_SPLINE_CURVE_WITH_KNOTS((4,4),(0.,1.),.UNSPECIFIED.)
CURVE()
GEOMETRIC_REPRESENTATION_ITEM()
RATIONAL_B_SPLINE_CURVE((1.,1.,1.,1.))
REPRESENTATION_ITEM('')
);
#61=(
BOUNDED_CURVE()
B_SPLINE_CURVE(3,(#1285,#1286,#1287,#1288),.UNSPECIFIED.,.F.,.F.)
B_SPLINE_CURVE_WITH_KNOTS((4,4),(0.,1.),.UNSPECIFIED.)
CURVE()
GEOMETRIC_REPRESENTATION_ITEM()
RATIONAL_B_SPLINE_CURVE((1.,1.,1.,1.))
REPRESENTATION_ITEM('')
);
#62=B_SPLINE_CURVE_WITH_KNOTS('',3,(#1165,#1166,#1167,#1168),
 .UNSPECIFIED.,.F.,.F.,(4,4),(0.,0.00329026469909359),.UNSPECIFIED.);
#63=B_SPLINE_CURVE_WITH_KNOTS('',3,(#1220,#1221,#1222,#1223),
 .UNSPECIFIED.,.F.,.F.,(4,4),(0.,0.003530424823715),.UNSPECIFIED.);
#64=B_SPLINE_CURVE_WITH_KNOTS('',3,(#1245,#1246,#1247,#1248),
 .UNSPECIFIED.,.F.,.F.,(4,4),(0.,0.116933564021374),.UNSPECIFIED.);
#65=B_SPLINE_CURVE_WITH_KNOTS('',3,(#1281,#1282,#1283,#1284),
 .UNSPECIFIED.,.F.,.F.,(4,4),(0.,0.144894045103793),.UNSPECIFIED.);
#66=(
BOUNDED_SURFACE()
B_SPLINE_SURFACE(3,1,((#1156,#1157),(#1158,#1159),(#1160,#1161),(#1162,
#1163)),.UNSPECIFIED.,.F.,.F.,.F.)
B_SPLINE_SURFACE_WITH_KNOTS((4,4),(2,2),(0.,1.),(0.,0.4),.UNSPECIFIED.)
GEOMETRIC_REPRESENTATION_ITEM()
RATIONAL_B_SPLINE_SURFACE(((1.,1.),(1.,1.),(1.,1.),(1.,1.)))
REPRESENTATION_ITEM('')
SURFACE()
);
#67=(
BOUNDED_SURFACE()
B_SPLINE_SURFACE(3,1,((#1211,#1212),(#1213,#1214),(#1215,#1216),(#1217,
#1218)),.UNSPECIFIED.,.F.,.F.,.F.)
B_SPLINE_SURFACE_WITH_KNOTS((4,4),(2,2),(0.,1.),(0.,0.4),.UNSPECIFIED.)
GEOMETRIC_REPRESENTATION_ITEM()
RATIONAL_B_SPLINE_SURFACE(((1.,1.),(1.,1.),(1.,1.),(1.,1.)))
REPRESENTATION_ITEM('')
SURFACE()
);
#68=(
BOUNDED_SURFACE()
B_SPLINE_SURFACE(3,1,((#1236,#1237),(#1238,#1239),(#1240,#1241),(#1242,
#1243)),.UNSPECIFIED.,.F.,.F.,.F.)
B_SPLINE_SURFACE_WITH_KNOTS((4,4),(2,2),(0.,1.),(0.,0.4),.UNSPECIFIED.)
GEOMETRIC_REPRESENTATION_ITEM()
RATIONAL_B_SPLINE_SURFACE(((1.,1.),(1.,1.),(1.,1.),(1.,1.)))
REPRESENTATION_ITEM('')
SURFACE()
);
#69=(
BOUNDED_SURFACE()
B_SPLINE_SURFACE(3,1,((#1273,#1274),(#1275,#1276),(#1277,#1278),(#1279,
#1280)),.UNSPECIFIED.,.F.,.F.,.F.)
B_SPLINE_SURFACE_WITH_KNOTS((4,4),(2,2),(0.,1.),(0.,0.4),.UNSPECIFIED.)
GEOMETRIC_REPRESENTATION_ITEM()
RATIONAL_B_SPLINE_SURFACE(((1.,1.),(1.,1.),(1.,1.),(1.,1.)))
REPRESENTATION_ITEM('')
SURFACE()
);
#70=FACE_OUTER_BOUND('',#113,.T.);
#71=FACE_OUTER_BOUND('',#114,.T.);
#72=FACE_OUTER_BOUND('',#115,.T.);
#73=FACE_OUTER_BOUND('',#116,.T.);
#74=FACE_OUTER_BOUND('',#117,.T.);
#75=FACE_OUTER_BOUND('',#118,.T.);
#76=FACE_OUTER_BOUND('',#119,.T.);
#77=FACE_OUTER_BOUND('',#120,.T.);
#78=FACE_OUTER_BOUND('',#121,.T.);
#79=FACE_OUTER_BOUND('',#122,.T.);
#80=FACE_OUTER_BOUND('',#123,.T.);
#81=FACE_OUTER_BOUND('',#124,.T.);
#82=FACE_OUTER_BOUND('',#125,.T.);
#83=FACE_OUTER_BOUND('',#126,.T.);
#84=FACE_OUTER_BOUND('',#127,.T.);
#85=FACE_OUTER_BOUND('',#128,.T.);
#86=FACE_OUTER_BOUND('',#129,.T.);
#87=FACE_OUTER_BOUND('',#130,.T.);
#88=FACE_OUTER_BOUND('',#131,.T.);
#89=FACE_OUTER_BOUND('',#132,.T.);
#90=FACE_OUTER_BOUND('',#133,.T.);
#91=FACE_OUTER_BOUND('',#134,.T.);
#92=FACE_OUTER_BOUND('',#135,.T.);
#93=FACE_OUTER_BOUND('',#136,.T.);
#94=FACE_OUTER_BOUND('',#137,.T.);
#95=FACE_OUTER_BOUND('',#138,.T.);
#96=FACE_OUTER_BOUND('',#140,.T.);
#97=FACE_OUTER_BOUND('',#141,.T.);
#98=FACE_OUTER_BOUND('',#143,.T.);
#99=FACE_OUTER_BOUND('',#144,.T.);
#100=FACE_OUTER_BOUND('',#145,.T.);
#101=FACE_OUTER_BOUND('',#146,.T.);
#102=FACE_OUTER_BOUND('',#147,.T.);
#103=FACE_OUTER_BOUND('',#148,.T.);
#104=FACE_OUTER_BOUND('',#149,.T.);
#105=FACE_OUTER_BOUND('',#150,.T.);
#106=FACE_OUTER_BOUND('',#151,.T.);
#107=FACE_OUTER_BOUND('',#152,.T.);
#108=FACE_OUTER_BOUND('',#153,.T.);
#109=FACE_OUTER_BOUND('',#154,.T.);
#110=FACE_OUTER_BOUND('',#155,.T.);
#111=FACE_OUTER_BOUND('',#156,.T.);
#112=FACE_OUTER_BOUND('',#157,.T.);
#113=EDGE_LOOP('',(#569,#570,#571,#572));
#114=EDGE_LOOP('',(#573,#574,#575,#576));
#115=EDGE_LOOP('',(#577,#578,#579,#580));
#116=EDGE_LOOP('',(#581,#582,#583,#584));
#117=EDGE_LOOP('',(#585,#586,#587,#588));
#118=EDGE_LOOP('',(#589,#590,#591,#592));
#119=EDGE_LOOP('',(#593,#594,#595,#596));
#120=EDGE_LOOP('',(#597,#598,#599,#600));
#121=EDGE_LOOP('',(#601,#602,#603,#604));
#122=EDGE_LOOP('',(#605,#606,#607,#608));
#123=EDGE_LOOP('',(#609,#610,#611,#612));
#124=EDGE_LOOP('',(#613,#614,#615,#616));
#125=EDGE_LOOP('',(#617,#618,#619,#620));
#126=EDGE_LOOP('',(#621,#622,#623,#624));
#127=EDGE_LOOP('',(#625,#626,#627,#628));
#128=EDGE_LOOP('',(#629,#630,#631,#632));
#129=EDGE_LOOP('',(#633,#634,#635,#636));
#130=EDGE_LOOP('',(#637,#638,#639,#640));
#131=EDGE_LOOP('',(#641,#642,#643,#644));
#132=EDGE_LOOP('',(#645,#646,#647,#648));
#133=EDGE_LOOP('',(#649,#650,#651,#652));
#134=EDGE_LOOP('',(#653,#654,#655,#656));
#135=EDGE_LOOP('',(#657,#658,#659,#660));
#136=EDGE_LOOP('',(#661,#662,#663,#664));
#137=EDGE_LOOP('',(#665,#666,#667,#668));
#138=EDGE_LOOP('',(#669));
#139=EDGE_LOOP('',(#670,#671,#672,#673,#674,#675,#676,#677,#678,#679,#680,
#681,#682,#683,#684));
#140=EDGE_LOOP('',(#685,#686,#687,#688));
#141=EDGE_LOOP('',(#689,#690,#691,#692,#693,#694,#695,#696,#697,#698,#699,
#700));
#142=EDGE_LOOP('',(#701));
#143=EDGE_LOOP('',(#702,#703,#704,#705));
#144=EDGE_LOOP('',(#706,#707,#708,#709));
#145=EDGE_LOOP('',(#710,#711,#712,#713));
#146=EDGE_LOOP('',(#714,#715,#716,#717));
#147=EDGE_LOOP('',(#718,#719,#720,#721,#722,#723,#724,#725,#726,#727,#728,
#729));
#148=EDGE_LOOP('',(#730,#731,#732,#733));
#149=EDGE_LOOP('',(#734,#735,#736,#737,#738,#739,#740,#741));
#150=EDGE_LOOP('',(#742,#743,#744,#745));
#151=EDGE_LOOP('',(#746,#747,#748,#749));
#152=EDGE_LOOP('',(#750,#751,#752,#753));
#153=EDGE_LOOP('',(#754,#755,#756,#757,#758,#759,#760,#761,#762,#763,#764,
#765));
#154=EDGE_LOOP('',(#766,#767,#768,#769));
#155=EDGE_LOOP('',(#770,#771,#772,#773));
#156=EDGE_LOOP('',(#774,#775,#776,#777,#778,#779,#780,#781));
#157=EDGE_LOOP('',(#782,#783,#784,#785,#786,#787,#788,#789,#790,#791,#792,
#793));
#158=EDGE_LOOP('',(#794,#795,#796,#797,#798,#799,#800,#801,#802,#803,#804,
#805,#806,#807,#808));
#159=LINE('',#1152,#257);
#160=LINE('',#1155,#258);
#161=LINE('',#1174,#259);
#162=LINE('',#1177,#260);
#163=LINE('',#1179,#261);
#164=LINE('',#1180,#262);
#165=LINE('',#1186,#263);
#166=LINE('',#1192,#264);
#167=LINE('',#1198,#265);
#168=LINE('',#1204,#266);
#169=LINE('',#1207,#267);
#170=LINE('',#1209,#268);
#171=LINE('',#1210,#269);
#172=LINE('',#1229,#270);
#173=LINE('',#1235,#271);
#174=LINE('',#1254,#272);
#175=LINE('',#1257,#273);
#176=LINE('',#1259,#274);
#177=LINE('',#1260,#275);
#178=LINE('',#1263,#276);
#179=LINE('',#1265,#277);
#180=LINE('',#1266,#278);
#181=LINE('',#1269,#279);
#182=LINE('',#1271,#280);
#183=LINE('',#1272,#281);
#184=LINE('',#1292,#282);
#185=LINE('',#1294,#283);
#186=LINE('',#1296,#284);
#187=LINE('',#1297,#285);
#188=LINE('',#1300,#286);
#189=LINE('',#1302,#287);
#190=LINE('',#1303,#288);
#191=LINE('',#1306,#289);
#192=LINE('',#1308,#290);
#193=LINE('',#1309,#291);
#194=LINE('',#1313,#292);
#195=LINE('',#1315,#293);
#196=LINE('',#1317,#294);
#197=LINE('',#1318,#295);
#198=LINE('',#1320,#296);
#199=LINE('',#1324,#297);
#200=LINE('',#1326,#298);
#201=LINE('',#1328,#299);
#202=LINE('',#1329,#300);
#203=LINE('',#1332,#301);
#204=LINE('',#1334,#302);
#205=LINE('',#1335,#303);
#206=LINE('',#1338,#304);
#207=LINE('',#1340,#305);
#208=LINE('',#1341,#306);
#209=LINE('',#1345,#307);
#210=LINE('',#1347,#308);
#211=LINE('',#1349,#309);
#212=LINE('',#1350,#310);
#213=LINE('',#1352,#311);
#214=LINE('',#1359,#312);
#215=LINE('',#1363,#313);
#216=LINE('',#1364,#314);
#217=LINE('',#1366,#315);
#218=LINE('',#1368,#316);
#219=LINE('',#1370,#317);
#220=LINE('',#1372,#318);
#221=LINE('',#1373,#319);
#222=LINE('',#1375,#320);
#223=LINE('',#1377,#321);
#224=LINE('',#1378,#322);
#225=LINE('',#1381,#323);
#226=LINE('',#1382,#324);
#227=LINE('',#1385,#325);
#228=LINE('',#1386,#326);
#229=LINE('',#1389,#327);
#230=LINE('',#1390,#328);
#231=LINE('',#1394,#329);
#232=LINE('',#1396,#330);
#233=LINE('',#1398,#331);
#234=LINE('',#1399,#332);
#235=LINE('',#1401,#333);
#236=LINE('',#1403,#334);
#237=LINE('',#1404,#335);
#238=LINE('',#1406,#336);
#239=LINE('',#1408,#337);
#240=LINE('',#1409,#338);
#241=LINE('',#1411,#339);
#242=LINE('',#1413,#340);
#243=LINE('',#1416,#341);
#244=LINE('',#1417,#342);
#245=LINE('',#1420,#343);
#246=LINE('',#1421,#344);
#247=LINE('',#1424,#345);
#248=LINE('',#1426,#346);
#249=LINE('',#1427,#347);
#250=LINE('',#1429,#348);
#251=LINE('',#1431,#349);
#252=LINE('',#1432,#350);
#253=LINE('',#1433,#351);
#254=LINE('',#1436,#352);
#255=LINE('',#1437,#353);
#256=LINE('',#1439,#354);
#257=VECTOR('',#940,10.);
#258=VECTOR('',#943,10.);
#259=VECTOR('',#944,10.);
#260=VECTOR('',#947,10.);
#261=VECTOR('',#948,10.);
#262=VECTOR('',#949,10.);
#263=VECTOR('',#956,10.);
#264=VECTOR('',#963,10.);
#265=VECTOR('',#970,10.);
#266=VECTOR('',#977,10.);
#267=VECTOR('',#980,10.);
#268=VECTOR('',#981,10.);
#269=VECTOR('',#982,10.);
#270=VECTOR('',#983,10.);
#271=VECTOR('',#990,10.);
#272=VECTOR('',#991,10.);
#273=VECTOR('',#994,10.);
#274=VECTOR('',#995,10.);
#275=VECTOR('',#996,10.);
#276=VECTOR('',#999,10.);
#277=VECTOR('',#1000,10.);
#278=VECTOR('',#1001,10.);
#279=VECTOR('',#1004,10.);
#280=VECTOR('',#1005,10.);
#281=VECTOR('',#1006,10.);
#282=VECTOR('',#1009,10.);
#283=VECTOR('',#1010,10.);
#284=VECTOR('',#1011,10.);
#285=VECTOR('',#1012,10.);
#286=VECTOR('',#1015,10.);
#287=VECTOR('',#1016,10.);
#288=VECTOR('',#1017,10.);
#289=VECTOR('',#1020,10.);
#290=VECTOR('',#1021,10.);
#291=VECTOR('',#1022,10.);
#292=VECTOR('',#1025,10.);
#293=VECTOR('',#1026,10.);
#294=VECTOR('',#1027,10.);
#295=VECTOR('',#1028,10.);
#296=VECTOR('',#1031,10.);
#297=VECTOR('',#1034,10.);
#298=VECTOR('',#1035,10.);
#299=VECTOR('',#1036,10.);
#300=VECTOR('',#1037,10.);
#301=VECTOR('',#1040,10.);
#302=VECTOR('',#1041,10.);
#303=VECTOR('',#1042,10.);
#304=VECTOR('',#1045,10.);
#305=VECTOR('',#1046,10.);
#306=VECTOR('',#1047,10.);
#307=VECTOR('',#1050,10.);
#308=VECTOR('',#1051,10.);
#309=VECTOR('',#1052,10.);
#310=VECTOR('',#1053,10.);
#311=VECTOR('',#1056,10.);
#312=VECTOR('',#1065,13.);
#313=VECTOR('',#1068,10.);
#314=VECTOR('',#1069,10.);
#315=VECTOR('',#1070,10.);
#316=VECTOR('',#1071,10.);
#317=VECTOR('',#1072,10.);
#318=VECTOR('',#1073,10.);
#319=VECTOR('',#1074,10.);
#320=VECTOR('',#1075,10.);
#321=VECTOR('',#1076,10.);
#322=VECTOR('',#1077,10.);
#323=VECTOR('',#1080,10.);
#324=VECTOR('',#1081,10.);
#325=VECTOR('',#1084,10.);
#326=VECTOR('',#1085,10.);
#327=VECTOR('',#1088,10.);
#328=VECTOR('',#1089,10.);
#329=VECTOR('',#1092,10.);
#330=VECTOR('',#1093,10.);
#331=VECTOR('',#1094,10.);
#332=VECTOR('',#1095,10.);
#333=VECTOR('',#1098,10.);
#334=VECTOR('',#1099,10.);
#335=VECTOR('',#1100,10.);
#336=VECTOR('',#1101,10.);
#337=VECTOR('',#1102,10.);
#338=VECTOR('',#1103,10.);
#339=VECTOR('',#1106,10.);
#340=VECTOR('',#1109,10.);
#341=VECTOR('',#1112,10.);
#342=VECTOR('',#1113,10.);
#343=VECTOR('',#1116,10.);
#344=VECTOR('',#1117,10.);
#345=VECTOR('',#1120,10.);
#346=VECTOR('',#1121,10.);
#347=VECTOR('',#1122,10.);
#348=VECTOR('',#1125,10.);
#349=VECTOR('',#1126,10.);
#350=VECTOR('',#1127,10.);
#351=VECTOR('',#1128,10.);
#352=VECTOR('',#1131,10.);
#353=VECTOR('',#1132,10.);
#354=VECTOR('',#1135,10.);
#355=CIRCLE('',#876,5.62953515450162);
#356=CIRCLE('',#877,5.62953515450162);
#357=CIRCLE('',#880,5.62953515450158);
#358=CIRCLE('',#881,5.62953515450158);
#359=CIRCLE('',#883,5.62953515450157);
#360=CIRCLE('',#884,5.62953515450157);
#361=CIRCLE('',#886,5.62953515450159);
#362=CIRCLE('',#887,5.62953515450159);
#363=CIRCLE('',#889,5.62953515450159);
#364=CIRCLE('',#890,5.62953515450159);
#365=CIRCLE('',#893,5.62953515450162);
#366=CIRCLE('',#894,5.62953515450162);
#367=CIRCLE('',#909,13.);
#368=CIRCLE('',#911,13.);
#369=VERTEX_POINT('',#1148);
#370=VERTEX_POINT('',#1149);
#371=VERTEX_POINT('',#1151);
#372=VERTEX_POINT('',#1153);
#373=VERTEX_POINT('',#1164);
#374=VERTEX_POINT('',#1169);
#375=VERTEX_POINT('',#1176);
#376=VERTEX_POINT('',#1178);
#377=VERTEX_POINT('',#1182);
#378=VERTEX_POINT('',#1184);
#379=VERTEX_POINT('',#1188);
#380=VERTEX_POINT('',#1190);
#381=VERTEX_POINT('',#1194);
#382=VERTEX_POINT('',#1196);
#383=VERTEX_POINT('',#1200);
#384=VERTEX_POINT('',#1202);
#385=VERTEX_POINT('',#1206);
#386=VERTEX_POINT('',#1208);
#387=VERTEX_POINT('',#1219);
#388=VERTEX_POINT('',#1224);
#389=VERTEX_POINT('',#1231);
#390=VERTEX_POINT('',#1233);
#391=VERTEX_POINT('',#1244);
#392=VERTEX_POINT('',#1249);
#393=VERTEX_POINT('',#1256);
#394=VERTEX_POINT('',#1258);
#395=VERTEX_POINT('',#1262);
#396=VERTEX_POINT('',#1264);
#397=VERTEX_POINT('',#1268);
#398=VERTEX_POINT('',#1270);
#399=VERTEX_POINT('',#1290);
#400=VERTEX_POINT('',#1291);
#401=VERTEX_POINT('',#1293);
#402=VERTEX_POINT('',#1295);
#403=VERTEX_POINT('',#1299);
#404=VERTEX_POINT('',#1301);
#405=VERTEX_POINT('',#1305);
#406=VERTEX_POINT('',#1307);
#407=VERTEX_POINT('',#1311);
#408=VERTEX_POINT('',#1312);
#409=VERTEX_POINT('',#1314);
#410=VERTEX_POINT('',#1316);
#411=VERTEX_POINT('',#1322);
#412=VERTEX_POINT('',#1323);
#413=VERTEX_POINT('',#1325);
#414=VERTEX_POINT('',#1327);
#415=VERTEX_POINT('',#1331);
#416=VERTEX_POINT('',#1333);
#417=VERTEX_POINT('',#1337);
#418=VERTEX_POINT('',#1339);
#419=VERTEX_POINT('',#1343);
#420=VERTEX_POINT('',#1344);
#421=VERTEX_POINT('',#1346);
#422=VERTEX_POINT('',#1348);
#423=VERTEX_POINT('',#1354);
#424=VERTEX_POINT('',#1357);
#425=VERTEX_POINT('',#1361);
#426=VERTEX_POINT('',#1362);
#427=VERTEX_POINT('',#1365);
#428=VERTEX_POINT('',#1367);
#429=VERTEX_POINT('',#1369);
#430=VERTEX_POINT('',#1371);
#431=VERTEX_POINT('',#1374);
#432=VERTEX_POINT('',#1376);
#433=VERTEX_POINT('',#1380);
#434=VERTEX_POINT('',#1384);
#435=VERTEX_POINT('',#1388);
#436=VERTEX_POINT('',#1392);
#437=VERTEX_POINT('',#1393);
#438=VERTEX_POINT('',#1395);
#439=VERTEX_POINT('',#1397);
#440=VERTEX_POINT('',#1402);
#441=VERTEX_POINT('',#1405);
#442=VERTEX_POINT('',#1407);
#443=VERTEX_POINT('',#1415);
#444=VERTEX_POINT('',#1419);
#445=VERTEX_POINT('',#1423);
#446=VERTEX_POINT('',#1425);
#447=VERTEX_POINT('',#1430);
#448=VERTEX_POINT('',#1435);
#449=EDGE_CURVE('',#369,#370,#355,.T.);
#450=EDGE_CURVE('',#371,#369,#159,.T.);
#451=EDGE_CURVE('',#372,#371,#356,.T.);
#452=EDGE_CURVE('',#372,#370,#160,.T.);
#453=EDGE_CURVE('',#370,#373,#62,.T.);
#454=EDGE_CURVE('',#374,#372,#58,.T.);
#455=EDGE_CURVE('',#374,#373,#161,.T.);
#456=EDGE_CURVE('',#373,#375,#162,.T.);
#457=EDGE_CURVE('',#376,#374,#163,.T.);
#458=EDGE_CURVE('',#376,#375,#164,.T.);
#459=EDGE_CURVE('',#375,#377,#357,.T.);
#460=EDGE_CURVE('',#378,#376,#358,.T.);
#461=EDGE_CURVE('',#378,#377,#165,.T.);
#462=EDGE_CURVE('',#377,#379,#359,.T.);
#463=EDGE_CURVE('',#380,#378,#360,.T.);
#464=EDGE_CURVE('',#380,#379,#166,.T.);
#465=EDGE_CURVE('',#379,#381,#361,.T.);
#466=EDGE_CURVE('',#382,#380,#362,.T.);
#467=EDGE_CURVE('',#382,#381,#167,.T.);
#468=EDGE_CURVE('',#381,#383,#363,.T.);
#469=EDGE_CURVE('',#384,#382,#364,.T.);
#470=EDGE_CURVE('',#384,#383,#168,.T.);
#471=EDGE_CURVE('',#383,#385,#169,.T.);
#472=EDGE_CURVE('',#386,#384,#170,.T.);
#473=EDGE_CURVE('',#386,#385,#171,.T.);
#474=EDGE_CURVE('',#385,#387,#63,.T.);
#475=EDGE_CURVE('',#388,#386,#59,.T.);
#476=EDGE_CURVE('',#388,#387,#172,.T.);
#477=EDGE_CURVE('',#387,#389,#365,.T.);
#478=EDGE_CURVE('',#390,#388,#366,.T.);
#479=EDGE_CURVE('',#390,#389,#173,.T.);
#480=EDGE_CURVE('',#389,#391,#64,.T.);
#481=EDGE_CURVE('',#392,#390,#60,.T.);
#482=EDGE_CURVE('',#392,#391,#174,.T.);
#483=EDGE_CURVE('',#391,#393,#175,.T.);
#484=EDGE_CURVE('',#394,#392,#176,.T.);
#485=EDGE_CURVE('',#394,#393,#177,.T.);
#486=EDGE_CURVE('',#393,#395,#178,.T.);
#487=EDGE_CURVE('',#396,#394,#179,.T.);
#488=EDGE_CURVE('',#396,#395,#180,.T.);
#489=EDGE_CURVE('',#395,#397,#181,.T.);
#490=EDGE_CURVE('',#398,#396,#182,.T.);
#491=EDGE_CURVE('',#398,#397,#183,.T.);
#492=EDGE_CURVE('',#397,#369,#65,.T.);
#493=EDGE_CURVE('',#371,#398,#61,.T.);
#494=EDGE_CURVE('',#399,#400,#184,.T.);
#495=EDGE_CURVE('',#399,#401,#185,.T.);
#496=EDGE_CURVE('',#402,#401,#186,.T.);
#497=EDGE_CURVE('',#400,#402,#187,.T.);
#498=EDGE_CURVE('',#403,#400,#188,.T.);
#499=EDGE_CURVE('',#403,#404,#189,.F.);
#500=EDGE_CURVE('',#404,#399,#190,.F.);
#501=EDGE_CURVE('',#405,#401,#191,.T.);
#502=EDGE_CURVE('',#405,#406,#192,.F.);
#503=EDGE_CURVE('',#406,#402,#193,.F.);
#504=EDGE_CURVE('',#407,#408,#194,.F.);
#505=EDGE_CURVE('',#408,#409,#195,.T.);
#506=EDGE_CURVE('',#410,#409,#196,.F.);
#507=EDGE_CURVE('',#407,#410,#197,.T.);
#508=EDGE_CURVE('',#406,#403,#198,.F.);
#509=EDGE_CURVE('',#411,#412,#199,.T.);
#510=EDGE_CURVE('',#411,#413,#200,.T.);
#511=EDGE_CURVE('',#414,#413,#201,.T.);
#512=EDGE_CURVE('',#412,#414,#202,.T.);
#513=EDGE_CURVE('',#415,#412,#203,.T.);
#514=EDGE_CURVE('',#415,#416,#204,.F.);
#515=EDGE_CURVE('',#416,#411,#205,.F.);
#516=EDGE_CURVE('',#417,#413,#206,.T.);
#517=EDGE_CURVE('',#417,#418,#207,.F.);
#518=EDGE_CURVE('',#418,#414,#208,.F.);
#519=EDGE_CURVE('',#419,#420,#209,.F.);
#520=EDGE_CURVE('',#420,#421,#210,.T.);
#521=EDGE_CURVE('',#422,#421,#211,.F.);
#522=EDGE_CURVE('',#419,#422,#212,.T.);
#523=EDGE_CURVE('',#418,#415,#213,.F.);
#524=EDGE_CURVE('',#423,#423,#367,.T.);
#525=EDGE_CURVE('',#424,#424,#368,.T.);
#526=EDGE_CURVE('',#424,#423,#214,.T.);
#527=EDGE_CURVE('',#425,#426,#215,.T.);
#528=EDGE_CURVE('',#420,#425,#216,.T.);
#529=EDGE_CURVE('',#419,#427,#217,.F.);
#530=EDGE_CURVE('',#428,#427,#218,.F.);
#531=EDGE_CURVE('',#429,#428,#219,.T.);
#532=EDGE_CURVE('',#430,#429,#220,.T.);
#533=EDGE_CURVE('',#408,#430,#221,.T.);
#534=EDGE_CURVE('',#407,#431,#222,.F.);
#535=EDGE_CURVE('',#432,#431,#223,.F.);
#536=EDGE_CURVE('',#426,#432,#224,.T.);
#537=EDGE_CURVE('',#430,#433,#225,.T.);
#538=EDGE_CURVE('',#409,#433,#226,.T.);
#539=EDGE_CURVE('',#429,#434,#227,.T.);
#540=EDGE_CURVE('',#433,#434,#228,.T.);
#541=EDGE_CURVE('',#428,#435,#229,.F.);
#542=EDGE_CURVE('',#434,#435,#230,.T.);
#543=EDGE_CURVE('',#436,#437,#231,.F.);
#544=EDGE_CURVE('',#437,#438,#232,.F.);
#545=EDGE_CURVE('',#439,#438,#233,.F.);
#546=EDGE_CURVE('',#436,#439,#234,.T.);
#547=EDGE_CURVE('',#416,#436,#235,.F.);
#548=EDGE_CURVE('',#440,#439,#236,.F.);
#549=EDGE_CURVE('',#427,#440,#237,.F.);
#550=EDGE_CURVE('',#441,#422,#238,.F.);
#551=EDGE_CURVE('',#442,#441,#239,.F.);
#552=EDGE_CURVE('',#442,#417,#240,.F.);
#553=EDGE_CURVE('',#435,#440,#241,.F.);
#554=EDGE_CURVE('',#438,#410,#242,.F.);
#555=EDGE_CURVE('',#425,#443,#243,.T.);
#556=EDGE_CURVE('',#421,#443,#244,.T.);
#557=EDGE_CURVE('',#426,#444,#245,.T.);
#558=EDGE_CURVE('',#443,#444,#246,.T.);
#559=EDGE_CURVE('',#445,#442,#247,.F.);
#560=EDGE_CURVE('',#446,#441,#248,.F.);
#561=EDGE_CURVE('',#445,#446,#249,.F.);
#562=EDGE_CURVE('',#404,#445,#250,.F.);
#563=EDGE_CURVE('',#447,#446,#251,.F.);
#564=EDGE_CURVE('',#431,#447,#252,.F.);
#565=EDGE_CURVE('',#437,#405,#253,.F.);
#566=EDGE_CURVE('',#448,#447,#254,.F.);
#567=EDGE_CURVE('',#432,#448,#255,.F.);
#568=EDGE_CURVE('',#444,#448,#256,.T.);
#569=ORIENTED_EDGE('',*,*,#449,.F.);
#570=ORIENTED_EDGE('',*,*,#450,.F.);
#571=ORIENTED_EDGE('',*,*,#451,.F.);
#572=ORIENTED_EDGE('',*,*,#452,.T.);
#573=ORIENTED_EDGE('',*,*,#453,.F.);
#574=ORIENTED_EDGE('',*,*,#452,.F.);
#575=ORIENTED_EDGE('',*,*,#454,.F.);
#576=ORIENTED_EDGE('',*,*,#455,.T.);
#577=ORIENTED_EDGE('',*,*,#456,.F.);
#578=ORIENTED_EDGE('',*,*,#455,.F.);
#579=ORIENTED_EDGE('',*,*,#457,.F.);
#580=ORIENTED_EDGE('',*,*,#458,.T.);
#581=ORIENTED_EDGE('',*,*,#459,.F.);
#582=ORIENTED_EDGE('',*,*,#458,.F.);
#583=ORIENTED_EDGE('',*,*,#460,.F.);
#584=ORIENTED_EDGE('',*,*,#461,.T.);
#585=ORIENTED_EDGE('',*,*,#462,.F.);
#586=ORIENTED_EDGE('',*,*,#461,.F.);
#587=ORIENTED_EDGE('',*,*,#463,.F.);
#588=ORIENTED_EDGE('',*,*,#464,.T.);
#589=ORIENTED_EDGE('',*,*,#465,.F.);
#590=ORIENTED_EDGE('',*,*,#464,.F.);
#591=ORIENTED_EDGE('',*,*,#466,.F.);
#592=ORIENTED_EDGE('',*,*,#467,.T.);
#593=ORIENTED_EDGE('',*,*,#468,.F.);
#594=ORIENTED_EDGE('',*,*,#467,.F.);
#595=ORIENTED_EDGE('',*,*,#469,.F.);
#596=ORIENTED_EDGE('',*,*,#470,.T.);
#597=ORIENTED_EDGE('',*,*,#471,.F.);
#598=ORIENTED_EDGE('',*,*,#470,.F.);
#599=ORIENTED_EDGE('',*,*,#472,.F.);
#600=ORIENTED_EDGE('',*,*,#473,.T.);
#601=ORIENTED_EDGE('',*,*,#474,.F.);
#602=ORIENTED_EDGE('',*,*,#473,.F.);
#603=ORIENTED_EDGE('',*,*,#475,.F.);
#604=ORIENTED_EDGE('',*,*,#476,.T.);
#605=ORIENTED_EDGE('',*,*,#477,.F.);
#606=ORIENTED_EDGE('',*,*,#476,.F.);
#607=ORIENTED_EDGE('',*,*,#478,.F.);
#608=ORIENTED_EDGE('',*,*,#479,.T.);
#609=ORIENTED_EDGE('',*,*,#480,.F.);
#610=ORIENTED_EDGE('',*,*,#479,.F.);
#611=ORIENTED_EDGE('',*,*,#481,.F.);
#612=ORIENTED_EDGE('',*,*,#482,.T.);
#613=ORIENTED_EDGE('',*,*,#483,.F.);
#614=ORIENTED_EDGE('',*,*,#482,.F.);
#615=ORIENTED_EDGE('',*,*,#484,.F.);
#616=ORIENTED_EDGE('',*,*,#485,.T.);
#617=ORIENTED_EDGE('',*,*,#486,.F.);
#618=ORIENTED_EDGE('',*,*,#485,.F.);
#619=ORIENTED_EDGE('',*,*,#487,.F.);
#620=ORIENTED_EDGE('',*,*,#488,.T.);
#621=ORIENTED_EDGE('',*,*,#489,.F.);
#622=ORIENTED_EDGE('',*,*,#488,.F.);
#623=ORIENTED_EDGE('',*,*,#490,.F.);
#624=ORIENTED_EDGE('',*,*,#491,.T.);
#625=ORIENTED_EDGE('',*,*,#492,.F.);
#626=ORIENTED_EDGE('',*,*,#491,.F.);
#627=ORIENTED_EDGE('',*,*,#493,.F.);
#628=ORIENTED_EDGE('',*,*,#450,.T.);
#629=ORIENTED_EDGE('',*,*,#494,.F.);
#630=ORIENTED_EDGE('',*,*,#495,.T.);
#631=ORIENTED_EDGE('',*,*,#496,.F.);
#632=ORIENTED_EDGE('',*,*,#497,.F.);
#633=ORIENTED_EDGE('',*,*,#494,.T.);
#634=ORIENTED_EDGE('',*,*,#498,.F.);
#635=ORIENTED_EDGE('',*,*,#499,.T.);
#636=ORIENTED_EDGE('',*,*,#500,.T.);
#637=ORIENTED_EDGE('',*,*,#496,.T.);
#638=ORIENTED_EDGE('',*,*,#501,.F.);
#639=ORIENTED_EDGE('',*,*,#502,.T.);
#640=ORIENTED_EDGE('',*,*,#503,.T.);
#641=ORIENTED_EDGE('',*,*,#504,.T.);
#642=ORIENTED_EDGE('',*,*,#505,.T.);
#643=ORIENTED_EDGE('',*,*,#506,.F.);
#644=ORIENTED_EDGE('',*,*,#507,.F.);
#645=ORIENTED_EDGE('',*,*,#497,.T.);
#646=ORIENTED_EDGE('',*,*,#503,.F.);
#647=ORIENTED_EDGE('',*,*,#508,.T.);
#648=ORIENTED_EDGE('',*,*,#498,.T.);
#649=ORIENTED_EDGE('',*,*,#509,.F.);
#650=ORIENTED_EDGE('',*,*,#510,.T.);
#651=ORIENTED_EDGE('',*,*,#511,.F.);
#652=ORIENTED_EDGE('',*,*,#512,.F.);
#653=ORIENTED_EDGE('',*,*,#509,.T.);
#654=ORIENTED_EDGE('',*,*,#513,.F.);
#655=ORIENTED_EDGE('',*,*,#514,.T.);
#656=ORIENTED_EDGE('',*,*,#515,.T.);
#657=ORIENTED_EDGE('',*,*,#511,.T.);
#658=ORIENTED_EDGE('',*,*,#516,.F.);
#659=ORIENTED_EDGE('',*,*,#517,.T.);
#660=ORIENTED_EDGE('',*,*,#518,.T.);
#661=ORIENTED_EDGE('',*,*,#519,.T.);
#662=ORIENTED_EDGE('',*,*,#520,.T.);
#663=ORIENTED_EDGE('',*,*,#521,.F.);
#664=ORIENTED_EDGE('',*,*,#522,.F.);
#665=ORIENTED_EDGE('',*,*,#512,.T.);
#666=ORIENTED_EDGE('',*,*,#518,.F.);
#667=ORIENTED_EDGE('',*,*,#523,.T.);
#668=ORIENTED_EDGE('',*,*,#513,.T.);
#669=ORIENTED_EDGE('',*,*,#524,.F.);
#670=ORIENTED_EDGE('',*,*,#472,.T.);
#671=ORIENTED_EDGE('',*,*,#469,.T.);
#672=ORIENTED_EDGE('',*,*,#466,.T.);
#673=ORIENTED_EDGE('',*,*,#463,.T.);
#674=ORIENTED_EDGE('',*,*,#460,.T.);
#675=ORIENTED_EDGE('',*,*,#457,.T.);
#676=ORIENTED_EDGE('',*,*,#454,.T.);
#677=ORIENTED_EDGE('',*,*,#451,.T.);
#678=ORIENTED_EDGE('',*,*,#493,.T.);
#679=ORIENTED_EDGE('',*,*,#490,.T.);
#680=ORIENTED_EDGE('',*,*,#487,.T.);
#681=ORIENTED_EDGE('',*,*,#484,.T.);
#682=ORIENTED_EDGE('',*,*,#481,.T.);
#683=ORIENTED_EDGE('',*,*,#478,.T.);
#684=ORIENTED_EDGE('',*,*,#475,.T.);
#685=ORIENTED_EDGE('',*,*,#525,.F.);
#686=ORIENTED_EDGE('',*,*,#526,.T.);
#687=ORIENTED_EDGE('',*,*,#524,.T.);
#688=ORIENTED_EDGE('',*,*,#526,.F.);
#689=ORIENTED_EDGE('',*,*,#527,.F.);
#690=ORIENTED_EDGE('',*,*,#528,.F.);
#691=ORIENTED_EDGE('',*,*,#519,.F.);
#692=ORIENTED_EDGE('',*,*,#529,.T.);
#693=ORIENTED_EDGE('',*,*,#530,.F.);
#694=ORIENTED_EDGE('',*,*,#531,.F.);
#695=ORIENTED_EDGE('',*,*,#532,.F.);
#696=ORIENTED_EDGE('',*,*,#533,.F.);
#697=ORIENTED_EDGE('',*,*,#504,.F.);
#698=ORIENTED_EDGE('',*,*,#534,.T.);
#699=ORIENTED_EDGE('',*,*,#535,.F.);
#700=ORIENTED_EDGE('',*,*,#536,.F.);
#701=ORIENTED_EDGE('',*,*,#525,.T.);
#702=ORIENTED_EDGE('',*,*,#533,.T.);
#703=ORIENTED_EDGE('',*,*,#537,.T.);
#704=ORIENTED_EDGE('',*,*,#538,.F.);
#705=ORIENTED_EDGE('',*,*,#505,.F.);
#706=ORIENTED_EDGE('',*,*,#532,.T.);
#707=ORIENTED_EDGE('',*,*,#539,.T.);
#708=ORIENTED_EDGE('',*,*,#540,.F.);
#709=ORIENTED_EDGE('',*,*,#537,.F.);
#710=ORIENTED_EDGE('',*,*,#531,.T.);
#711=ORIENTED_EDGE('',*,*,#541,.T.);
#712=ORIENTED_EDGE('',*,*,#542,.F.);
#713=ORIENTED_EDGE('',*,*,#539,.F.);
#714=ORIENTED_EDGE('',*,*,#543,.T.);
#715=ORIENTED_EDGE('',*,*,#544,.T.);
#716=ORIENTED_EDGE('',*,*,#545,.F.);
#717=ORIENTED_EDGE('',*,*,#546,.F.);
#718=ORIENTED_EDGE('',*,*,#547,.T.);
#719=ORIENTED_EDGE('',*,*,#546,.T.);
#720=ORIENTED_EDGE('',*,*,#548,.F.);
#721=ORIENTED_EDGE('',*,*,#549,.F.);
#722=ORIENTED_EDGE('',*,*,#529,.F.);
#723=ORIENTED_EDGE('',*,*,#522,.T.);
#724=ORIENTED_EDGE('',*,*,#550,.F.);
#725=ORIENTED_EDGE('',*,*,#551,.F.);
#726=ORIENTED_EDGE('',*,*,#552,.T.);
#727=ORIENTED_EDGE('',*,*,#516,.T.);
#728=ORIENTED_EDGE('',*,*,#510,.F.);
#729=ORIENTED_EDGE('',*,*,#515,.F.);
#730=ORIENTED_EDGE('',*,*,#530,.T.);
#731=ORIENTED_EDGE('',*,*,#549,.T.);
#732=ORIENTED_EDGE('',*,*,#553,.F.);
#733=ORIENTED_EDGE('',*,*,#541,.F.);
#734=ORIENTED_EDGE('',*,*,#553,.T.);
#735=ORIENTED_EDGE('',*,*,#548,.T.);
#736=ORIENTED_EDGE('',*,*,#545,.T.);
#737=ORIENTED_EDGE('',*,*,#554,.T.);
#738=ORIENTED_EDGE('',*,*,#506,.T.);
#739=ORIENTED_EDGE('',*,*,#538,.T.);
#740=ORIENTED_EDGE('',*,*,#540,.T.);
#741=ORIENTED_EDGE('',*,*,#542,.T.);
#742=ORIENTED_EDGE('',*,*,#528,.T.);
#743=ORIENTED_EDGE('',*,*,#555,.T.);
#744=ORIENTED_EDGE('',*,*,#556,.F.);
#745=ORIENTED_EDGE('',*,*,#520,.F.);
#746=ORIENTED_EDGE('',*,*,#527,.T.);
#747=ORIENTED_EDGE('',*,*,#557,.T.);
#748=ORIENTED_EDGE('',*,*,#558,.F.);
#749=ORIENTED_EDGE('',*,*,#555,.F.);
#750=ORIENTED_EDGE('',*,*,#559,.T.);
#751=ORIENTED_EDGE('',*,*,#551,.T.);
#752=ORIENTED_EDGE('',*,*,#560,.F.);
#753=ORIENTED_EDGE('',*,*,#561,.F.);
#754=ORIENTED_EDGE('',*,*,#562,.T.);
#755=ORIENTED_EDGE('',*,*,#561,.T.);
#756=ORIENTED_EDGE('',*,*,#563,.F.);
#757=ORIENTED_EDGE('',*,*,#564,.F.);
#758=ORIENTED_EDGE('',*,*,#534,.F.);
#759=ORIENTED_EDGE('',*,*,#507,.T.);
#760=ORIENTED_EDGE('',*,*,#554,.F.);
#761=ORIENTED_EDGE('',*,*,#544,.F.);
#762=ORIENTED_EDGE('',*,*,#565,.T.);
#763=ORIENTED_EDGE('',*,*,#501,.T.);
#764=ORIENTED_EDGE('',*,*,#495,.F.);
#765=ORIENTED_EDGE('',*,*,#500,.F.);
#766=ORIENTED_EDGE('',*,*,#535,.T.);
#767=ORIENTED_EDGE('',*,*,#564,.T.);
#768=ORIENTED_EDGE('',*,*,#566,.F.);
#769=ORIENTED_EDGE('',*,*,#567,.F.);
#770=ORIENTED_EDGE('',*,*,#536,.T.);
#771=ORIENTED_EDGE('',*,*,#567,.T.);
#772=ORIENTED_EDGE('',*,*,#568,.F.);
#773=ORIENTED_EDGE('',*,*,#557,.F.);
#774=ORIENTED_EDGE('',*,*,#568,.T.);
#775=ORIENTED_EDGE('',*,*,#566,.T.);
#776=ORIENTED_EDGE('',*,*,#563,.T.);
#777=ORIENTED_EDGE('',*,*,#560,.T.);
#778=ORIENTED_EDGE('',*,*,#550,.T.);
#779=ORIENTED_EDGE('',*,*,#521,.T.);
#780=ORIENTED_EDGE('',*,*,#556,.T.);
#781=ORIENTED_EDGE('',*,*,#558,.T.);
#782=ORIENTED_EDGE('',*,*,#499,.F.);
#783=ORIENTED_EDGE('',*,*,#508,.F.);
#784=ORIENTED_EDGE('',*,*,#502,.F.);
#785=ORIENTED_EDGE('',*,*,#565,.F.);
#786=ORIENTED_EDGE('',*,*,#543,.F.);
#787=ORIENTED_EDGE('',*,*,#547,.F.);
#788=ORIENTED_EDGE('',*,*,#514,.F.);
#789=ORIENTED_EDGE('',*,*,#523,.F.);
#790=ORIENTED_EDGE('',*,*,#517,.F.);
#791=ORIENTED_EDGE('',*,*,#552,.F.);
#792=ORIENTED_EDGE('',*,*,#559,.F.);
#793=ORIENTED_EDGE('',*,*,#562,.F.);
#794=ORIENTED_EDGE('',*,*,#471,.T.);
#795=ORIENTED_EDGE('',*,*,#474,.T.);
#796=ORIENTED_EDGE('',*,*,#477,.T.);
#797=ORIENTED_EDGE('',*,*,#480,.T.);
#798=ORIENTED_EDGE('',*,*,#483,.T.);
#799=ORIENTED_EDGE('',*,*,#486,.T.);
#800=ORIENTED_EDGE('',*,*,#489,.T.);
#801=ORIENTED_EDGE('',*,*,#492,.T.);
#802=ORIENTED_EDGE('',*,*,#449,.T.);
#803=ORIENTED_EDGE('',*,*,#453,.T.);
#804=ORIENTED_EDGE('',*,*,#456,.T.);
#805=ORIENTED_EDGE('',*,*,#459,.T.);
#806=ORIENTED_EDGE('',*,*,#462,.T.);
#807=ORIENTED_EDGE('',*,*,#465,.T.);
#808=ORIENTED_EDGE('',*,*,#468,.T.);
#809=CYLINDRICAL_SURFACE('',#875,5.62953515450162);
#810=CYLINDRICAL_SURFACE('',#879,5.62953515450158);
#811=CYLINDRICAL_SURFACE('',#882,5.62953515450157);
#812=CYLINDRICAL_SURFACE('',#885,5.62953515450159);
#813=CYLINDRICAL_SURFACE('',#888,5.62953515450159);
#814=CYLINDRICAL_SURFACE('',#892,5.62953515450162);
#815=CYLINDRICAL_SURFACE('',#910,13.);
#816=ADVANCED_FACE('',(#70),#809,.F.);
#817=ADVANCED_FACE('',(#71),#66,.F.);
#818=ADVANCED_FACE('',(#72),#26,.F.);
#819=ADVANCED_FACE('',(#73),#810,.F.);
#820=ADVANCED_FACE('',(#74),#811,.F.);
#821=ADVANCED_FACE('',(#75),#812,.F.);
#822=ADVANCED_FACE('',(#76),#813,.F.);
#823=ADVANCED_FACE('',(#77),#27,.F.);
#824=ADVANCED_FACE('',(#78),#67,.F.);
#825=ADVANCED_FACE('',(#79),#814,.F.);
#826=ADVANCED_FACE('',(#80),#68,.F.);
#827=ADVANCED_FACE('',(#81),#28,.F.);
#828=ADVANCED_FACE('',(#82),#29,.F.);
#829=ADVANCED_FACE('',(#83),#30,.F.);
#830=ADVANCED_FACE('',(#84),#69,.F.);
#831=ADVANCED_FACE('',(#85),#31,.F.);
#832=ADVANCED_FACE('',(#86),#32,.T.);
#833=ADVANCED_FACE('',(#87),#33,.T.);
#834=ADVANCED_FACE('',(#88),#34,.T.);
#835=ADVANCED_FACE('',(#89),#35,.T.);
#836=ADVANCED_FACE('',(#90),#36,.F.);
#837=ADVANCED_FACE('',(#91),#37,.T.);
#838=ADVANCED_FACE('',(#92),#38,.T.);
#839=ADVANCED_FACE('',(#93),#39,.T.);
#840=ADVANCED_FACE('',(#94),#40,.T.);
#841=ADVANCED_FACE('',(#95,#23),#41,.T.);
#842=ADVANCED_FACE('',(#96),#815,.F.);
#843=ADVANCED_FACE('',(#97,#24),#42,.T.);
#844=ADVANCED_FACE('',(#98),#43,.T.);
#845=ADVANCED_FACE('',(#99),#44,.T.);
#846=ADVANCED_FACE('',(#100),#45,.T.);
#847=ADVANCED_FACE('',(#101),#46,.T.);
#848=ADVANCED_FACE('',(#102),#47,.T.);
#849=ADVANCED_FACE('',(#103),#48,.T.);
#850=ADVANCED_FACE('',(#104),#49,.T.);
#851=ADVANCED_FACE('',(#105),#50,.T.);
#852=ADVANCED_FACE('',(#106),#51,.T.);
#853=ADVANCED_FACE('',(#107),#52,.T.);
#854=ADVANCED_FACE('',(#108),#53,.T.);
#855=ADVANCED_FACE('',(#109),#54,.T.);
#856=ADVANCED_FACE('',(#110),#55,.T.);
#857=ADVANCED_FACE('',(#111),#56,.T.);
#858=ADVANCED_FACE('',(#112,#25),#57,.F.);
#859=CLOSED_SHELL('',(#816,#817,#818,#819,#820,#821,#822,#823,#824,#825,
#826,#827,#828,#829,#830,#831,#832,#833,#834,#835,#836,#837,#838,#839,#840,
#841,#842,#843,#844,#845,#846,#847,#848,#849,#850,#851,#852,#853,#854,#855,
#856,#857,#858));
#860=DERIVED_UNIT_ELEMENT(#862,1.);
#861=DERIVED_UNIT_ELEMENT(#1453,-3.);
#862=(
MASS_UNIT()
NAMED_UNIT(*)
SI_UNIT(.KILO.,.GRAM.)
);
#863=DERIVED_UNIT((#860,#861));
#864=MEASURE_REPRESENTATION_ITEM('density measure',
POSITIVE_RATIO_MEASURE(7850.),#863);
#865=PROPERTY_DEFINITION_REPRESENTATION(#870,#867);
#866=PROPERTY_DEFINITION_REPRESENTATION(#871,#868);
#867=REPRESENTATION('material name',(#869),#1450);
#868=REPRESENTATION('density',(#864),#1450);
#869=DESCRIPTIVE_REPRESENTATION_ITEM('Steel','Steel');
#870=PROPERTY_DEFINITION('material property','material name',#1470);
#871=PROPERTY_DEFINITION('material property','density of part',#1470);
#872=AXIS2_PLACEMENT_3D('',#1144,#930,#931);
#873=AXIS2_PLACEMENT_3D('',#1145,#932,#933);
#874=AXIS2_PLACEMENT_3D('',#1146,#934,#935);
#875=AXIS2_PLACEMENT_3D('',#1147,#936,#937);
#876=AXIS2_PLACEMENT_3D('',#1150,#938,#939);
#877=AXIS2_PLACEMENT_3D('',#1154,#941,#942);
#878=AXIS2_PLACEMENT_3D('',#1175,#945,#946);
#879=AXIS2_PLACEMENT_3D('',#1181,#950,#951);
#880=AXIS2_PLACEMENT_3D('',#1183,#952,#953);
#881=AXIS2_PLACEMENT_3D('',#1185,#954,#955);
#882=AXIS2_PLACEMENT_3D('',#1187,#957,#958);
#883=AXIS2_PLACEMENT_3D('',#1189,#959,#960);
#884=AXIS2_PLACEMENT_3D('',#1191,#961,#962);
#885=AXIS2_PLACEMENT_3D('',#1193,#964,#965);
#886=AXIS2_PLACEMENT_3D('',#1195,#966,#967);
#887=AXIS2_PLACEMENT_3D('',#1197,#968,#969);
#888=AXIS2_PLACEMENT_3D('',#1199,#971,#972);
#889=AXIS2_PLACEMENT_3D('',#1201,#973,#974);
#890=AXIS2_PLACEMENT_3D('',#1203,#975,#976);
#891=AXIS2_PLACEMENT_3D('',#1205,#978,#979);
#892=AXIS2_PLACEMENT_3D('',#1230,#984,#985);
#893=AXIS2_PLACEMENT_3D('',#1232,#986,#987);
#894=AXIS2_PLACEMENT_3D('',#1234,#988,#989);
#895=AXIS2_PLACEMENT_3D('',#1255,#992,#993);
#896=AXIS2_PLACEMENT_3D('',#1261,#997,#998);
#897=AXIS2_PLACEMENT_3D('',#1267,#1002,#1003);
#898=AXIS2_PLACEMENT_3D('',#1289,#1007,#1008);
#899=AXIS2_PLACEMENT_3D('',#1298,#1013,#1014);
#900=AXIS2_PLACEMENT_3D('',#1304,#1018,#1019);
#901=AXIS2_PLACEMENT_3D('',#1310,#1023,#1024);
#902=AXIS2_PLACEMENT_3D('',#1319,#1029,#1030);
#903=AXIS2_PLACEMENT_3D('',#1321,#1032,#1033);
#904=AXIS2_PLACEMENT_3D('',#1330,#1038,#1039);
#905=AXIS2_PLACEMENT_3D('',#1336,#1043,#1044);
#906=AXIS2_PLACEMENT_3D('',#1342,#1048,#1049);
#907=AXIS2_PLACEMENT_3D('',#1351,#1054,#1055);
#908=AXIS2_PLACEMENT_3D('',#1353,#1057,#1058);
#909=AXIS2_PLACEMENT_3D('',#1355,#1059,#1060);
#910=AXIS2_PLACEMENT_3D('',#1356,#1061,#1062);
#911=AXIS2_PLACEMENT_3D('',#1358,#1063,#1064);
#912=AXIS2_PLACEMENT_3D('',#1360,#1066,#1067);
#913=AXIS2_PLACEMENT_3D('',#1379,#1078,#1079);
#914=AXIS2_PLACEMENT_3D('',#1383,#1082,#1083);
#915=AXIS2_PLACEMENT_3D('',#1387,#1086,#1087);
#916=AXIS2_PLACEMENT_3D('',#1391,#1090,#1091);
#917=AXIS2_PLACEMENT_3D('',#1400,#1096,#1097);
#918=AXIS2_PLACEMENT_3D('',#1410,#1104,#1105);
#919=AXIS2_PLACEMENT_3D('',#1412,#1107,#1108);
#920=AXIS2_PLACEMENT_3D('',#1414,#1110,#1111);
#921=AXIS2_PLACEMENT_3D('',#1418,#1114,#1115);
#922=AXIS2_PLACEMENT_3D('',#1422,#1118,#1119);
#923=AXIS2_PLACEMENT_3D('',#1428,#1123,#1124);
#924=AXIS2_PLACEMENT_3D('',#1434,#1129,#1130);
#925=AXIS2_PLACEMENT_3D('',#1438,#1133,#1134);
#926=AXIS2_PLACEMENT_3D('',#1440,#1136,#1137);
#927=AXIS2_PLACEMENT_3D('',#1441,#1138,#1139);
#928=AXIS2_PLACEMENT_3D('',#1442,#1140,#1141);
#929=AXIS2_PLACEMENT_3D('',#1443,#1142,#1143);
#930=DIRECTION('axis',(0.,0.,1.));
#931=DIRECTION('refdir',(1.,0.,0.));
#932=DIRECTION('axis',(0.,0.,1.));
#933=DIRECTION('refdir',(1.,0.,0.));
#934=DIRECTION('axis',(0.,0.,1.));
#935=DIRECTION('refdir',(1.,0.,0.));
#936=DIRECTION('center_axis',(0.,0.,-1.));
#937=DIRECTION('ref_axis',(0.663749696166907,-0.747954771920294,0.));
#938=DIRECTION('center_axis',(0.,0.,1.));
#939=DIRECTION('ref_axis',(0.663749696166907,-0.747954771920294,0.));
#940=DIRECTION('',(0.,0.,-1.));
#941=DIRECTION('center_axis',(0.,0.,-1.));
#942=DIRECTION('ref_axis',(0.663749696166907,-0.747954771920294,0.));
#943=DIRECTION('',(0.,0.,-1.));
#944=DIRECTION('',(0.,0.,-1.));
#945=DIRECTION('center_axis',(1.07630850572737E-12,1.,0.));
#946=DIRECTION('ref_axis',(1.,-1.07630850572737E-12,0.));
#947=DIRECTION('',(-1.,1.07630850572737E-12,0.));
#948=DIRECTION('',(1.,-1.07630850572737E-12,0.));
#949=DIRECTION('',(0.,0.,-1.));
#950=DIRECTION('center_axis',(0.,0.,-1.));
#951=DIRECTION('ref_axis',(0.999999784390711,-0.000656672317205785,0.));
#952=DIRECTION('center_axis',(0.,0.,1.));
#953=DIRECTION('ref_axis',(0.999999784390711,-0.000656672317205785,0.));
#954=DIRECTION('center_axis',(0.,0.,-1.));
#955=DIRECTION('ref_axis',(0.999999784390711,-0.000656672317205785,0.));
#956=DIRECTION('',(0.,0.,-1.));
#957=DIRECTION('center_axis',(0.,0.,-1.));
#958=DIRECTION('ref_axis',(-0.928972218107366,0.370149453578795,0.));
#959=DIRECTION('center_axis',(0.,0.,1.));
#960=DIRECTION('ref_axis',(-0.928972218107366,0.370149453578795,0.));
#961=DIRECTION('center_axis',(0.,0.,-1.));
#962=DIRECTION('ref_axis',(-0.928972218107366,0.370149453578795,0.));
#963=DIRECTION('',(0.,0.,-1.));
#964=DIRECTION('center_axis',(0.,0.,-1.));
#965=DIRECTION('ref_axis',(-0.999999999985049,-5.46827386178743E-6,0.));
#966=DIRECTION('center_axis',(0.,0.,1.));
#967=DIRECTION('ref_axis',(-0.999999999985049,-5.46827386178743E-6,0.));
#968=DIRECTION('center_axis',(0.,0.,-1.));
#969=DIRECTION('ref_axis',(-0.999999999985049,-5.46827386178743E-6,0.));
#970=DIRECTION('',(0.,0.,-1.));
#971=DIRECTION('center_axis',(0.,0.,-1.));
#972=DIRECTION('ref_axis',(-0.667351175921048,-0.744743182578259,0.));
#973=DIRECTION('center_axis',(0.,0.,1.));
#974=DIRECTION('ref_axis',(-0.667351175921048,-0.744743182578259,0.));
#975=DIRECTION('center_axis',(0.,0.,-1.));
#976=DIRECTION('ref_axis',(-0.667351175921048,-0.744743182578259,0.));
#977=DIRECTION('',(0.,0.,-1.));
#978=DIRECTION('center_axis',(0.,1.,0.));
#979=DIRECTION('ref_axis',(1.,0.,0.));
#980=DIRECTION('',(-1.,0.,0.));
#981=DIRECTION('',(1.,0.,0.));
#982=DIRECTION('',(0.,0.,-1.));
#983=DIRECTION('',(0.,0.,-1.));
#984=DIRECTION('center_axis',(0.,0.,-1.));
#985=DIRECTION('ref_axis',(-0.540463143925796,-0.84136769016753,0.));
#986=DIRECTION('center_axis',(0.,0.,1.));
#987=DIRECTION('ref_axis',(-0.540463143925796,-0.84136769016753,0.));
#988=DIRECTION('center_axis',(0.,0.,-1.));
#989=DIRECTION('ref_axis',(-0.540463143925796,-0.84136769016753,0.));
#990=DIRECTION('',(0.,0.,-1.));
#991=DIRECTION('',(0.,0.,-1.));
#992=DIRECTION('center_axis',(-1.,0.,0.));
#993=DIRECTION('ref_axis',(0.,1.,0.));
#994=DIRECTION('',(0.,-1.,0.));
#995=DIRECTION('',(0.,1.,0.));
#996=DIRECTION('',(0.,0.,-1.));
#997=DIRECTION('center_axis',(0.,-1.,0.));
#998=DIRECTION('ref_axis',(-1.,0.,0.));
#999=DIRECTION('',(1.,0.,0.));
#1000=DIRECTION('',(-1.,0.,0.));
#1001=DIRECTION('',(0.,0.,-1.));
#1002=DIRECTION('center_axis',(1.,0.,0.));
#1003=DIRECTION('ref_axis',(0.,-1.,0.));
#1004=DIRECTION('',(0.,1.,0.));
#1005=DIRECTION('',(0.,-1.,0.));
#1006=DIRECTION('',(0.,0.,-1.));
#1007=DIRECTION('center_axis',(0.,0.,1.));
#1008=DIRECTION('ref_axis',(1.,0.,0.));
#1009=DIRECTION('',(0.,-1.,0.));
#1010=DIRECTION('',(1.,0.,0.));
#1011=DIRECTION('',(0.,1.,0.));
#1012=DIRECTION('',(1.,0.,0.));
#1013=DIRECTION('center_axis',(1.,0.,0.));
#1014=DIRECTION('ref_axis',(0.,1.,0.));
#1015=DIRECTION('',(0.,0.,1.));
#1016=DIRECTION('',(0.,-1.,0.));
#1017=DIRECTION('',(0.,0.,-1.));
#1018=DIRECTION('center_axis',(-1.,0.,0.));
#1019=DIRECTION('ref_axis',(0.,-1.,0.));
#1020=DIRECTION('',(0.,0.,1.));
#1021=DIRECTION('',(0.,1.,0.));
#1022=DIRECTION('',(0.,0.,-1.));
#1023=DIRECTION('center_axis',(-1.,0.,0.));
#1024=DIRECTION('ref_axis',(0.,-1.,0.));
#1025=DIRECTION('',(0.,1.,0.));
#1026=DIRECTION('',(0.,0.,1.));
#1027=DIRECTION('',(0.,1.,0.));
#1028=DIRECTION('',(0.,0.,1.));
#1029=DIRECTION('center_axis',(0.,1.,0.));
#1030=DIRECTION('ref_axis',(-1.,0.,0.));
#1031=DIRECTION('',(1.,0.,0.));
#1032=DIRECTION('center_axis',(0.,0.,1.));
#1033=DIRECTION('ref_axis',(1.,0.,0.));
#1034=DIRECTION('',(0.,1.,0.));
#1035=DIRECTION('',(-1.,0.,0.));
#1036=DIRECTION('',(0.,-1.,0.));
#1037=DIRECTION('',(-1.,0.,0.));
#1038=DIRECTION('center_axis',(-1.,0.,0.));
#1039=DIRECTION('ref_axis',(0.,-1.,0.));
#1040=DIRECTION('',(0.,0.,1.));
#1041=DIRECTION('',(0.,1.,0.));
#1042=DIRECTION('',(0.,0.,-1.));
#1043=DIRECTION('center_axis',(1.,0.,0.));
#1044=DIRECTION('ref_axis',(0.,1.,0.));
#1045=DIRECTION('',(0.,0.,1.));
#1046=DIRECTION('',(0.,-1.,0.));
#1047=DIRECTION('',(0.,0.,-1.));
#1048=DIRECTION('center_axis',(1.,0.,0.));
#1049=DIRECTION('ref_axis',(0.,1.,0.));
#1050=DIRECTION('',(0.,-1.,0.));
#1051=DIRECTION('',(0.,0.,1.));
#1052=DIRECTION('',(0.,-1.,0.));
#1053=DIRECTION('',(0.,0.,1.));
#1054=DIRECTION('center_axis',(0.,-1.,0.));
#1055=DIRECTION('ref_axis',(1.,0.,0.));
#1056=DIRECTION('',(-1.,0.,0.));
#1057=DIRECTION('center_axis',(0.,0.,1.));
#1058=DIRECTION('ref_axis',(1.,0.,0.));
#1059=DIRECTION('center_axis',(0.,0.,-1.));
#1060=DIRECTION('ref_axis',(1.,0.,0.));
#1061=DIRECTION('center_axis',(0.,0.,1.));
#1062=DIRECTION('ref_axis',(1.,0.,0.));
#1063=DIRECTION('center_axis',(0.,0.,-1.));
#1064=DIRECTION('ref_axis',(1.,0.,0.));
#1065=DIRECTION('',(0.,0.,-1.));
#1066=DIRECTION('center_axis',(0.,0.,1.));
#1067=DIRECTION('ref_axis',(1.,0.,0.));
#1068=DIRECTION('',(0.,1.,0.));
#1069=DIRECTION('',(-1.,0.,0.));
#1070=DIRECTION('',(-1.,0.,0.));
#1071=DIRECTION('',(0.,1.,0.));
#1072=DIRECTION('',(-1.,0.,0.));
#1073=DIRECTION('',(0.,-1.,0.));
#1074=DIRECTION('',(1.,0.,0.));
#1075=DIRECTION('',(1.,0.,0.));
#1076=DIRECTION('',(0.,-1.,0.));
#1077=DIRECTION('',(1.,0.,0.));
#1078=DIRECTION('center_axis',(0.,-1.,0.));
#1079=DIRECTION('ref_axis',(1.,0.,0.));
#1080=DIRECTION('',(0.,0.,1.));
#1081=DIRECTION('',(1.,0.,0.));
#1082=DIRECTION('center_axis',(-1.,0.,0.));
#1083=DIRECTION('ref_axis',(0.,-1.,0.));
#1084=DIRECTION('',(0.,0.,1.));
#1085=DIRECTION('',(0.,-1.,0.));
#1086=DIRECTION('center_axis',(0.,1.,0.));
#1087=DIRECTION('ref_axis',(-1.,0.,0.));
#1088=DIRECTION('',(0.,0.,-1.));
#1089=DIRECTION('',(-1.,0.,0.));
#1090=DIRECTION('center_axis',(1.,0.,0.));
#1091=DIRECTION('ref_axis',(0.,1.,0.));
#1092=DIRECTION('',(0.,-1.,0.));
#1093=DIRECTION('',(0.,0.,-1.));
#1094=DIRECTION('',(0.,-1.,0.));
#1095=DIRECTION('',(0.,0.,1.));
#1096=DIRECTION('center_axis',(0.,-1.,0.));
#1097=DIRECTION('ref_axis',(1.,0.,0.));
#1098=DIRECTION('',(-1.,0.,0.));
#1099=DIRECTION('',(-1.,0.,0.));
#1100=DIRECTION('',(0.,0.,-1.));
#1101=DIRECTION('',(-1.,0.,0.));
#1102=DIRECTION('',(0.,0.,-1.));
#1103=DIRECTION('',(-1.,0.,0.));
#1104=DIRECTION('center_axis',(-1.,0.,0.));
#1105=DIRECTION('ref_axis',(0.,-1.,0.));
#1106=DIRECTION('',(0.,1.,0.));
#1107=DIRECTION('center_axis',(0.,0.,1.));
#1108=DIRECTION('ref_axis',(1.,0.,0.));
#1109=DIRECTION('',(1.,0.,0.));
#1110=DIRECTION('center_axis',(0.,1.,0.));
#1111=DIRECTION('ref_axis',(-1.,0.,0.));
#1112=DIRECTION('',(0.,0.,1.));
#1113=DIRECTION('',(-1.,0.,0.));
#1114=DIRECTION('center_axis',(1.,0.,0.));
#1115=DIRECTION('ref_axis',(0.,1.,0.));
#1116=DIRECTION('',(0.,0.,1.));
#1117=DIRECTION('',(0.,1.,0.));
#1118=DIRECTION('center_axis',(-1.,0.,0.));
#1119=DIRECTION('ref_axis',(0.,-1.,0.));
#1120=DIRECTION('',(0.,1.,0.));
#1121=DIRECTION('',(0.,1.,0.));
#1122=DIRECTION('',(0.,0.,-1.));
#1123=DIRECTION('center_axis',(0.,1.,0.));
#1124=DIRECTION('ref_axis',(-1.,0.,0.));
#1125=DIRECTION('',(1.,0.,0.));
#1126=DIRECTION('',(1.,0.,0.));
#1127=DIRECTION('',(0.,0.,-1.));
#1128=DIRECTION('',(1.,0.,0.));
#1129=DIRECTION('center_axis',(1.,0.,0.));
#1130=DIRECTION('ref_axis',(0.,1.,0.));
#1131=DIRECTION('',(0.,-1.,0.));
#1132=DIRECTION('',(0.,0.,-1.));
#1133=DIRECTION('center_axis',(0.,-1.,0.));
#1134=DIRECTION('ref_axis',(1.,0.,0.));
#1135=DIRECTION('',(1.,0.,0.));
#1136=DIRECTION('center_axis',(0.,0.,1.));
#1137=DIRECTION('ref_axis',(1.,0.,0.));
#1138=DIRECTION('center_axis',(0.,0.,1.));
#1139=DIRECTION('ref_axis',(1.,0.,0.));
#1140=DIRECTION('',(0.,0.,1.));
#1141=DIRECTION('',(1.,0.,0.));
#1142=DIRECTION('',(0.,0.,1.));
#1143=DIRECTION('',(1.,0.,0.));
#1144=CARTESIAN_POINT('',(0.,0.,0.));
#1145=CARTESIAN_POINT('',(0.,0.,0.));
#1146=CARTESIAN_POINT('',(0.,0.,0.));
#1147=CARTESIAN_POINT('Origin',(53.8691702285294,26.459211524644,1.));
#1148=CARTESIAN_POINT('',(56.9115238323798,21.7225723569526,0.));
#1149=CARTESIAN_POINT('',(57.6057724768907,22.2485738421414,0.));
#1150=CARTESIAN_POINT('Origin',(53.8691702285294,26.459211524644,0.));
#1151=CARTESIAN_POINT('',(56.9115238323798,21.7225723569526,1.));
#1152=CARTESIAN_POINT('',(56.9115238323798,21.7225723569526,1.));
#1153=CARTESIAN_POINT('',(57.6057724768907,22.2485738421414,1.));
#1154=CARTESIAN_POINT('Origin',(53.8691702285294,26.459211524644,1.));
#1155=CARTESIAN_POINT('',(57.6057724768907,22.2485738421414,1.));
#1156=CARTESIAN_POINT('Ctrl Pts',(57.6303349311144,22.2661438291206,1.));
#1157=CARTESIAN_POINT('Ctrl Pts',(57.6303349311144,22.2661438291206,-3.));
#1158=CARTESIAN_POINT('Ctrl Pts',(57.6216549053779,22.2597811683947,1.));
#1159=CARTESIAN_POINT('Ctrl Pts',(57.6216549053779,22.2597811683947,-3.));
#1160=CARTESIAN_POINT('Ctrl Pts',(57.6143434976529,22.2547104184761,1.));
#1161=CARTESIAN_POINT('Ctrl Pts',(57.6143434976529,22.2547104184761,-3.));
#1162=CARTESIAN_POINT('Ctrl Pts',(57.6057724768907,22.2485738421414,1.));
#1163=CARTESIAN_POINT('Ctrl Pts',(57.6057724768907,22.2485738421414,-3.));
#1164=CARTESIAN_POINT('',(57.6303349311144,22.2661438291206,0.));
#1165=CARTESIAN_POINT('Ctrl Pts',(57.6057724768907,22.2485738421414,0.));
#1166=CARTESIAN_POINT('Ctrl Pts',(57.6143434976529,22.2547104184761,0.));
#1167=CARTESIAN_POINT('Ctrl Pts',(57.6216549053779,22.2597811683947,0.));
#1168=CARTESIAN_POINT('Ctrl Pts',(57.6303349311144,22.2661438291206,0.));
#1169=CARTESIAN_POINT('',(57.6303349311144,22.2661438291206,1.));
#1170=CARTESIAN_POINT('Ctrl Pts',(57.6303349311144,22.2661438291206,1.));
#1171=CARTESIAN_POINT('Ctrl Pts',(57.6216549053779,22.2597811683947,1.));
#1172=CARTESIAN_POINT('Ctrl Pts',(57.6143434976529,22.2547104184761,1.));
#1173=CARTESIAN_POINT('Ctrl Pts',(57.6057724768907,22.2485738421414,1.));
#1174=CARTESIAN_POINT('',(57.6303349311144,22.2661438291206,1.));
#1175=CARTESIAN_POINT('Origin',(57.6262088909736,22.2661438291206,1.));
#1176=CARTESIAN_POINT('',(57.6262088909736,22.2661438291206,0.));
#1177=CARTESIAN_POINT('',(41.3131044454853,22.2661438291382,0.));
#1178=CARTESIAN_POINT('',(57.6262088909736,22.2661438291206,1.));
#1179=CARTESIAN_POINT('',(55.8131044454853,22.2661438291225,1.));
#1180=CARTESIAN_POINT('',(57.6262088909736,22.2661438291206,1.));
#1181=CARTESIAN_POINT('Origin',(53.8690776182513,26.4584738084163,1.));
#1182=CARTESIAN_POINT('',(59.4986115589728,26.4547770485216,0.));
#1183=CARTESIAN_POINT('Origin',(53.8690776182513,26.4584738084163,0.));
#1184=CARTESIAN_POINT('',(59.4986115589728,26.4547770485216,1.));
#1185=CARTESIAN_POINT('Origin',(53.8690776182513,26.4584738084163,1.));
#1186=CARTESIAN_POINT('',(59.4986115589728,26.4547770485216,1.));
#1187=CARTESIAN_POINT('Origin',(53.8690764045554,26.4548078323616,1.));
#1188=CARTESIAN_POINT('',(48.6393946451647,28.5385771937029,0.));
#1189=CARTESIAN_POINT('Origin',(53.8690764045554,26.4548078323616,0.));
#1190=CARTESIAN_POINT('',(48.6393946451647,28.5385771937029,1.));
#1191=CARTESIAN_POINT('Origin',(53.8690764045554,26.4548078323616,1.));
#1192=CARTESIAN_POINT('',(48.6393946451647,28.5385771937029,1.));
#1193=CARTESIAN_POINT('Origin',(53.8691278789583,26.4549370234423,1.));
#1194=CARTESIAN_POINT('',(48.2395927245409,26.4549062396024,0.));
#1195=CARTESIAN_POINT('Origin',(53.8691278789583,26.4549370234423,0.));
#1196=CARTESIAN_POINT('',(48.2395927245409,26.4549062396024,1.));
#1197=CARTESIAN_POINT('Origin',(53.8691278789583,26.4549370234423,1.));
#1198=CARTESIAN_POINT('',(48.2395927245409,26.4549062396024,1.));
#1199=CARTESIAN_POINT('Origin',(53.8691266427259,26.4586371609799,1.));
#1200=CARTESIAN_POINT('',(50.1122497374803,22.2660792335802,0.));
#1201=CARTESIAN_POINT('Origin',(53.8691266427259,26.4586371609799,0.));
#1202=CARTESIAN_POINT('',(50.1122497374803,22.2660792335802,1.));
#1203=CARTESIAN_POINT('Origin',(53.8691266427259,26.4586371609799,1.));
#1204=CARTESIAN_POINT('',(50.1122497374803,22.2660792335802,1.));
#1205=CARTESIAN_POINT('Origin',(50.1081236973396,22.2660792335802,1.));
#1206=CARTESIAN_POINT('',(50.1081236973396,22.2660792335802,0.));
#1207=CARTESIAN_POINT('',(37.5540618486698,22.2660792335802,0.));
#1208=CARTESIAN_POINT('',(50.1081236973396,22.2660792335802,1.));
#1209=CARTESIAN_POINT('',(52.0540618486698,22.2660792335802,1.));
#1210=CARTESIAN_POINT('',(50.1081236973396,22.2660792335802,1.));
#1211=CARTESIAN_POINT('Ctrl Pts',(50.1328799381843,22.2482831622098,1.));
#1212=CARTESIAN_POINT('Ctrl Pts',(50.1328799381843,22.2482831622098,-3.));
#1213=CARTESIAN_POINT('Ctrl Pts',(50.1241999124478,22.2546458229357,1.));
#1214=CARTESIAN_POINT('Ctrl Pts',(50.1241999124478,22.2546458229357,-3.));
#1215=CARTESIAN_POINT('Ctrl Pts',(50.1169086908291,22.2597165728543,1.));
#1216=CARTESIAN_POINT('Ctrl Pts',(50.1169086908291,22.2597165728543,-3.));
#1217=CARTESIAN_POINT('Ctrl Pts',(50.1081236973396,22.2660792335802,1.));
#1218=CARTESIAN_POINT('Ctrl Pts',(50.1081236973396,22.2660792335802,-3.));
#1219=CARTESIAN_POINT('',(50.1328799381843,22.2482831622098,0.));
#1220=CARTESIAN_POINT('Ctrl Pts',(50.1081236973396,22.2660792335802,0.));
#1221=CARTESIAN_POINT('Ctrl Pts',(50.1169086908291,22.2597165728543,0.));
#1222=CARTESIAN_POINT('Ctrl Pts',(50.1241999124478,22.2546458229357,0.));
#1223=CARTESIAN_POINT('Ctrl Pts',(50.1328799381843,22.2482831622098,0.));
#1224=CARTESIAN_POINT('',(50.1328799381843,22.2482831622098,1.));
#1225=CARTESIAN_POINT('Ctrl Pts',(50.1328799381843,22.2482831622098,1.));
#1226=CARTESIAN_POINT('Ctrl Pts',(50.1241999124478,22.2546458229357,1.));
#1227=CARTESIAN_POINT('Ctrl Pts',(50.1169086908291,22.2597165728543,1.));
#1228=CARTESIAN_POINT('Ctrl Pts',(50.1081236973396,22.2660792335802,1.));
#1229=CARTESIAN_POINT('',(50.1328799381843,22.2482831622098,1.));
#1230=CARTESIAN_POINT('Origin',(53.869301315117,26.4590813466125,1.));
#1231=CARTESIAN_POINT('',(50.8267450466743,21.7225723569526,0.));
#1232=CARTESIAN_POINT('Origin',(53.869301315117,26.4590813466125,0.));
#1233=CARTESIAN_POINT('',(50.8267450466743,21.7225723569526,1.));
#1234=CARTESIAN_POINT('Origin',(53.869301315117,26.4590813466125,1.));
#1235=CARTESIAN_POINT('',(50.8267450466743,21.7225723569526,1.));
#1236=CARTESIAN_POINT('Ctrl Pts',(51.1137107347439,20.8253080035184,1.));
#1237=CARTESIAN_POINT('Ctrl Pts',(51.1137107347439,20.8253080035184,-3.));
#1238=CARTESIAN_POINT('Ctrl Pts',(51.1139570052416,21.299536163105,1.));
#1239=CARTESIAN_POINT('Ctrl Pts',(51.1139570052416,21.299536163105,-3.));
#1240=CARTESIAN_POINT('Ctrl Pts',(51.1139570052416,21.4615740761095,1.));
#1241=CARTESIAN_POINT('Ctrl Pts',(51.1139570052416,21.4615740761095,-3.));
#1242=CARTESIAN_POINT('Ctrl Pts',(50.8267450466743,21.7225723569526,1.));
#1243=CARTESIAN_POINT('Ctrl Pts',(50.8267450466743,21.7225723569526,-3.));
#1244=CARTESIAN_POINT('',(51.1137107347439,20.8253080035184,0.));
#1245=CARTESIAN_POINT('Ctrl Pts',(50.8267450466743,21.7225723569526,0.));
#1246=CARTESIAN_POINT('Ctrl Pts',(51.1139570052416,21.4615740761095,0.));
#1247=CARTESIAN_POINT('Ctrl Pts',(51.1139570052416,21.299536163105,0.));
#1248=CARTESIAN_POINT('Ctrl Pts',(51.1137107347439,20.8253080035184,0.));
#1249=CARTESIAN_POINT('',(51.1137107347439,20.8253080035184,1.));
#1250=CARTESIAN_POINT('Ctrl Pts',(51.1137107347439,20.8253080035184,1.));
#1251=CARTESIAN_POINT('Ctrl Pts',(51.1139570052416,21.299536163105,1.));
#1252=CARTESIAN_POINT('Ctrl Pts',(51.1139570052416,21.4615740761095,1.));
#1253=CARTESIAN_POINT('Ctrl Pts',(50.8267450466743,21.7225723569526,1.));
#1254=CARTESIAN_POINT('',(51.1137107347439,20.8253080035184,1.));
#1255=CARTESIAN_POINT('Origin',(51.1137107347439,19.384439880146,1.));
#1256=CARTESIAN_POINT('',(51.1137107347439,19.384439880146,0.));
#1257=CARTESIAN_POINT('',(51.1137107347439,22.192219940073,0.));
#1258=CARTESIAN_POINT('',(51.1137107347439,19.384439880146,1.));
#1259=CARTESIAN_POINT('',(51.1137107347439,22.192219940073,1.));
#1260=CARTESIAN_POINT('',(51.1137107347439,19.384439880146,1.));
#1261=CARTESIAN_POINT('Origin',(56.6245621815314,19.384439880146,1.));
#1262=CARTESIAN_POINT('',(56.6245621815314,19.384439880146,0.));
#1263=CARTESIAN_POINT('',(40.8122810907657,19.384439880146,0.));
#1264=CARTESIAN_POINT('',(56.6245621815314,19.384439880146,1.));
#1265=CARTESIAN_POINT('',(55.3122810907657,19.384439880146,1.));
#1266=CARTESIAN_POINT('',(56.6245621815314,19.384439880146,1.));
#1267=CARTESIAN_POINT('Origin',(56.6245621815314,20.8253080035184,1.));
#1268=CARTESIAN_POINT('',(56.6245621815315,20.8253080035184,0.));
#1269=CARTESIAN_POINT('',(56.6245621815314,22.9126540017592,0.));
#1270=CARTESIAN_POINT('',(56.6245621815315,20.8253080035184,1.));
#1271=CARTESIAN_POINT('',(56.6245621815314,22.9126540017592,1.));
#1272=CARTESIAN_POINT('',(56.6245621815315,20.8253080035184,1.));
#1273=CARTESIAN_POINT('Ctrl Pts',(56.9115238323798,21.7225723569526,1.));
#1274=CARTESIAN_POINT('Ctrl Pts',(56.9115238323798,21.7225723569526,-3.));
#1275=CARTESIAN_POINT('Ctrl Pts',(56.6245218093187,21.4616386716499,1.));
#1276=CARTESIAN_POINT('Ctrl Pts',(56.6245218093187,21.4616386716499,-3.));
#1277=CARTESIAN_POINT('Ctrl Pts',(56.6245621815314,21.2996330564155,1.));
#1278=CARTESIAN_POINT('Ctrl Pts',(56.6245621815314,21.2996330564155,-3.));
#1279=CARTESIAN_POINT('Ctrl Pts',(56.6245621815314,20.8253080035184,1.));
#1280=CARTESIAN_POINT('Ctrl Pts',(56.6245621815314,20.8253080035184,-3.));
#1281=CARTESIAN_POINT('Ctrl Pts',(56.6245621815314,20.8253080035184,0.));
#1282=CARTESIAN_POINT('Ctrl Pts',(56.6245621815314,21.2996330564155,0.));
#1283=CARTESIAN_POINT('Ctrl Pts',(56.6245218093187,21.4616386716499,0.));
#1284=CARTESIAN_POINT('Ctrl Pts',(56.9115238323798,21.7225723569526,0.));
#1285=CARTESIAN_POINT('Ctrl Pts',(56.9115238323798,21.7225723569526,1.));
#1286=CARTESIAN_POINT('Ctrl Pts',(56.6245218093187,21.4616386716499,1.));
#1287=CARTESIAN_POINT('Ctrl Pts',(56.6245621815314,21.2996330564155,1.));
#1288=CARTESIAN_POINT('Ctrl Pts',(56.6245621815314,20.8253080035184,1.));
#1289=CARTESIAN_POINT('Origin',(54.,46.,1.));
#1290=CARTESIAN_POINT('',(49.5,49.5,1.));
#1291=CARTESIAN_POINT('',(49.5,41.5,1.));
#1292=CARTESIAN_POINT('',(49.5,47.,1.));
#1293=CARTESIAN_POINT('',(58.5,49.5,1.));
#1294=CARTESIAN_POINT('',(52.,49.5,1.));
#1295=CARTESIAN_POINT('',(58.5,41.5,1.));
#1296=CARTESIAN_POINT('',(58.5,48.,1.));
#1297=CARTESIAN_POINT('',(56.,41.5,1.));
#1298=CARTESIAN_POINT('Origin',(49.5,48.,0.));
#1299=CARTESIAN_POINT('',(49.5,41.5,0.));
#1300=CARTESIAN_POINT('',(49.5,41.5,0.));
#1301=CARTESIAN_POINT('',(49.5,49.5,0.));
#1302=CARTESIAN_POINT('',(49.5,36.5,0.));
#1303=CARTESIAN_POINT('',(49.5,49.5,0.));
#1304=CARTESIAN_POINT('Origin',(58.5,50.,0.));
#1305=CARTESIAN_POINT('',(58.5,49.5,0.));
#1306=CARTESIAN_POINT('',(58.5,49.5,0.));
#1307=CARTESIAN_POINT('',(58.5,41.5,0.));
#1308=CARTESIAN_POINT('',(58.5,37.5,0.));
#1309=CARTESIAN_POINT('',(58.5,41.5,0.));
#1310=CARTESIAN_POINT('Origin',(58.5,50.,0.));
#1311=CARTESIAN_POINT('',(58.5,49.5,2.));
#1312=CARTESIAN_POINT('',(58.5,48.,2.));
#1313=CARTESIAN_POINT('',(58.5,37.5,2.));
#1314=CARTESIAN_POINT('',(58.5,48.,3.));
#1315=CARTESIAN_POINT('',(58.5,48.,0.));
#1316=CARTESIAN_POINT('',(58.5,49.5,3.));
#1317=CARTESIAN_POINT('',(58.5,37.5,3.));
#1318=CARTESIAN_POINT('',(58.5,49.5,0.));
#1319=CARTESIAN_POINT('Origin',(58.,41.5,0.));
#1320=CARTESIAN_POINT('',(41.5,41.5,0.));
#1321=CARTESIAN_POINT('Origin',(54.,4.,1.));
#1322=CARTESIAN_POINT('',(58.5,0.5,1.));
#1323=CARTESIAN_POINT('',(58.5,8.5,1.));
#1324=CARTESIAN_POINT('',(58.5,3.,1.));
#1325=CARTESIAN_POINT('',(49.5,0.5,1.));
#1326=CARTESIAN_POINT('',(56.,0.5,1.));
#1327=CARTESIAN_POINT('',(49.5,8.5,1.));
#1328=CARTESIAN_POINT('',(49.5,2.,1.));
#1329=CARTESIAN_POINT('',(52.,8.5,1.));
#1330=CARTESIAN_POINT('Origin',(58.5,2.,0.));
#1331=CARTESIAN_POINT('',(58.5,8.5,0.));
#1332=CARTESIAN_POINT('',(58.5,8.5,0.));
#1333=CARTESIAN_POINT('',(58.5,0.499999999999999,0.));
#1334=CARTESIAN_POINT('',(58.5,13.5,0.));
#1335=CARTESIAN_POINT('',(58.5,0.5,0.));
#1336=CARTESIAN_POINT('Origin',(49.5,0.,0.));
#1337=CARTESIAN_POINT('',(49.5,0.499999999999999,0.));
#1338=CARTESIAN_POINT('',(49.5,0.5,0.));
#1339=CARTESIAN_POINT('',(49.5,8.5,0.));
#1340=CARTESIAN_POINT('',(49.5,12.5,0.));
#1341=CARTESIAN_POINT('',(49.5,8.5,0.));
#1342=CARTESIAN_POINT('Origin',(49.5,0.,0.));
#1343=CARTESIAN_POINT('',(49.5,0.499999999999999,2.));
#1344=CARTESIAN_POINT('',(49.5,2.,2.));
#1345=CARTESIAN_POINT('',(49.5,12.5,2.));
#1346=CARTESIAN_POINT('',(49.5,2.,3.));
#1347=CARTESIAN_POINT('',(49.5,2.,0.));
#1348=CARTESIAN_POINT('',(49.5,0.499999999999999,3.));
#1349=CARTESIAN_POINT('',(49.5,12.5,3.));
#1350=CARTESIAN_POINT('',(49.5,0.5,0.));
#1351=CARTESIAN_POINT('Origin',(50.,8.5,0.));
#1352=CARTESIAN_POINT('',(37.5,8.5,0.));
#1353=CARTESIAN_POINT('Origin',(54.,25.,1.));
#1354=CARTESIAN_POINT('',(41.,25.,1.));
#1355=CARTESIAN_POINT('Origin',(54.,25.,1.));
#1356=CARTESIAN_POINT('Origin',(54.,25.,0.));
#1357=CARTESIAN_POINT('',(41.,25.,2.));
#1358=CARTESIAN_POINT('Origin',(54.,25.,2.));
#1359=CARTESIAN_POINT('',(41.,25.,0.));
#1360=CARTESIAN_POINT('Origin',(54.,25.,2.));
#1361=CARTESIAN_POINT('',(2.,2.,2.));
#1362=CARTESIAN_POINT('',(2.,48.,2.));
#1363=CARTESIAN_POINT('',(2.,13.5,2.));
#1364=CARTESIAN_POINT('',(52.,2.,2.));
#1365=CARTESIAN_POINT('',(58.5,0.499999999999999,2.));
#1366=CARTESIAN_POINT('',(56.,0.499999999999998,2.));
#1367=CARTESIAN_POINT('',(58.5,2.,2.));
#1368=CARTESIAN_POINT('',(58.5,13.5,2.));
#1369=CARTESIAN_POINT('',(106.,2.,2.));
#1370=CARTESIAN_POINT('',(80.,2.,2.));
#1371=CARTESIAN_POINT('',(106.,48.,2.));
#1372=CARTESIAN_POINT('',(106.,36.5,2.));
#1373=CARTESIAN_POINT('',(56.,48.,2.));
#1374=CARTESIAN_POINT('',(49.5,49.5,2.));
#1375=CARTESIAN_POINT('',(52.,49.5,2.));
#1376=CARTESIAN_POINT('',(49.5,48.,2.));
#1377=CARTESIAN_POINT('',(49.5,36.5,2.));
#1378=CARTESIAN_POINT('',(28.,48.,2.));
#1379=CARTESIAN_POINT('Origin',(58.,48.,0.));
#1380=CARTESIAN_POINT('',(106.,48.,3.));
#1381=CARTESIAN_POINT('',(106.,48.,0.));
#1382=CARTESIAN_POINT('',(48.,48.,3.));
#1383=CARTESIAN_POINT('Origin',(106.,48.,0.));
#1384=CARTESIAN_POINT('',(106.,2.,3.));
#1385=CARTESIAN_POINT('',(106.,2.,0.));
#1386=CARTESIAN_POINT('',(106.,2.,3.));
#1387=CARTESIAN_POINT('Origin',(106.,2.,0.));
#1388=CARTESIAN_POINT('',(58.5,2.,3.));
#1389=CARTESIAN_POINT('',(58.5,2.,0.));
#1390=CARTESIAN_POINT('',(60.,2.,3.));
#1391=CARTESIAN_POINT('Origin',(107.5,0.,0.));
#1392=CARTESIAN_POINT('',(107.5,0.499999999999999,0.));
#1393=CARTESIAN_POINT('',(107.5,49.5,0.));
#1394=CARTESIAN_POINT('',(107.5,12.5,0.));
#1395=CARTESIAN_POINT('',(107.5,49.5,3.));
#1396=CARTESIAN_POINT('',(107.5,49.5,0.));
#1397=CARTESIAN_POINT('',(107.5,0.499999999999999,3.));
#1398=CARTESIAN_POINT('',(107.5,12.5,3.));
#1399=CARTESIAN_POINT('',(107.5,0.5,0.));
#1400=CARTESIAN_POINT('Origin',(58.,0.5,0.));
#1401=CARTESIAN_POINT('',(41.5,0.499999999999998,0.));
#1402=CARTESIAN_POINT('',(58.5,0.499999999999999,3.));
#1403=CARTESIAN_POINT('',(70.5,0.499999999999998,3.));
#1404=CARTESIAN_POINT('',(58.5,0.5,0.));
#1405=CARTESIAN_POINT('',(0.499999999999999,0.499999999999999,3.));
#1406=CARTESIAN_POINT('',(41.5,0.499999999999998,3.));
#1407=CARTESIAN_POINT('',(0.499999999999999,0.499999999999999,0.));
#1408=CARTESIAN_POINT('',(0.499999999999998,0.499999999999998,0.));
#1409=CARTESIAN_POINT('',(41.5,0.499999999999998,0.));
#1410=CARTESIAN_POINT('Origin',(58.5,2.,0.));
#1411=CARTESIAN_POINT('',(58.5,13.5,3.));
#1412=CARTESIAN_POINT('Origin',(83.,25.,3.));
#1413=CARTESIAN_POINT('',(66.5,49.5,3.));
#1414=CARTESIAN_POINT('Origin',(50.,2.,0.));
#1415=CARTESIAN_POINT('',(2.,2.,3.));
#1416=CARTESIAN_POINT('',(2.,2.,0.));
#1417=CARTESIAN_POINT('',(48.,2.,3.));
#1418=CARTESIAN_POINT('Origin',(2.,2.,0.));
#1419=CARTESIAN_POINT('',(2.,48.,3.));
#1420=CARTESIAN_POINT('',(2.,48.,0.));
#1421=CARTESIAN_POINT('',(2.,48.,3.));
#1422=CARTESIAN_POINT('Origin',(0.5,50.,0.));
#1423=CARTESIAN_POINT('',(0.499999999999999,49.5,0.));
#1424=CARTESIAN_POINT('',(0.499999999999998,37.5,0.));
#1425=CARTESIAN_POINT('',(0.499999999999999,49.5,3.));
#1426=CARTESIAN_POINT('',(0.499999999999998,37.5,3.));
#1427=CARTESIAN_POINT('',(0.499999999999998,49.5,0.));
#1428=CARTESIAN_POINT('Origin',(50.,49.5,0.));
#1429=CARTESIAN_POINT('',(37.5,49.5,0.));
#1430=CARTESIAN_POINT('',(49.5,49.5,3.));
#1431=CARTESIAN_POINT('',(37.5,49.5,3.));
#1432=CARTESIAN_POINT('',(49.5,49.5,0.));
#1433=CARTESIAN_POINT('',(37.5,49.5,0.));
#1434=CARTESIAN_POINT('Origin',(49.5,48.,0.));
#1435=CARTESIAN_POINT('',(49.5,48.,3.));
#1436=CARTESIAN_POINT('',(49.5,36.5,3.));
#1437=CARTESIAN_POINT('',(49.5,48.,0.));
#1438=CARTESIAN_POINT('Origin',(2.,48.,0.));
#1439=CARTESIAN_POINT('',(48.,48.,3.));
#1440=CARTESIAN_POINT('Origin',(25.,25.,3.));
#1441=CARTESIAN_POINT('Origin',(25.,25.,0.));
#1442=CARTESIAN_POINT('',(0.,0.,0.));
#1443=CARTESIAN_POINT('',(0.,0.,0.));
#1444=UNCERTAINTY_MEASURE_WITH_UNIT(LENGTH_MEASURE(0.01),#1452,
'DISTANCE_ACCURACY_VALUE',
'Maximum model space distance between geometric entities at asserted c
onnectivities');
#1445=UNCERTAINTY_MEASURE_WITH_UNIT(LENGTH_MEASURE(0.01),#1452,
'DISTANCE_ACCURACY_VALUE',
'Maximum model space distance between geometric entities at asserted c
onnectivities');
#1446=UNCERTAINTY_MEASURE_WITH_UNIT(LENGTH_MEASURE(0.01),#1452,
'DISTANCE_ACCURACY_VALUE',
'Maximum model space distance between geometric entities at asserted c
onnectivities');
#1447=UNCERTAINTY_MEASURE_WITH_UNIT(LENGTH_MEASURE(0.01),#1452,
'DISTANCE_ACCURACY_VALUE',
'Maximum model space distance between geometric entities at asserted c
onnectivities');
#1448=(
GEOMETRIC_REPRESENTATION_CONTEXT(3)
GLOBAL_UNCERTAINTY_ASSIGNED_CONTEXT((#1444))
GLOBAL_UNIT_ASSIGNED_CONTEXT((#1452,#1454,#1455))
REPRESENTATION_CONTEXT('','3D')
);
#1449=(
GEOMETRIC_REPRESENTATION_CONTEXT(3)
GLOBAL_UNCERTAINTY_ASSIGNED_CONTEXT((#1445))
GLOBAL_UNIT_ASSIGNED_CONTEXT((#1452,#1454,#1455))
REPRESENTATION_CONTEXT('','3D')
);
#1450=(
GEOMETRIC_REPRESENTATION_CONTEXT(3)
GLOBAL_UNCERTAINTY_ASSIGNED_CONTEXT((#1446))
GLOBAL_UNIT_ASSIGNED_CONTEXT((#1452,#1454,#1455))
REPRESENTATION_CONTEXT('','3D')
);
#1451=(
GEOMETRIC_REPRESENTATION_CONTEXT(3)
GLOBAL_UNCERTAINTY_ASSIGNED_CONTEXT((#1447))
GLOBAL_UNIT_ASSIGNED_CONTEXT((#1452,#1454,#1455))
REPRESENTATION_CONTEXT('','3D')
);
#1452=(
LENGTH_UNIT()
NAMED_UNIT(*)
SI_UNIT(.MILLI.,.METRE.)
);
#1453=(
LENGTH_UNIT()
NAMED_UNIT(*)
SI_UNIT($,.METRE.)
);
#1454=(
NAMED_UNIT(*)
PLANE_ANGLE_UNIT()
SI_UNIT($,.RADIAN.)
);
#1455=(
NAMED_UNIT(*)
SI_UNIT($,.STERADIAN.)
SOLID_ANGLE_UNIT()
);
#1456=SHAPE_DEFINITION_REPRESENTATION(#1459,#1464);
#1457=SHAPE_DEFINITION_REPRESENTATION(#1460,#1465);
#1458=SHAPE_DEFINITION_REPRESENTATION(#1461,#1466);
#1459=PRODUCT_DEFINITION_SHAPE('',$,#1468);
#1460=PRODUCT_DEFINITION_SHAPE('',$,#1469);
#1461=PRODUCT_DEFINITION_SHAPE('',$,#1470);
#1462=PRODUCT_DEFINITION_SHAPE($,$,#17);
#1463=PRODUCT_DEFINITION_SHAPE($,$,#18);
#1464=SHAPE_REPRESENTATION('',(#872,#929),#1448);
#1465=SHAPE_REPRESENTATION('',(#873,#928),#1449);
#1466=SHAPE_REPRESENTATION('',(#874),#1450);
#1467=PRODUCT_DEFINITION_CONTEXT('part definition',#1478,'design');
#1468=PRODUCT_DEFINITION('2025-10-27-20-00-05-451','BannerBeasts',#1471,
#1467);
#1469=PRODUCT_DEFINITION('2025-10-28-21-28-58-216','Tiles',#1472,#1467);
#1470=PRODUCT_DEFINITION('2025-10-28-22-34-28-596','Undead',#1473,#1467);
#1471=PRODUCT_DEFINITION_FORMATION('',$,#1480);
#1472=PRODUCT_DEFINITION_FORMATION('',$,#1481);
#1473=PRODUCT_DEFINITION_FORMATION('',$,#1482);
#1474=PRODUCT_RELATED_PRODUCT_CATEGORY('BannerBeasts','BannerBeasts',(#1480));
#1475=PRODUCT_RELATED_PRODUCT_CATEGORY('Tiles','Tiles',(#1481));
#1476=PRODUCT_RELATED_PRODUCT_CATEGORY('Undead','Undead',(#1482));
#1477=APPLICATION_PROTOCOL_DEFINITION('international standard',
'automotive_design',2009,#1478);
#1478=APPLICATION_CONTEXT(
'Core Data for Automotive Mechanical Design Process');
#1479=PRODUCT_CONTEXT('part definition',#1478,'mechanical');
#1480=PRODUCT('2025-10-27-20-00-05-451','BannerBeasts',$,(#1479));
#1481=PRODUCT('2025-10-28-21-28-58-216','Tiles',$,(#1479));
#1482=PRODUCT('2025-10-28-22-34-28-596','Undead',$,(#1479));
#1483=PRESENTATION_STYLE_ASSIGNMENT((#1484));
#1484=SURFACE_STYLE_USAGE(.BOTH.,#1485);
#1485=SURFACE_SIDE_STYLE('',(#1486));
#1486=SURFACE_STYLE_FILL_AREA(#1487);
#1487=FILL_AREA_STYLE('Steel - Satin',(#1488));
#1488=FILL_AREA_STYLE_COLOUR('Steel - Satin',#1489);
#1489=COLOUR_RGB('Steel - Satin',0.627450980392157,0.627450980392157,0.627450980392157);
ENDSEC;
END-ISO-10303-21;
