<?xml version="1.0" encoding="UTF-8" standalone="no"?>
<!-- Created with Inkscape (http://www.inkscape.org/) -->

<svg
   width="15.875mm"
   height="16.070854mm"
   viewBox="0 0 15.875 16.070854"
   version="1.1"
   id="svg5"
   xml:space="preserve"
   sodipodi:docname="Lairbuilder.svg"
   inkscape:version="1.2.2 (732a01da63, 2022-12-09)"
   xmlns:inkscape="http://www.inkscape.org/namespaces/inkscape"
   xmlns:sodipodi="http://sodipodi.sourceforge.net/DTD/sodipodi-0.dtd"
   xmlns="http://www.w3.org/2000/svg"
   xmlns:svg="http://www.w3.org/2000/svg"><sodipodi:namedview
     id="namedview174"
     pagecolor="#ffffff"
     bordercolor="#000000"
     borderopacity="0.25"
     inkscape:showpageshadow="2"
     inkscape:pageopacity="0.0"
     inkscape:pagecheckerboard="0"
     inkscape:deskcolor="#d1d1d1"
     inkscape:document-units="mm"
     showgrid="true"
     inkscape:zoom="2.0105795"
     inkscape:cx="-14.175018"
     inkscape:cy="-158.16336"
     inkscape:window-width="2560"
     inkscape:window-height="1369"
     inkscape:window-x="-8"
     inkscape:window-y="-8"
     inkscape:window-maximized="1"
     inkscape:current-layer="svg5"><inkscape:grid
       type="xygrid"
       id="grid3530" /></sodipodi:namedview><defs
     id="defs2" /><path
     id="path959-30-4-1-0-5-1"
     style="vector-effect:non-scaling-stroke;fill:#00ff00;stroke:#000000;stroke-width:0.334202;stroke-linecap:round;stroke-linejoin:round;stroke-miterlimit:2.4;stroke-dasharray:none;-inkscape-stroke:hairline;paint-order:fill markers stroke"
     d="M 0.42839767,-2.4612222e-6 C 1.0849407,3.0779685 0.89504467,5.3793555 1.4066317,7.0750175 H -3.3307074e-7 V 16.070852 H 15.875 V 7.0750175 H 14.468368 C 14.979956,5.3793555 14.790062,3.0779685 15.446602,-2.4612222e-6 13.911655,0.39702254 12.613336,1.2669435 11.577588,2.6623675 10.605841,1.7032515 9.6687897,0.70808154 7.9374997,0.66558954 6.2062077,0.70802954 5.2691517,1.7032515 4.2974117,2.6623675 3.2616657,1.2669435 1.9633487,0.39702254 0.42839767,-2.4612222e-6 Z M 4.7423457,5.8523535 c 0.639182,0.220389 1.229218,0.515291 1.750798,0.912089 -0.128664,0.138769 -0.259546,0.239862 -0.388607,0.310575 h -0.919324 c -0.381114,-0.231856 -0.598816,-0.741669 -0.442867,-1.222664 z m 6.4166633,0.0041 c 0.155092,0.47835 -0.05995,0.984914 -0.437183,1.21853 H 9.7890667 c -0.126702,-0.07055 -0.254599,-0.170784 -0.380856,-0.306958 0.52158,-0.396797 1.1116063,-0.691183 1.7507983,-0.911572 z" /></svg>
