<?xml version="1.0" encoding="UTF-8" standalone="no"?>
<!-- Created with Inkscape (http://www.inkscape.org/) -->

<svg
   width="14.44873mm"
   height="19.84375mm"
   viewBox="0 0 14.44873 19.84375"
   version="1.1"
   id="svg5"
   xml:space="preserve"
   sodipodi:docname="Lairbuilder.svg"
   inkscape:version="1.2.2 (732a01da63, 2022-12-09)"
   xmlns:inkscape="http://www.inkscape.org/namespaces/inkscape"
   xmlns:sodipodi="http://sodipodi.sourceforge.net/DTD/sodipodi-0.dtd"
   xmlns="http://www.w3.org/2000/svg"
   xmlns:svg="http://www.w3.org/2000/svg"><sodipodi:namedview
     id="namedview174"
     pagecolor="#ffffff"
     bordercolor="#000000"
     borderopacity="0.25"
     inkscape:showpageshadow="2"
     inkscape:pageopacity="0.0"
     inkscape:pagecheckerboard="0"
     inkscape:deskcolor="#d1d1d1"
     inkscape:document-units="mm"
     showgrid="true"
     inkscape:zoom="2.0105795"
     inkscape:cx="-14.175018"
     inkscape:cy="-158.16336"
     inkscape:window-width="2560"
     inkscape:window-height="1369"
     inkscape:window-x="-8"
     inkscape:window-y="-8"
     inkscape:window-maximized="1"
     inkscape:current-layer="svg5"><inkscape:grid
       type="xygrid"
       id="grid3530" /></sodipodi:namedview><defs
     id="defs2" /><path
     id="path959-30-4-1-0-5-5"
     style="vector-effect:non-scaling-stroke;fill:#00ff00;stroke:#000000;stroke-width:0.321519;stroke-linecap:round;stroke-linejoin:round;stroke-miterlimit:2.4;stroke-dasharray:none;-inkscape-stroke:hairline;paint-order:fill markers stroke"
     d="M 7.2243649,-6.7581306e-7 C 5.9014499,1.3229133 4.5785309,1.3229163 4.0493649,2.6458323 3.6674369,3.6006513 3.5606269,5.5199873 2.9341879,7.3101473 2.0919679,6.4870563 1.1102729,5.9426473 -1.0413653e-7,5.6554673 0.9647179,10.178202 0.0302199,12.957695 2.5016559,14.580504 c 0.580174,3.265441 4.007688,5.263245 4.722709,5.263245 0.715018,0 4.1425431,-1.997804 4.7227091,-5.263245 2.471449,-1.622798 1.536943,-4.402302 2.501656,-8.9250367 -1.093332,0.282799 -2.061877,0.815306 -2.89543,1.617473 -0.537968,-1.779476 -0.510072,-3.67891 -0.889352,-4.627108 C 10.134783,1.3229163 8.5472809,1.3229133 7.2243649,-6.7581306e-7 Z M 4.1506509,11.285615 c 0.614924,0.212025 1.182349,0.495726 1.684135,0.877466 -0.933365,1.006672 -1.972577,0.01217 -1.684135,-0.877466 z m 6.1727501,0.0041 c 0.288436,0.889625 -0.7507761,1.883622 -1.6841351,0.876949 0.501785,-0.381739 1.0692,-0.664924 1.6841351,-0.876949 z" /></svg>
