<?xml version="1.0" encoding="UTF-8" standalone="no"?>
<!-- Created with Inkscape (http://www.inkscape.org/) -->

<svg
   width="19.163689mm"
   height="13.578499mm"
   viewBox="0 0 19.163689 13.578499"
   version="1.1"
   id="svg5"
   xml:space="preserve"
   sodipodi:docname="Lairbuilder.svg"
   inkscape:version="1.2.2 (732a01da63, 2022-12-09)"
   xmlns:inkscape="http://www.inkscape.org/namespaces/inkscape"
   xmlns:sodipodi="http://sodipodi.sourceforge.net/DTD/sodipodi-0.dtd"
   xmlns="http://www.w3.org/2000/svg"
   xmlns:svg="http://www.w3.org/2000/svg"><sodipodi:namedview
     id="namedview174"
     pagecolor="#ffffff"
     bordercolor="#000000"
     borderopacity="0.25"
     inkscape:showpageshadow="2"
     inkscape:pageopacity="0.0"
     inkscape:pagecheckerboard="0"
     inkscape:deskcolor="#d1d1d1"
     inkscape:document-units="mm"
     showgrid="true"
     inkscape:zoom="2.0105795"
     inkscape:cx="-14.175018"
     inkscape:cy="-158.16336"
     inkscape:window-width="2560"
     inkscape:window-height="1369"
     inkscape:window-x="-8"
     inkscape:window-y="-8"
     inkscape:window-maximized="1"
     inkscape:current-layer="svg5"><inkscape:grid
       type="xygrid"
       id="grid3530" /></sodipodi:namedview><defs
     id="defs2" /><path
     id="path959-30-4-1-0-5-6"
     style="vector-effect:non-scaling-stroke;fill:#00ff00;stroke:#000000;stroke-width:0.176634;stroke-linecap:round;stroke-linejoin:round;stroke-miterlimit:2.4;stroke-dasharray:none;-inkscape-stroke:hairline;paint-order:fill markers stroke"
     d="M -9.9507137e-7,-1.0233953e-6 C 1.27954,5.998666 0.040179,9.685644 3.318143,11.838036 h 1.02371 v 1.740462 h 1.397331 v -1.740462 h 7.685319 v 1.740462 h 1.397331 v -1.740462 h 1.024227 C 19.124032,9.685658 17.884154,5.998666 19.163688,-1.0233953e-6 17.205092,0.50660298 17.038121,0.95190698 16.070336,3.371369 15.460656,4.895568 15.791992,7.503167 11.308353,7.601602 11.65579,7.169767 11.942646,6.64296 12.050427,6.036323 13.408176,5.1448 12.894515,3.617419 13.424503,1.132746 12.613245,1.342584 11.927086,1.802379 11.379667,2.539896 10.866074,2.032979 10.370784,1.507121 9.455753,1.484663 8.540721,1.507093 8.045429,2.032979 7.531839,2.539896 6.984422,1.802379 6.298263,1.342584 5.487003,1.132746 6.016993,3.617419 5.503333,5.144794 6.861079,6.036323 6.968314,6.639879 7.25293,7.164281 7.597985,7.594884 2.877923,7.420141 3.35177,4.903171 2.84117,3.371369 2.04742,0.99012198 1.958599,0.50660298 -9.9507137e-7,-1.0233953e-6 Z M 7.766967,4.226098 C 8.10479,4.342578 8.416824,4.498521 8.692492,4.708239 8.179727,5.261278 7.608504,4.714839 7.766967,4.226098 Z m 3.391524,0.0021 c 0.15846,0.488736 -0.412761,1.03518 -0.925524,0.482141 0.275668,-0.209718 0.587696,-0.365661 0.925524,-0.482141 z" /></svg>
