<?xml version="1.0" encoding="UTF-8" standalone="no"?>
<!-- Created with Inkscape (http://www.inkscape.org/) -->

<svg
   width="12.390095mm"
   height="12.176081mm"
   viewBox="0 0 12.390095 12.176081"
   version="1.1"
   id="svg5"
   xml:space="preserve"
   sodipodi:docname="Lairbuilder.svg"
   inkscape:version="1.2.2 (732a01da63, 2022-12-09)"
   xmlns:inkscape="http://www.inkscape.org/namespaces/inkscape"
   xmlns:sodipodi="http://sodipodi.sourceforge.net/DTD/sodipodi-0.dtd"
   xmlns="http://www.w3.org/2000/svg"
   xmlns:svg="http://www.w3.org/2000/svg"><sodipodi:namedview
     id="namedview174"
     pagecolor="#ffffff"
     bordercolor="#000000"
     borderopacity="0.25"
     inkscape:showpageshadow="2"
     inkscape:pageopacity="0.0"
     inkscape:pagecheckerboard="0"
     inkscape:deskcolor="#d1d1d1"
     inkscape:document-units="mm"
     showgrid="false"
     inkscape:zoom="1.4216944"
     inkscape:cx="133.99504"
     inkscape:cy="-7.0338602"
     inkscape:window-width="2560"
     inkscape:window-height="1369"
     inkscape:window-x="-8"
     inkscape:window-y="-8"
     inkscape:window-maximized="1"
     inkscape:current-layer="svg5"><inkscape:grid
       type="xygrid"
       id="grid3530" /></sodipodi:namedview><defs
     id="defs2" /><g
     id="g4041-8-0-4-2-4"
     transform="translate(-92.094058,-283.2555)"
     style="stroke-width:0.5;stroke-linejoin:round;stroke-dasharray:none"><path
       id="path959-30-4-1-0-4"
       style="fill:#00ff00;stroke:#000000;stroke-width:0.5;stroke-linecap:round;stroke-linejoin:round;stroke-miterlimit:2.4;stroke-dasharray:none;paint-order:fill markers stroke"
       d="m 92.344049,283.50549 c 0.793884,3.72184 0.02474,6.00946 2.058538,7.3449 0.477435,2.68719 3.298115,4.33119 3.886519,4.33119 0.588402,0 3.409084,-1.644 3.886514,-4.33119 2.0338,-1.33543 1.26466,-3.62306 2.05854,-7.3449 -1.2152,0.31432 -2.24311,1.00321 -3.0631,2.10795 -0.76932,-0.75932 -1.511312,-1.54729 -2.881954,-1.58093 -1.370644,0.0336 -2.112639,0.82161 -2.881954,1.58093 -0.819988,-1.10474 -1.8479,-1.79363 -3.063103,-2.10795 z" /><path
       id="path984-9-96-4-1-1-2"
       style="fill:#ffff00;stroke:#000000;stroke-width:0.5;stroke-linecap:round;stroke-linejoin:round;stroke-miterlimit:2.4;stroke-dasharray:none;paint-order:fill markers stroke"
       d="m 95.759522,288.13908 c -0.237364,0.7321 0.617642,1.5504 1.385724,0.72199 -0.412928,-0.31414 -0.87969,-0.54751 -1.385724,-0.72199 z m 5.079648,0.003 c -0.50604,0.17448 -0.972801,0.40785 -1.385729,0.72199 0.768079,0.82841 1.623089,0.0101 1.385729,-0.72199 z" /></g></svg>
