<?xml version="1.0" encoding="UTF-8" standalone="no"?>
<!-- Created with Inkscape (http://www.inkscape.org/) -->

<svg
   width="9.2370453mm"
   height="13.298923mm"
   viewBox="0 0 9.2370453 13.298923"
   version="1.1"
   id="svg5"
   xml:space="preserve"
   sodipodi:docname="Lairbuilder.svg"
   inkscape:version="1.2.2 (732a01da63, 2022-12-09)"
   inkscape:export-filename="..\bannerbeasts\tabletop\gremlins.png"
   inkscape:export-xdpi="300"
   inkscape:export-ydpi="300"
   xmlns:inkscape="http://www.inkscape.org/namespaces/inkscape"
   xmlns:sodipodi="http://sodipodi.sourceforge.net/DTD/sodipodi-0.dtd"
   xmlns="http://www.w3.org/2000/svg"
   xmlns:svg="http://www.w3.org/2000/svg"><sodipodi:namedview
     id="namedview174"
     pagecolor="#ffffff"
     bordercolor="#000000"
     borderopacity="0.25"
     inkscape:showpageshadow="2"
     inkscape:pageopacity="0.0"
     inkscape:pagecheckerboard="0"
     inkscape:deskcolor="#d1d1d1"
     inkscape:document-units="mm"
     showgrid="false"
     inkscape:zoom="6.970924"
     inkscape:cx="722.71625"
     inkscape:cy="-29.049234"
     inkscape:window-width="1278"
     inkscape:window-height="1360"
     inkscape:window-x="-7"
     inkscape:window-y="0"
     inkscape:window-maximized="0"
     inkscape:current-layer="svg5"><inkscape:grid
       type="xygrid"
       id="grid3530" /></sodipodi:namedview><defs
     id="defs2" /><path
     id="rect4699-1"
     style="fill:#001f57;fill-opacity:1;stroke:none;stroke-width:0.499999;stroke-linejoin:miter;stroke-miterlimit:2.4;stroke-dasharray:none;stroke-opacity:1;paint-order:fill markers stroke"
     d="M 0.91511684,5.4217657 V 6.098205 H 4.3867468 v 6.671431 h 0.46353 V 6.098205 h 3.47163 V 5.4217657 Z" /><path
     id="path959-30-4-1-0-58-9-4-6-6"
     style="vector-effect:non-scaling-stroke;fill:#c9daf8;fill-opacity:1;stroke:#000000;stroke-width:0.264584;stroke-linecap:round;stroke-linejoin:round;stroke-miterlimit:2.4;stroke-dasharray:none;-inkscape-stroke:hairline;paint-order:fill markers stroke"
     d="M 4.6185068,-1.1610402e-7 C 3.5709268,0.02565988 2.8204168,0.41316488 2.1897768,0.94057688 c -0.57107,-0.566599 -1.16312,-0.968212 -1.94179996,-0.780642 0.47758,0.728189 0.40558,1.33891102 0.77468996,2.00244102 -1.11469996,1.507015 -1.15888996,3.5302233 -0.87576996,5.6815198 l 3.05596996,5.4550273 1.18377,-0.529172 V 6.0982971 H 0.91505684 l -2.5e-4,-0.6765889 H 4.0713968 l 0.54714,0.4295483 0.54676,-0.4295483 h 3.1567 v 0.6765889 h -3.47158 v 6.6714539 l 1.18378,0.529172 3.05596,-5.4550273 c 0.28312,-2.1512965 0.23892,-4.1745048 -0.87578,-5.6815198 0.36911,-0.66353 0.29712,-1.27425202 0.77471,-2.00244102 -0.77869,-0.18757 -1.37075,0.214043 -1.9418,0.780642 -0.63065,-0.527412 -1.38117,-0.91492 -2.42875,-0.94057699610402 z"
     sodipodi:nodetypes="cccccccccccccccccccccccc" /></svg>
