<?xml version="1.0" encoding="UTF-8" standalone="no"?>
<!-- Created with Inkscape (http://www.inkscape.org/) -->

<svg
   width="9.2452011mm"
   height="11.638295mm"
   viewBox="0 0 9.2452011 11.638295"
   version="1.1"
   id="svg5"
   xml:space="preserve"
   sodipodi:docname="Lairbuilder.svg"
   inkscape:version="1.2.2 (732a01da63, 2022-12-09)"
   xmlns:inkscape="http://www.inkscape.org/namespaces/inkscape"
   xmlns:sodipodi="http://sodipodi.sourceforge.net/DTD/sodipodi-0.dtd"
   xmlns="http://www.w3.org/2000/svg"
   xmlns:svg="http://www.w3.org/2000/svg"><sodipodi:namedview
     id="namedview174"
     pagecolor="#ffffff"
     bordercolor="#000000"
     borderopacity="0.25"
     inkscape:showpageshadow="2"
     inkscape:pageopacity="0.0"
     inkscape:pagecheckerboard="0"
     inkscape:deskcolor="#d1d1d1"
     inkscape:document-units="mm"
     showgrid="false"
     inkscape:zoom="1.4216944"
     inkscape:cx="133.99504"
     inkscape:cy="-7.0338602"
     inkscape:window-width="2560"
     inkscape:window-height="1369"
     inkscape:window-x="-8"
     inkscape:window-y="-8"
     inkscape:window-maximized="1"
     inkscape:current-layer="svg5"><inkscape:grid
       type="xygrid"
       id="grid3530" /></sodipodi:namedview><defs
     id="defs2" /><g
     id="g4006-5-6-9-3-5"
     transform="translate(-44.631813,-283.12488)"
     style="stroke-width:0.5;stroke-linejoin:round;stroke-dasharray:none"
     inkscape:export-filename="..\bannerbeasts\tabletop\imps.svg"
     inkscape:export-xdpi="96"
     inkscape:export-ydpi="96"><path
       id="path12469-1-0-0-8-7"
       style="fill:#800080;fill-opacity:1;stroke:#000000;stroke-width:0.5;stroke-linecap:round;stroke-linejoin:round;stroke-miterlimit:2.4;stroke-dasharray:none;paint-order:fill markers stroke"
       d="m 45.254405,283.37484 c -0.321532,1.28239 -0.01214,2.23353 0.458887,3.09955 a 4.372508,5.0691662 0 0 0 -0.831474,2.96985 4.372508,5.0691662 0 0 0 4.372343,5.06894 4.372508,5.0691662 0 0 0 4.372859,-5.06894 4.372508,5.0691662 0 0 0 -0.83044,-2.9714 c 0.470491,-0.86555 0.779167,-1.81648 0.457853,-3.098 -0.268473,0.50701 -0.892217,1.02648 -1.998327,1.5627 a 4.372508,5.0691662 0 0 0 -2.001945,-0.56276 4.372508,5.0691662 0 0 0 -1.998845,0.56431 c -1.107987,-0.53674 -1.732195,-1.05679 -2.000911,-1.56425 z" /><path
       style="fill:#ff0000;fill-opacity:1;stroke:#000000;stroke-width:0.5;stroke-linecap:round;stroke-linejoin:round;stroke-miterlimit:2.4;stroke-dasharray:none;paint-order:fill markers stroke"
       d="m 50.254419,289.66613 c 0.282075,0.26134 1.005256,0.26124 1.387068,-0.34771 0.321609,-0.51293 0.153563,-0.96129 -0.261173,-1.26244 -0.84023,0.42175 -1.052354,0.9988 -1.125895,1.61015 z"
       id="path12388-7-7-2-3-5-8-1" /><path
       style="fill:#ff0000;fill-opacity:1;stroke:#000000;stroke-width:0.5;stroke-linecap:round;stroke-linejoin:round;stroke-miterlimit:2.4;stroke-dasharray:none;paint-order:fill markers stroke"
       d="m 48.254419,289.66613 c -0.282075,0.26134 -1.005256,0.26124 -1.387068,-0.34771 -0.321609,-0.51293 -0.153563,-0.96129 0.261173,-1.26244 0.84023,0.42175 1.052354,0.9988 1.125895,1.61015 z"
       id="path12388-7-7-8-4-4-5-7-4" /></g></svg>
