<?xml version="1.0" encoding="UTF-8" standalone="no"?>
<!-- Created with Inkscape (http://www.inkscape.org/) -->

<svg
   width="17.249033mm"
   height="17.771965mm"
   viewBox="0 0 17.249033 17.771965"
   version="1.1"
   id="svg5"
   xml:space="preserve"
   xmlns="http://www.w3.org/2000/svg"
   xmlns:svg="http://www.w3.org/2000/svg"><defs
     id="defs2" /><path
     id="path13399-4-3-9-5-7-4-2"
     style="vector-effect:non-scaling-stroke;fill:#913d00;fill-opacity:1;stroke:#000000;stroke-width:0.346745;stroke-linecap:round;stroke-linejoin:round;stroke-miterlimit:2.4;stroke-dasharray:none;-inkscape-stroke:hairline;paint-order:fill markers stroke"
     d="M 1.2416953,7.2341329e-5 C 1.0390766,0.00137234 0.88938817,0.21193534 0.70994487,0.58453334 -0.66850173,3.4468143 -0.15828403,9.4090223 3.2922162,8.7778313 2.5469506,10.519947 2.5555396,13.797544 4.0384239,14.46999 c 0.9025506,0.409293 3.594702,3.417961 4.586283,3.298507 0.991581,0.11952 3.6837331,-2.889214 4.5862841,-3.298507 1.482884,-0.672446 1.491474,-3.950043 0.746207,-5.6921587 3.4505,0.631191 3.960202,-5.331017 2.581755,-8.19329796 -0.319011,-0.662409 -0.543751,-0.811936 -1.139465,-0.187586 C 13.565832,2.3187643 11.098107,6.0244583 11.274158,6.0663693 10.390999,5.9069953 9.5078649,5.7145243 8.6247069,5.7485583 7.7415489,5.7144883 6.8584139,5.9069953 5.9752569,6.0663693 6.1513049,6.0244293 3.6830662,2.3187643 1.8494102,0.39694734 1.5887859,0.12379234 1.3992895,-0.00115966 1.2416953,7.2341329e-5 Z M 5.1923586,10.377216 c 0.8705573,0.477558 1.1178353,1.113156 1.2769243,1.770952 -0.315085,0.15138 -1.153128,0.101732 -1.4484901,-0.357084 -0.1879681,-0.292 0.054998,-0.984315 0.1715658,-1.413868 z m 6.8641804,0 c 0.116566,0.429553 0.359534,1.121868 0.171566,1.413868 -0.295363,0.458816 -1.132888,0.508464 -1.447974,0.357084 0.159087,-0.657796 0.405853,-1.293394 1.276408,-1.770952 z" /></svg>
