<?xml version="1.0" encoding="UTF-8" standalone="no"?>
<!-- Created with Inkscape (http://www.inkscape.org/) -->

<svg
   width="19.050032mm"
   height="17.772415mm"
   viewBox="0 0 19.050032 17.772415"
   version="1.1"
   id="svg5"
   xml:space="preserve"
   sodipodi:docname="Lairbuilder.svg"
   inkscape:version="1.2.2 (732a01da63, 2022-12-09)"
   xmlns:inkscape="http://www.inkscape.org/namespaces/inkscape"
   xmlns:sodipodi="http://sodipodi.sourceforge.net/DTD/sodipodi-0.dtd"
   xmlns="http://www.w3.org/2000/svg"
   xmlns:svg="http://www.w3.org/2000/svg"><sodipodi:namedview
     id="namedview174"
     pagecolor="#ffffff"
     bordercolor="#000000"
     borderopacity="0.25"
     inkscape:showpageshadow="2"
     inkscape:pageopacity="0.0"
     inkscape:pagecheckerboard="0"
     inkscape:deskcolor="#d1d1d1"
     inkscape:document-units="mm"
     showgrid="true"
     inkscape:zoom="2.0105795"
     inkscape:cx="-14.175018"
     inkscape:cy="-158.16336"
     inkscape:window-width="2560"
     inkscape:window-height="1369"
     inkscape:window-x="-8"
     inkscape:window-y="-8"
     inkscape:window-maximized="1"
     inkscape:current-layer="svg5"><inkscape:grid
       type="xygrid"
       id="grid3530" /></sodipodi:namedview><defs
     id="defs2" /><path
     id="path13399-4-3-9-5-7-4-2-0"
     style="vector-effect:non-scaling-stroke;fill:#913d00;fill-opacity:1;stroke:#000000;stroke-width:0.346745;stroke-linecap:round;stroke-linejoin:round;stroke-miterlimit:2.4;stroke-dasharray:none;-inkscape-stroke:hairline;paint-order:fill markers stroke"
     d="M 16.907511,7.0156352e-6 C 16.749829,-0.00119298 16.560421,0.12424602 16.299796,0.39739902 15.540541,1.193159 14.674956,2.293903 13.930948,3.314534 12.61751,3.217244 11.36499,3.216864 9.5250157,3.216864 c -1.839973,0 -3.092494,3.81e-4 -4.4059328,0.09767 C 4.3750586,2.293907 3.5094915,1.193159 2.7502352,0.39739902 2.4896115,0.12424502 2.2995975,-7.0798436e-4 2.1420036,5.2401564e-4 1.9393858,0.00182402 1.7896969,0.21238802 1.6102531,0.58498402 1.1780096,1.482518 0.93175345,2.685023 0.90331945,3.89331 c -0.2069038,0.0374 -0.4165489,0.07565 -0.6387207,0.117305 -0.3400206,4.660774 -0.3653496,6.972557 0,11.1125 0.4556256,0.07594 0.89372815,0.140147 1.32291675,0.195854 v 2.449979 h 2.6458333 v -2.206583 c 0.7107013,0.03986 1.430975,0.06212 2.1915979,0.07441 1.117473,0.98829 2.461029,2.209154 3.100069,2.132169 0.6390393,0.07703 1.9825953,-1.143864 3.1000693,-2.132169 0.760621,-0.01229 1.480895,-0.03455 2.191597,-0.07441 v 2.206583 h 2.645834 v -2.449979 c 0.429189,-0.05571 0.867291,-0.119916 1.322916,-0.195854 0.36535,-4.139943 0.340021,-6.451726 0,-11.1125 C 18.563261,3.968955 18.353617,3.930705 18.146712,3.89331 18.118282,2.685023 17.872021,1.482518 17.439778,0.58498402 17.260334,0.21238002 17.110245,0.00160302 16.907511,7.0156352e-6 Z M 6.0926667,10.377668 c 0.870556,0.477558 1.117837,1.113156 1.276925,1.770952 -0.315086,0.151379 -1.153128,0.101732 -1.448491,-0.357084 -0.1879671,-0.292 0.055,-0.984314 0.171566,-1.413868 z m 6.8641813,0 c 0.116566,0.429554 0.359534,1.121868 0.171565,1.413868 -0.295361,0.458816 -1.132888,0.508463 -1.447973,0.357084 0.159087,-0.657796 0.405853,-1.293394 1.276408,-1.770952 z" /></svg>
