<?xml version="1.0" encoding="UTF-8" standalone="no"?>
<!-- Created with Inkscape (http://www.inkscape.org/) -->

<svg
   width="18.520832mm"
   height="20.414333mm"
   viewBox="0 0 18.520832 20.414333"
   version="1.1"
   id="svg5"
   xml:space="preserve"
   sodipodi:docname="Lairbuilder.svg"
   inkscape:version="1.2.2 (732a01da63, 2022-12-09)"
   xmlns:inkscape="http://www.inkscape.org/namespaces/inkscape"
   xmlns:sodipodi="http://sodipodi.sourceforge.net/DTD/sodipodi-0.dtd"
   xmlns="http://www.w3.org/2000/svg"
   xmlns:svg="http://www.w3.org/2000/svg"><sodipodi:namedview
     id="namedview174"
     pagecolor="#ffffff"
     bordercolor="#000000"
     borderopacity="0.25"
     inkscape:showpageshadow="2"
     inkscape:pageopacity="0.0"
     inkscape:pagecheckerboard="0"
     inkscape:deskcolor="#d1d1d1"
     inkscape:document-units="mm"
     showgrid="true"
     inkscape:zoom="2.0105795"
     inkscape:cx="-14.175018"
     inkscape:cy="-158.16336"
     inkscape:window-width="2560"
     inkscape:window-height="1369"
     inkscape:window-x="-8"
     inkscape:window-y="-8"
     inkscape:window-maximized="1"
     inkscape:current-layer="svg5"><inkscape:grid
       type="xygrid"
       id="grid3530" /></sodipodi:namedview><defs
     id="defs2" /><path
     id="path13399-4-3-9-5-7-4-2-4"
     style="vector-effect:non-scaling-stroke;fill:#913d00;fill-opacity:1;stroke:#000000;stroke-width:0.346745;stroke-linecap:round;stroke-linejoin:round;stroke-miterlimit:2.4;stroke-dasharray:none;-inkscape-stroke:hairline;paint-order:fill markers stroke"
     d="M 1.8774048,7.6720093e-5 C 1.674787,0.00137672 1.5250981,0.21193972 1.3456543,0.58453772 -0.03279133,3.4468157 0.47742907,9.4090277 3.9279256,8.7778357 3.5042591,9.7681897 3.3248076,11.254721 3.5207154,12.476835 H -3.0279159e-8 v 1.322917 H 1.3229167 v 4.7625 H -3.0279159e-8 v 1.852083 H 18.520834 v -1.852083 h -1.322917 v -4.7625 h 1.322917 v -1.322917 h -3.520716 c 0.195908,-1.222114 0.01646,-2.7086453 -0.40721,-3.6989993 3.450498,0.631192 3.960716,-5.33102 2.582271,-8.19329798 -0.319011,-0.662408 -0.544268,-0.811936 -1.139982,-0.187586 C 14.201544,2.3187667 11.733818,6.0244627 11.909868,6.0663737 11.026711,5.9069997 10.143573,5.7150467 9.260417,5.7490797 8.37726,5.7150097 7.494123,5.9069997 6.610966,6.0663737 6.787015,6.0244337 4.3192906,2.3187667 2.4856364,0.39695172 2.2250127,0.12379772 2.0349987,-0.00115528 1.8774048,7.6720093e-5 Z M 5.8280677,10.377222 c 0.8705583,0.477556 1.1178373,1.113157 1.2769253,1.770951 -0.315086,0.15138 -1.1531283,0.101732 -1.4484907,-0.357084 -0.1879676,-0.292 0.055002,-0.984316 0.1715654,-1.413867 z m 6.8641813,0 c 0.116566,0.429551 0.359535,1.121867 0.171566,1.413867 -0.295363,0.458816 -1.132887,0.508464 -1.447974,0.357084 0.159087,-0.657794 0.405853,-1.293395 1.276408,-1.770951 z" /></svg>
