<?xml version="1.0" encoding="UTF-8" standalone="no"?>
<!-- Created with Inkscape (http://www.inkscape.org/) -->

<svg
   width="13.667893mm"
   height="14.06191mm"
   viewBox="0 0 13.667893 14.06191"
   version="1.1"
   id="svg5"
   xml:space="preserve"
   sodipodi:docname="Lairbuilder.svg"
   inkscape:version="1.2.2 (732a01da63, 2022-12-09)"
   xmlns:inkscape="http://www.inkscape.org/namespaces/inkscape"
   xmlns:sodipodi="http://sodipodi.sourceforge.net/DTD/sodipodi-0.dtd"
   xmlns="http://www.w3.org/2000/svg"
   xmlns:svg="http://www.w3.org/2000/svg"><sodipodi:namedview
     id="namedview174"
     pagecolor="#ffffff"
     bordercolor="#000000"
     borderopacity="0.25"
     inkscape:showpageshadow="2"
     inkscape:pageopacity="0.0"
     inkscape:pagecheckerboard="0"
     inkscape:deskcolor="#d1d1d1"
     inkscape:document-units="mm"
     showgrid="false"
     inkscape:zoom="1.4216944"
     inkscape:cx="133.99504"
     inkscape:cy="-7.0338602"
     inkscape:window-width="2560"
     inkscape:window-height="1369"
     inkscape:window-x="-8"
     inkscape:window-y="-8"
     inkscape:window-maximized="1"
     inkscape:current-layer="svg5"><inkscape:grid
       type="xygrid"
       id="grid3530" /></sodipodi:namedview><defs
     id="defs2" /><path
     id="path13399-4-3-9-5-7-4-9"
     style="fill:#913d00;fill-opacity:1;stroke:#000000;stroke-width:0.5;stroke-linecap:round;stroke-linejoin:round;stroke-miterlimit:2.4;stroke-dasharray:none;paint-order:fill markers stroke"
     d="m 1.2004974,0.25001138 c -0.154608,0.001 -0.26881704,0.16169 -0.40574104,0.446 -1.051822,2.18406042 -0.662682,6.73357042 1.97021804,6.25194042 -0.568674,1.32932 -0.56218,3.8303302 0.5693333,4.3434402 0.6886893,0.31231 2.7430133,2.60784 3.4996383,2.51669 0.756624,0.0912 2.810947,-2.20438 3.499638,-2.51669 1.131513,-0.51311 1.138009,-3.0141202 0.569334,-4.3434402 2.6329,0.48163 3.02204,-4.06788 1.970218,-6.25194042 -0.243421,-0.50545 -0.414969,-0.61949 -0.869528,-0.14308 C 10.60444,2.0193714 8.721332,4.8466818 8.855667,4.8786618 c -0.673893,-0.12161 -1.347829,-0.26812 -2.021721,-0.24215 -0.673893,-0.026 -1.347766,0.12054 -2.021658,0.24215 0.134334,-0.032 -1.7488353,-2.8592904 -3.1480046,-4.32573042 -0.198869,-0.20843 -0.343534,-0.30386 -0.463786,-0.30292 z"
     inkscape:export-filename="rats"
     inkscape:export-xdpi="96"
     inkscape:export-ydpi="96" /><path
     style="fill:#ff2a2a;fill-opacity:1;stroke:#000000;stroke-width:0.5;stroke-linecap:round;stroke-linejoin:round;stroke-miterlimit:2.4;stroke-dasharray:none;paint-order:fill markers stroke"
     d="m 4.215197,8.1683418 c 0.664278,0.3644 0.852746,0.84934 0.974138,1.35127 -0.240426,0.11551 -0.879819,0.0777 -1.105195,-0.2724 -0.143429,-0.22281 0.04211,-0.7511 0.131057,-1.07887 z"
     id="path13403-2-0-7-0-6-7-9" /><path
     style="fill:#ff2a2a;fill-opacity:1;stroke:#000000;stroke-width:0.5;stroke-linecap:round;stroke-linejoin:round;stroke-miterlimit:2.4;stroke-dasharray:none;paint-order:fill markers stroke"
     d="m 9.452721,8.1683418 c -0.664277,0.3644 -0.852746,0.84934 -0.974137,1.35127 0.240426,0.11551 0.879819,0.0777 1.105195,-0.2724 0.143429,-0.22281 -0.04211,-0.7511 -0.131058,-1.07887 z"
     id="path13403-6-1-4-8-2-4-9-0" /></svg>
