<?xml version="1.0" encoding="UTF-8" standalone="no"?>
<!-- Created with Inkscape (http://www.inkscape.org/) -->

<svg
   width="10.694565mm"
   height="10.542013mm"
   viewBox="0 0 10.694565 10.542013"
   version="1.1"
   id="svg5"
   xml:space="preserve"
   sodipodi:docname="Lairbuilder.svg"
   inkscape:version="1.2.2 (732a01da63, 2022-12-09)"
   xmlns:inkscape="http://www.inkscape.org/namespaces/inkscape"
   xmlns:sodipodi="http://sodipodi.sourceforge.net/DTD/sodipodi-0.dtd"
   xmlns="http://www.w3.org/2000/svg"
   xmlns:svg="http://www.w3.org/2000/svg"><sodipodi:namedview
     id="namedview174"
     pagecolor="#ffffff"
     bordercolor="#000000"
     borderopacity="0.25"
     inkscape:showpageshadow="2"
     inkscape:pageopacity="0.0"
     inkscape:pagecheckerboard="0"
     inkscape:deskcolor="#d1d1d1"
     inkscape:document-units="mm"
     showgrid="false"
     inkscape:zoom="1.4216944"
     inkscape:cx="133.99504"
     inkscape:cy="-7.0338602"
     inkscape:window-width="2560"
     inkscape:window-height="1369"
     inkscape:window-x="-8"
     inkscape:window-y="-8"
     inkscape:window-maximized="1"
     inkscape:current-layer="svg5"><inkscape:grid
       type="xygrid"
       id="grid3530" /></sodipodi:namedview><defs
     id="defs2" /><g
     id="g4052-5-1-7-2-0"
     transform="translate(-106.4698,-283.89913)"><path
       id="path1154-8-47-9-3-3"
       style="vector-effect:non-scaling-stroke;fill:#000000;stroke:#000000;stroke-width:0.0528932;stroke-linecap:round;stroke-linejoin:bevel;stroke-miterlimit:2.4;-inkscape-stroke:hairline;paint-order:fill markers stroke"
       d="m 109.94097,283.89915 c -0.28901,10e-4 -0.53174,0.0496 -0.73794,0.20825 -3.23869,0.38005 -1.9567,2.31745 -1.95182,2.77555 -1.04109,1.48042 -0.95521,3.1938 -0.25063,4.15375 0.15918,0.21687 0.79938,0.58307 1.62936,0.92604 0.64036,1.53166 0.94719,2.34437 2.52491,2.4784 -0.34667,-0.65141 -0.50323,-1.35088 -0.57723,-1.87534 0.26457,0.0479 0.99121,0.20933 1.23921,0.22583 0.24799,-0.0165 0.97514,-0.17793 1.23971,-0.22583 -0.074,0.52446 -0.23107,1.22393 -0.57774,1.87534 1.57772,-0.13403 1.88506,-0.94674 2.52543,-2.4784 0.82997,-0.34297 1.47017,-0.70917 1.62936,-0.92604 0.70458,-0.95995 0.79047,-2.67333 -0.25063,-4.15375 0.005,-0.4581 1.28687,-2.3955 -1.95182,-2.77555 -0.2062,-0.15867 -0.44893,-0.20725 -0.73794,-0.20825 -0.48168,-0.002 -1.09212,0.12797 -1.87637,0.10077 -0.78427,0.0272 -1.39418,-0.10262 -1.87586,-0.10077 z" /><ellipse
       style="vector-effect:non-scaling-stroke;fill:#ffffff;stroke:#000000;stroke-width:0.264583;stroke-linecap:round;stroke-linejoin:bevel;stroke-miterlimit:2.4;-inkscape-stroke:hairline;paint-order:fill markers stroke"
       id="path1255-6-82-5-8-1"
       cx="108.78804"
       cy="285.96762"
       rx="0.52249348"
       ry="0.5699929" /><ellipse
       style="vector-effect:non-scaling-stroke;fill:#ffffff;stroke:#000000;stroke-width:0.338078;stroke-linecap:round;stroke-linejoin:bevel;stroke-miterlimit:2.4;-inkscape-stroke:hairline;paint-order:fill markers stroke"
       id="path1255-7-3-1-1-8-9"
       cx="110.57719"
       cy="285.58759"
       rx="0.66763055"
       ry="0.72832423" /><ellipse
       style="vector-effect:non-scaling-stroke;fill:#ffffff;stroke:#000000;stroke-width:0.264583;stroke-linecap:round;stroke-linejoin:bevel;stroke-miterlimit:2.4;-inkscape-stroke:hairline;paint-order:fill markers stroke"
       id="path1255-7-2-7-0-8-9-4"
       cx="108.67722"
       cy="287.86758"
       rx="0.52249348"
       ry="0.5699929" /><ellipse
       style="vector-effect:non-scaling-stroke;fill:#ffffff;stroke:#000000;stroke-width:0.418923;stroke-linecap:round;stroke-linejoin:bevel;stroke-miterlimit:2.4;-inkscape-stroke:hairline;paint-order:fill markers stroke"
       id="path1255-7-9-7-6-2-6-2"
       cx="110.60886"
       cy="287.89923"
       rx="0.82728136"
       ry="0.90248877" /><ellipse
       style="vector-effect:non-scaling-stroke;fill:#ffffff;stroke:#000000;stroke-width:0.264583;stroke-linecap:round;stroke-linejoin:bevel;stroke-miterlimit:2.4;-inkscape-stroke:hairline;paint-order:fill markers stroke"
       id="path1255-1-9-3-9-7-3"
       cx="-114.84595"
       cy="285.96762"
       rx="0.52249348"
       ry="0.5699929"
       transform="scale(-1,1)" /><ellipse
       style="vector-effect:non-scaling-stroke;fill:#ffffff;stroke:#000000;stroke-width:0.338078;stroke-linecap:round;stroke-linejoin:bevel;stroke-miterlimit:2.4;-inkscape-stroke:hairline;paint-order:fill markers stroke"
       id="path1255-7-92-9-8-2-2-1"
       cx="-113.05679"
       cy="285.58759"
       rx="0.66763055"
       ry="0.72832423"
       transform="scale(-1,1)" /><ellipse
       style="vector-effect:non-scaling-stroke;fill:#ffffff;stroke:#000000;stroke-width:0.264583;stroke-linecap:round;stroke-linejoin:bevel;stroke-miterlimit:2.4;-inkscape-stroke:hairline;paint-order:fill markers stroke"
       id="path1255-7-2-3-1-09-5-0-5"
       cx="-114.95679"
       cy="287.86758"
       rx="0.52249348"
       ry="0.5699929"
       transform="scale(-1,1)" /><ellipse
       style="vector-effect:non-scaling-stroke;fill:#ffffff;stroke:#000000;stroke-width:0.418923;stroke-linecap:round;stroke-linejoin:bevel;stroke-miterlimit:2.4;-inkscape-stroke:hairline;paint-order:fill markers stroke"
       id="path1255-7-9-4-1-9-8-3-8"
       cx="-113.02512"
       cy="287.89923"
       rx="0.82728136"
       ry="0.90248877"
       transform="scale(-1,1)" /></g></svg>
